<?xml version="1.0" encoding="utf-8"?>
<!-- Generator: Adobe Illustrator 27.3.1, SVG Export Plug-In . SVG Version: 6.00 Build 0)  -->
<svg version="1.1" id="Layer_1" xmlns="http://www.w3.org/2000/svg" xmlns:xlink="http://www.w3.org/1999/xlink" x="0px" y="0px"
	 width="35px" height="35px" viewBox="0 0 35 35" style="enable-background:new 0 0 35 35;" xml:space="preserve">
<style type="text/css">
	.st0{fill:#2C5696;}
	.st1{display:none;}
	.st2{display:inline;}
	.st3{display:inline;fill:#2C5696;}
</style>
<g>
	<g>
		<g>
			<path class="st0" d="M34.359,34.635H0.649c-0.261,0-0.472-0.211-0.472-0.472V4.475c0-0.261,0.211-0.472,0.472-0.472h33.71
				c0.261,0,0.472,0.212,0.472,0.472v29.688C34.831,34.424,34.62,34.635,34.359,34.635z M1.121,33.691h32.766V4.947H1.121V33.691z"
				/>
		</g>
		<g>
			<path class="st0" d="M34.359,34.813H0.649C0.292,34.813,0,34.521,0,34.163V4.475c0-0.358,0.292-0.649,0.649-0.649h33.71
				c0.358,0,0.649,0.292,0.649,0.649v29.688C35.008,34.521,34.717,34.813,34.359,34.813z M0.649,4.18
				c-0.163,0-0.295,0.132-0.295,0.295v29.688c0,0.163,0.132,0.295,0.295,0.295h33.71c0.163,0,0.295-0.132,0.295-0.295V4.475
				c0-0.163-0.132-0.295-0.295-0.295H0.649z M33.887,33.868H1.121c-0.098,0-0.177-0.079-0.177-0.177V4.947
				c0-0.098,0.079-0.177,0.177-0.177h32.765c0.098,0,0.177,0.079,0.177,0.177v28.744C34.064,33.789,33.985,33.868,33.887,33.868z
				 M1.299,33.514H33.71V5.124H1.299V33.514z"/>
		</g>
	</g>
	<g>
		<g>
			<path class="st0" d="M26.041,7.486c-0.261,0-0.472-0.211-0.472-0.472V0.875c0-0.261,0.211-0.472,0.472-0.472
				c0.261,0,0.472,0.211,0.472,0.472v6.139C26.513,7.274,26.302,7.486,26.041,7.486z"/>
		</g>
		<g>
			<path class="st0" d="M26.041,7.663c-0.358,0-0.649-0.292-0.649-0.649V0.875c0-0.358,0.291-0.649,0.649-0.649
				c0.358,0,0.649,0.291,0.649,0.649v6.139C26.691,7.371,26.399,7.663,26.041,7.663z M26.041,0.579
				c-0.163,0-0.295,0.132-0.295,0.295v6.139c0,0.163,0.132,0.295,0.295,0.295c0.163,0,0.295-0.132,0.295-0.295V0.875
				C26.337,0.712,26.204,0.579,26.041,0.579z"/>
		</g>
	</g>
	<g>
		<g>
			<path class="st0" d="M8.726,7.486c-0.261,0-0.472-0.211-0.472-0.472V0.875c0-0.261,0.211-0.472,0.472-0.472
				c0.261,0,0.472,0.211,0.472,0.472v6.139C9.198,7.274,8.987,7.486,8.726,7.486z"/>
		</g>
		<g>
			<path class="st0" d="M8.726,7.663c-0.358,0-0.649-0.292-0.649-0.649V0.875c0-0.358,0.291-0.649,0.649-0.649
				c0.358,0,0.649,0.291,0.649,0.649v6.139C9.376,7.371,9.084,7.663,8.726,7.663z M8.726,0.579c-0.163,0-0.295,0.132-0.295,0.295
				v6.139c0,0.163,0.132,0.295,0.295,0.295c0.163,0,0.295-0.132,0.295-0.295V0.875C9.021,0.712,8.889,0.579,8.726,0.579z"/>
		</g>
	</g>
	<g>
		<g>
			<g>
				<path class="st0" d="M9.155,25.811V25.14c0.214-0.186,0.534-0.462,0.958-0.825c0.424-0.364,0.748-0.644,0.972-0.839
					c0.224-0.196,0.515-0.459,0.874-0.79c0.359-0.331,0.639-0.606,0.839-0.825c0.201-0.219,0.424-0.48,0.671-0.783
					c0.247-0.303,0.436-0.576,0.566-0.818c0.298-0.588,0.447-1.163,0.447-1.728c0-0.564-0.167-1.044-0.503-1.44
					c-0.336-0.396-0.867-0.594-1.595-0.594s-1.284,0.219-1.671,0.657c-0.387,0.439-0.599,1.012-0.636,1.72H9.155
					c0.046-1.025,0.359-1.818,0.937-2.377c0.578-0.559,1.326-0.839,2.244-0.839c0.918,0,1.662,0.259,2.231,0.776
					c0.569,0.517,0.853,1.247,0.853,2.189c0,0.41-0.084,0.837-0.252,1.279c-0.167,0.443-0.359,0.83-0.573,1.161
					c-0.214,0.331-0.522,0.713-0.923,1.147c-0.401,0.433-0.725,0.765-0.972,0.993c-0.247,0.228-0.608,0.55-1.084,0.965
					c-0.475,0.415-0.778,0.683-0.909,0.804h5.049v0.839H9.155z"/>
			</g>
			<g>
				<path class="st0" d="M15.756,25.988H9.155c-0.098,0-0.177-0.079-0.177-0.177V25.14c0-0.051,0.022-0.1,0.061-0.134
					c0.215-0.186,0.534-0.462,0.959-0.826c0.424-0.363,0.748-0.643,0.971-0.838c0.223-0.195,0.513-0.457,0.871-0.787
					c0.35-0.322,0.629-0.596,0.829-0.814c0.199-0.217,0.42-0.476,0.665-0.776c0.24-0.294,0.424-0.56,0.548-0.79
					c0.282-0.556,0.426-1.11,0.426-1.644c0-0.526-0.151-0.96-0.461-1.326c-0.299-0.353-0.79-0.532-1.459-0.532
					c-0.68,0-1.183,0.195-1.538,0.597c-0.358,0.406-0.557,0.948-0.592,1.612c-0.005,0.094-0.083,0.168-0.177,0.168H9.155
					c-0.048,0-0.095-0.02-0.128-0.055c-0.033-0.035-0.051-0.082-0.049-0.13c0.049-1.067,0.382-1.908,0.991-2.497
					c0.609-0.59,1.406-0.889,2.368-0.889c0.96,0,1.75,0.277,2.35,0.822c0.605,0.55,0.911,1.331,0.911,2.32
					c0,0.43-0.088,0.881-0.263,1.342c-0.17,0.451-0.369,0.853-0.59,1.195c-0.22,0.339-0.536,0.732-0.942,1.17
					c-0.4,0.432-0.73,0.77-0.981,1.003c-0.248,0.229-0.61,0.552-1.088,0.968c-0.227,0.198-0.415,0.362-0.563,0.493h4.586
					c0.098,0,0.177,0.079,0.177,0.177v0.839C15.933,25.909,15.854,25.988,15.756,25.988z M9.332,25.634h6.247V25.15h-4.871
					c-0.073,0-0.138-0.045-0.165-0.113c-0.027-0.068-0.009-0.145,0.044-0.194c0.131-0.122,0.435-0.391,0.913-0.808
					c0.474-0.413,0.834-0.734,1.08-0.961c0.245-0.226,0.568-0.558,0.962-0.984c0.392-0.423,0.696-0.801,0.905-1.123
					c0.208-0.32,0.394-0.699,0.556-1.127c0.159-0.421,0.24-0.83,0.24-1.217c0-0.885-0.267-1.578-0.795-2.058
					c-0.533-0.484-1.243-0.73-2.112-0.73c-0.867,0-1.58,0.266-2.121,0.79c-0.507,0.491-0.8,1.187-0.872,2.073h0.57
					c0.062-0.67,0.287-1.229,0.668-1.66c0.42-0.476,1.027-0.717,1.804-0.717c0.778,0,1.36,0.221,1.73,0.657
					c0.362,0.426,0.545,0.949,0.545,1.554c0,0.59-0.157,1.198-0.467,1.808c-0.136,0.253-0.333,0.538-0.587,0.849
					c-0.25,0.306-0.478,0.572-0.678,0.791c-0.207,0.226-0.492,0.507-0.85,0.836c-0.36,0.332-0.652,0.596-0.877,0.793
					c-0.224,0.196-0.549,0.476-0.973,0.84c-0.386,0.33-0.684,0.587-0.896,0.771V25.634z"/>
			</g>
		</g>
		<g>
			<g>
				<path class="st0" d="M19.378,16.169c0.597-0.443,1.348-0.664,2.252-0.664c0.904,0,1.625,0.244,2.161,0.734
					c0.536,0.489,0.804,1.112,0.804,1.867c0,0.532-0.156,1.007-0.468,1.427c-0.312,0.42-0.73,0.708-1.252,0.867v0.07
					c0.597,0.149,1.063,0.461,1.399,0.937c0.336,0.476,0.504,1.095,0.504,1.86c0,0.765-0.276,1.412-0.826,1.944
					c-0.55,0.532-1.312,0.797-2.286,0.797c-0.974,0-1.769-0.245-2.385-0.734c-0.615-0.49-0.97-1.172-1.063-2.049h0.909
					c0.065,0.559,0.319,1.023,0.762,1.392c0.443,0.368,1.026,0.552,1.748,0.552c0.723,0,1.277-0.191,1.664-0.573
					c0.387-0.382,0.581-0.881,0.581-1.496c0-0.811-0.259-1.387-0.776-1.727c-0.518-0.34-1.294-0.51-2.329-0.51h-0.308v-0.825h0.321
					c1.93-0.009,2.895-0.62,2.895-1.832c0-0.568-0.182-1.021-0.546-1.357c-0.363-0.336-0.879-0.504-1.545-0.504
					c-0.666,0-1.198,0.143-1.594,0.426c-0.396,0.285-0.636,0.692-0.72,1.224h-0.937C18.436,17.22,18.781,16.612,19.378,16.169z"/>
			</g>
			<g>
				<path class="st0" d="M21.665,26.184c-1.01,0-1.85-0.26-2.495-0.772c-0.651-0.519-1.031-1.248-1.129-2.169
					c-0.005-0.05,0.011-0.1,0.044-0.137c0.034-0.037,0.082-0.059,0.132-0.059h0.909c0.09,0,0.166,0.067,0.176,0.157
					c0.06,0.517,0.289,0.934,0.699,1.276c0.408,0.339,0.958,0.511,1.635,0.511c0.671,0,1.189-0.176,1.54-0.522
					c0.355-0.351,0.528-0.799,0.528-1.37c0-0.754-0.228-1.271-0.696-1.579c-0.486-0.32-1.237-0.481-2.231-0.481h-0.308
					c-0.098,0-0.177-0.079-0.177-0.177v-0.825c0-0.098,0.079-0.177,0.177-0.177h0.321c1.829-0.009,2.718-0.55,2.718-1.655
					c0-0.522-0.16-0.923-0.488-1.227c-0.328-0.303-0.807-0.456-1.425-0.456c-0.625,0-1.127,0.132-1.491,0.393
					c-0.36,0.258-0.572,0.62-0.649,1.108c-0.014,0.086-0.088,0.149-0.175,0.149h-0.937c-0.051,0-0.099-0.022-0.132-0.059
					c-0.034-0.038-0.049-0.088-0.043-0.139c0.099-0.82,0.47-1.475,1.105-1.946l0,0c0.625-0.464,1.419-0.699,2.358-0.699
					c0.946,0,1.713,0.263,2.28,0.78c0.571,0.522,0.861,1.194,0.861,1.998c0,0.569-0.169,1.084-0.504,1.532
					c-0.254,0.342-0.576,0.605-0.962,0.785c0.457,0.185,0.83,0.481,1.112,0.881c0.356,0.504,0.536,1.163,0.536,1.962
					c0,0.811-0.296,1.508-0.879,2.071C23.492,25.899,22.682,26.184,21.665,26.184z M18.419,23.401
					c0.117,0.738,0.435,1.307,0.971,1.734c0.581,0.461,1.346,0.695,2.274,0.695c0.922,0,1.65-0.251,2.163-0.747
					c0.519-0.501,0.771-1.096,0.771-1.817c0-0.723-0.159-1.315-0.471-1.758c-0.313-0.444-0.737-0.728-1.297-0.867
					c-0.079-0.02-0.134-0.091-0.134-0.172v-0.07c0-0.078,0.051-0.147,0.126-0.169c0.483-0.147,0.874-0.417,1.161-0.803
					c0.292-0.391,0.434-0.824,0.434-1.321c0-0.71-0.244-1.278-0.746-1.736c-0.5-0.457-1.187-0.688-2.041-0.688
					c-0.861,0-1.584,0.212-2.146,0.629l0,0c-0.509,0.378-0.816,0.872-0.934,1.506h0.584c0.111-0.506,0.368-0.907,0.764-1.191
					c0.426-0.305,0.997-0.46,1.698-0.46c0.71,0,1.27,0.185,1.666,0.551c0.399,0.369,0.602,0.869,0.602,1.487
					c0,1.323-1.034,2-3.071,2.009h-0.145v0.471h0.131c1.065,0,1.881,0.182,2.426,0.54c0.568,0.374,0.856,1.004,0.856,1.875
					c0,0.661-0.213,1.207-0.633,1.622c-0.419,0.414-1.021,0.624-1.789,0.624c-0.762,0-1.388-0.2-1.861-0.593
					c-0.435-0.362-0.704-0.816-0.801-1.351H18.419z"/>
			</g>
		</g>
	</g>
	<g>
		<g>
			<path class="st0" d="M34.359,9.611H0.991c-0.261,0-0.472-0.212-0.472-0.472S0.73,8.666,0.991,8.666h33.368
				c0.261,0,0.472,0.212,0.472,0.472S34.62,9.611,34.359,9.611z"/>
		</g>
		<g>
			<path class="st0" d="M34.359,9.788H0.992c-0.358,0-0.649-0.291-0.649-0.649s0.292-0.649,0.649-0.649h33.368
				c0.358,0,0.649,0.292,0.649,0.649S34.717,9.788,34.359,9.788z M0.992,8.843c-0.163,0-0.295,0.132-0.295,0.295
				c0,0.163,0.132,0.295,0.295,0.295h33.368c0.163,0,0.295-0.132,0.295-0.295c0-0.163-0.132-0.295-0.295-0.295H0.992z"/>
		</g>
	</g>
</g>
<g class="st1">
	<g class="st2">
		<g>
			<path class="st0" d="M19.3,35.076h-3.704c-0.718,0-1.301-0.584-1.301-1.302v-1.579c0-0.754-0.484-1.425-1.205-1.672
				c-0.563-0.192-1.12-0.425-1.654-0.692c-0.66-0.329-1.45-0.204-1.966,0.312l-1.153,1.153c-0.492,0.492-1.35,0.491-1.84,0
				l-2.62-2.619c-0.507-0.507-0.507-1.333,0-1.841l1.168-1.168c0.514-0.514,0.641-1.302,0.315-1.96
				c-0.264-0.535-0.494-1.091-0.684-1.654c-0.242-0.716-0.906-1.196-1.653-1.196H1.379c-0.717,0-1.301-0.584-1.301-1.302v-3.704
				c0-0.718,0.584-1.301,1.301-1.301h1.654c0.743,0,1.406-0.477,1.651-1.187c0.19-0.553,0.419-1.1,0.681-1.626
				c0.329-0.661,0.204-1.452-0.312-1.968L3.856,8.574C3.61,8.328,3.475,8.002,3.475,7.654c0-0.348,0.136-0.675,0.381-0.92
				l2.62-2.619c0.49-0.491,1.348-0.492,1.84,0l1.212,1.212c0.514,0.514,1.302,0.641,1.962,0.315c0.527-0.26,1.074-0.487,1.627-0.675
				c0.704-0.239,1.177-0.895,1.177-1.631V1.638c0-0.718,0.584-1.301,1.301-1.301H19.3c0.718,0,1.302,0.584,1.302,1.301v1.698
				c0,0.736,0.473,1.392,1.178,1.631c0.553,0.188,1.101,0.415,1.627,0.674c0.661,0.326,1.449,0.199,1.962-0.314l1.212-1.212
				c0.507-0.507,1.332-0.508,1.841,0l2.619,2.62c0.246,0.246,0.382,0.572,0.382,0.92c0,0.348-0.136,0.674-0.382,0.92l-1.197,1.197
				c-0.516,0.516-0.641,1.307-0.311,1.968c0.262,0.525,0.491,1.072,0.681,1.626c0.245,0.71,0.908,1.187,1.65,1.187h1.654
				c0.718,0,1.301,0.584,1.301,1.301v3.704c0,0.718-0.584,1.302-1.301,1.302h-1.623c-0.747,0-1.411,0.481-1.653,1.196
				c-0.19,0.563-0.42,1.12-0.684,1.654c-0.325,0.659-0.199,1.446,0.315,1.96l1.168,1.168c0.507,0.507,0.507,1.333,0,1.841
				l-2.619,2.619c-0.507,0.507-1.332,0.508-1.841,0l-1.153-1.154c-0.517-0.516-1.306-0.641-1.966-0.312
				c-0.534,0.267-1.091,0.499-1.654,0.692c-0.721,0.246-1.205,0.918-1.205,1.672v1.579C20.602,34.492,20.018,35.076,19.3,35.076z
				 M10.666,28.68c0.408,0,0.819,0.093,1.203,0.285c0.496,0.247,1.012,0.463,1.534,0.641c1.114,0.38,1.862,1.421,1.862,2.59v1.579
				c0,0.183,0.149,0.331,0.331,0.331H19.3c0.182,0,0.331-0.149,0.331-0.331v-1.579c0-1.169,0.748-2.21,1.862-2.59
				c0.522-0.178,1.038-0.394,1.534-0.641c1.033-0.517,2.273-0.317,3.086,0.494l1.153,1.153c0.129,0.129,0.34,0.128,0.469,0
				l2.619-2.619c0.063-0.063,0.097-0.146,0.097-0.234c0-0.088-0.035-0.171-0.097-0.234l-1.168-1.168
				c-0.808-0.808-1.009-2.045-0.499-3.076c0.245-0.495,0.458-1.012,0.635-1.534c0.375-1.11,1.408-1.856,2.572-1.856h1.623
				c0.182,0,0.331-0.148,0.331-0.331v-3.704c0-0.182-0.149-0.331-0.331-0.331h-1.654c-1.157,0-2.188-0.74-2.568-1.842
				c-0.177-0.514-0.39-1.021-0.632-1.508c-0.516-1.036-0.317-2.276,0.494-3.087l1.197-1.198c0.063-0.063,0.097-0.146,0.097-0.234
				c0-0.088-0.035-0.172-0.097-0.234L27.735,4.8c-0.129-0.13-0.34-0.129-0.469,0l-1.212,1.212c-0.807,0.808-2.044,1.009-3.077,0.499
				c-0.489-0.241-0.996-0.451-1.509-0.626c-1.098-0.372-1.836-1.397-1.836-2.55V1.638c0-0.183-0.149-0.331-0.331-0.331h-3.704
				c-0.182,0-0.331,0.148-0.331,0.331v1.698c0,1.152-0.738,2.177-1.836,2.55c-0.513,0.174-1.021,0.385-1.51,0.626
				c-1.031,0.509-2.269,0.31-3.077-0.499L7.63,4.8c-0.126-0.125-0.343-0.125-0.468,0l-2.62,2.62C4.48,7.482,4.445,7.566,4.445,7.654
				c0,0.088,0.035,0.171,0.097,0.234L5.74,9.085c0.812,0.811,1.01,2.052,0.494,3.087c-0.243,0.488-0.456,0.996-0.632,1.508
				c-0.379,1.102-1.411,1.842-2.568,1.842H1.379c-0.182,0-0.331,0.149-0.331,0.331v3.704c0,0.183,0.148,0.331,0.331,0.331h1.623
				c1.164,0,2.197,0.746,2.572,1.856c0.177,0.522,0.39,1.039,0.635,1.535c0.51,1.031,0.31,2.267-0.499,3.076l-1.168,1.168
				c-0.063,0.063-0.097,0.146-0.097,0.234c0,0.089,0.035,0.172,0.097,0.234l2.62,2.619c0.125,0.125,0.343,0.126,0.468,0l1.153-1.153
				C9.294,28.948,9.974,28.68,10.666,28.68z"/>
		</g>
		<g>
			<path class="st0" d="M19.3,35.258h-3.704c-0.818,0-1.484-0.666-1.484-1.483v-1.579c0-0.676-0.435-1.278-1.082-1.5
				c-0.572-0.195-1.136-0.431-1.676-0.701c-0.59-0.294-1.295-0.182-1.756,0.278l-1.153,1.153c-0.268,0.268-0.651,0.422-1.049,0.422
				h0c-0.399-0.001-0.781-0.154-1.049-0.422l-2.62-2.619c-0.578-0.579-0.578-1.52,0-2.098l1.169-1.168
				c0.459-0.459,0.572-1.162,0.281-1.75c-0.268-0.543-0.502-1.108-0.693-1.677c-0.217-0.642-0.811-1.072-1.48-1.072H1.379
				c-0.818,0-1.483-0.666-1.483-1.483v-3.705c0-0.818,0.665-1.483,1.483-1.483h1.654c0.665,0,1.259-0.428,1.479-1.065
				c0.192-0.56,0.424-1.115,0.69-1.648C5.497,11.067,5.385,10.36,4.924,9.9L3.727,8.703c-0.28-0.28-0.434-0.652-0.434-1.049
				c0-0.396,0.154-0.768,0.434-1.049l2.62-2.62c0.268-0.268,0.65-0.421,1.049-0.422h0c0.399,0,0.781,0.154,1.049,0.422l1.212,1.213
				c0.459,0.459,1.164,0.571,1.752,0.28c0.534-0.263,1.088-0.493,1.649-0.684c0.63-0.214,1.054-0.8,1.054-1.458V1.638
				c0-0.818,0.666-1.483,1.484-1.483H19.3c0.818,0,1.484,0.666,1.484,1.483v1.698c0,0.658,0.424,1.244,1.054,1.458
				c0.561,0.19,1.115,0.42,1.649,0.684c0.589,0.29,1.294,0.178,1.753-0.28l1.212-1.212c0.578-0.578,1.519-0.579,2.098-0.001
				l2.62,2.62c0.28,0.28,0.434,0.653,0.434,1.049c0,0.396-0.155,0.769-0.434,1.049l-1.197,1.197
				c-0.461,0.46-0.572,1.167-0.277,1.758c0.266,0.534,0.498,1.088,0.69,1.647c0.22,0.637,0.814,1.065,1.478,1.065h1.654
				c0.818,0,1.483,0.665,1.483,1.483v3.705c0,0.818-0.666,1.483-1.483,1.483h-1.623c-0.669,0-1.264,0.431-1.48,1.072
				c-0.193,0.571-0.426,1.135-0.694,1.676c-0.291,0.589-0.178,1.292,0.281,1.751l1.169,1.168c0.578,0.579,0.578,1.52,0,2.098
				l-2.619,2.62c-0.579,0.577-1.52,0.577-2.098,0l-1.154-1.154c-0.459-0.459-1.165-0.572-1.756-0.278
				c-0.54,0.27-1.104,0.505-1.676,0.701c-0.647,0.221-1.082,0.824-1.082,1.5v1.579C20.784,34.593,20.118,35.258,19.3,35.258z
				 M10.666,29.469c0.288,0,0.579,0.066,0.85,0.201c0.525,0.263,1.074,0.492,1.631,0.683c0.795,0.272,1.328,1.012,1.328,1.844v1.579
				c0,0.617,0.502,1.12,1.12,1.12H19.3c0.617,0,1.12-0.502,1.12-1.12v-1.579c0-0.831,0.534-1.572,1.328-1.844
				c0.557-0.19,1.106-0.42,1.631-0.683c0.732-0.362,1.606-0.224,2.176,0.346l1.154,1.154c0.436,0.435,1.147,0.435,1.583,0
				l2.619-2.62c0.437-0.436,0.437-1.146,0-1.582l-1.169-1.168c-0.569-0.57-0.709-1.441-0.349-2.17
				c0.26-0.527,0.487-1.076,0.675-1.632c0.267-0.789,1-1.319,1.825-1.319h1.623c0.617,0,1.12-0.502,1.12-1.12v-3.705
				c0-0.617-0.502-1.119-1.12-1.119h-1.654c-0.82,0-1.553-0.526-1.822-1.31c-0.187-0.544-0.413-1.084-0.672-1.604
				c-0.365-0.731-0.226-1.607,0.346-2.178l1.197-1.197c0.212-0.211,0.328-0.493,0.328-0.792s-0.117-0.58-0.328-0.791l-2.619-2.62
				c-0.437-0.437-1.147-0.437-1.583,0l-1.212,1.212c-0.569,0.57-1.442,0.709-2.171,0.349c-0.519-0.256-1.059-0.48-1.604-0.665
				C20.943,4.875,20.42,4.15,20.42,3.336V1.638c0-0.617-0.502-1.119-1.12-1.119h-3.704c-0.617,0-1.12,0.502-1.12,1.119v1.698
				c0,0.814-0.523,1.539-1.301,1.803c-0.546,0.185-1.086,0.409-1.605,0.665c-0.73,0.362-1.602,0.221-2.172-0.349L8.187,4.242
				c-0.2-0.2-0.488-0.315-0.791-0.315h0c-0.303,0-0.591,0.115-0.791,0.315l-2.62,2.62C3.773,7.074,3.656,7.355,3.656,7.654
				s0.117,0.58,0.328,0.791l1.198,1.197c0.571,0.571,0.71,1.446,0.346,2.178c-0.259,0.519-0.485,1.059-0.672,1.604
				c-0.27,0.784-1.002,1.31-1.823,1.31H1.379c-0.617,0-1.119,0.502-1.119,1.119v3.705c0,0.617,0.502,1.12,1.119,1.12h1.623
				c0.825,0,1.558,0.53,1.825,1.319c0.187,0.554,0.414,1.103,0.675,1.632c0.36,0.728,0.22,1.6-0.349,2.169l-1.168,1.168
				c-0.437,0.436-0.437,1.146,0,1.582l2.62,2.62c0.2,0.2,0.488,0.315,0.791,0.315h0c0.303,0,0.591-0.115,0.791-0.315l1.153-1.153
				C9.7,29.657,10.179,29.469,10.666,29.469z M19.3,34.288h-3.704c-0.283,0-0.513-0.23-0.513-0.513v-1.579
				c0-1.091-0.699-2.063-1.739-2.418c-0.531-0.181-1.055-0.4-1.556-0.651c-0.348-0.174-0.736-0.266-1.122-0.266
				c-0.663,0-1.286,0.258-1.754,0.726l-1.153,1.153c-0.094,0.094-0.222,0.147-0.361,0.147H7.396c-0.137,0-0.269-0.054-0.363-0.147
				l-2.62-2.62c-0.097-0.097-0.15-0.226-0.15-0.363c0-0.137,0.054-0.266,0.15-0.363l1.168-1.168c0.753-0.753,0.94-1.905,0.465-2.867
				c-0.247-0.5-0.464-1.024-0.644-1.557c-0.35-1.036-1.314-1.732-2.399-1.732H1.379c-0.283,0-0.513-0.23-0.513-0.513v-3.705
				c0-0.283,0.23-0.513,0.513-0.513h1.654c1.079,0,2.042-0.691,2.396-1.72c0.178-0.52,0.394-1.034,0.641-1.53
				C6.551,11.126,6.367,9.97,5.61,9.214L4.413,8.017c-0.097-0.097-0.15-0.226-0.15-0.363c0-0.137,0.054-0.266,0.15-0.363l2.62-2.62
				c0.187-0.187,0.538-0.187,0.725,0l1.213,1.213c0.753,0.753,1.906,0.94,2.868,0.464c0.497-0.245,1.012-0.459,1.532-0.635
				c1.024-0.348,1.712-1.303,1.712-2.377V1.638c0-0.283,0.23-0.513,0.513-0.513H19.3c0.283,0,0.513,0.23,0.513,0.513v1.698
				c0,1.074,0.688,2.03,1.713,2.377c0.52,0.177,1.035,0.39,1.531,0.635c0.963,0.475,2.116,0.288,2.868-0.464l1.212-1.212
				c0.096-0.097,0.225-0.15,0.362-0.15h0.001c0.137,0,0.266,0.053,0.363,0.15l2.619,2.621c0.097,0.096,0.15,0.225,0.15,0.362
				c0,0.137-0.054,0.266-0.15,0.363l-1.197,1.197c-0.756,0.756-0.941,1.912-0.459,2.877c0.246,0.496,0.462,1.01,0.641,1.53
				c0.354,1.029,1.317,1.719,2.396,1.719h1.654c0.283,0,0.513,0.23,0.513,0.513v3.705c0,0.283-0.23,0.513-0.513,0.513h-1.623
				c-1.085,0-2.05,0.696-2.399,1.732c-0.181,0.533-0.398,1.057-0.644,1.556c-0.475,0.962-0.289,2.114,0.465,2.867l1.168,1.168
				c0.097,0.097,0.15,0.226,0.15,0.363c0,0.137-0.054,0.266-0.15,0.363l-2.619,2.619c-0.201,0.2-0.527,0.199-0.726,0l-1.153-1.154
				c-0.757-0.757-1.912-0.942-2.875-0.46c-0.502,0.251-1.026,0.47-1.557,0.651c-1.04,0.355-1.739,1.327-1.739,2.418v1.579
				C19.813,34.058,19.583,34.288,19.3,34.288z M10.666,28.498c0.442,0,0.885,0.105,1.284,0.304c0.487,0.243,0.996,0.456,1.511,0.633
				c1.187,0.406,1.985,1.515,1.985,2.762v1.579c0,0.082,0.067,0.149,0.149,0.149H19.3c0.083,0,0.149-0.067,0.149-0.149v-1.579
				c0-1.246,0.798-2.356,1.985-2.762c0.516-0.177,1.024-0.39,1.512-0.633c1.103-0.55,2.428-0.339,3.295,0.528l1.154,1.154
				c0.058,0.058,0.153,0.058,0.211-0.001l2.619-2.619c0.029-0.028,0.044-0.065,0.044-0.105c0-0.04-0.015-0.077-0.044-0.105
				l-1.169-1.168c-0.863-0.864-1.077-2.184-0.533-3.286c0.24-0.485,0.45-0.994,0.625-1.512c0.4-1.184,1.503-1.98,2.744-1.98h1.623
				c0.083,0,0.149-0.067,0.149-0.149v-3.705c0-0.082-0.067-0.149-0.149-0.149h-1.654c-1.234,0-2.335-0.79-2.74-1.965
				c-0.174-0.505-0.383-1.005-0.623-1.487c-0.551-1.105-0.339-2.43,0.528-3.297l1.197-1.197c0.029-0.029,0.044-0.065,0.044-0.106
				c0-0.04-0.015-0.077-0.043-0.104l-2.62-2.621c-0.028-0.028-0.066-0.043-0.105-0.043h0c-0.04,0-0.077,0.016-0.105,0.044
				l-1.212,1.213c-0.863,0.863-2.182,1.078-3.287,0.532c-0.481-0.237-0.982-0.444-1.487-0.616c-1.172-0.397-1.96-1.492-1.96-2.722
				V1.638c0-0.082-0.067-0.149-0.149-0.149h-3.704c-0.083,0-0.149,0.067-0.149,0.149v1.698c0,1.23-0.788,2.324-1.96,2.722
				C12.983,6.229,12.482,6.436,12,6.675c-1.102,0.546-2.423,0.33-3.287-0.533L7.501,4.929c-0.051-0.051-0.159-0.051-0.21,0
				l-2.62,2.62C4.642,7.577,4.627,7.614,4.627,7.654c0,0.04,0.015,0.077,0.044,0.105l1.197,1.197
				c0.867,0.867,1.078,2.192,0.528,3.297c-0.24,0.481-0.45,0.982-0.623,1.486c-0.404,1.175-1.505,1.965-2.74,1.965H1.379
				c-0.082,0-0.149,0.067-0.149,0.149v3.705c0,0.082,0.067,0.149,0.149,0.149h1.623c1.242,0,2.344,0.795,2.744,1.98
				c0.175,0.518,0.386,1.027,0.625,1.512c0.545,1.101,0.33,2.422-0.533,3.285l-1.168,1.168c-0.029,0.029-0.044,0.065-0.044,0.105
				c0,0.04,0.015,0.077,0.044,0.105l2.62,2.62c0.026,0.026,0.064,0.041,0.106,0.041h0.001c0.041,0,0.078-0.015,0.104-0.04
				l1.154-1.154C9.191,28.794,9.905,28.498,10.666,28.498z"/>
		</g>
	</g>
	<g class="st2">
		<g>
			<path class="st0" d="M17.448,27.402c-5.346,0-9.696-4.349-9.696-9.695c0-5.346,4.35-9.696,9.696-9.696s9.695,4.349,9.695,9.696
				C27.144,23.053,22.794,27.402,17.448,27.402z M17.448,8.981c-4.811,0-8.725,3.914-8.725,8.725c0,4.811,3.914,8.725,8.725,8.725
				c4.811,0,8.725-3.914,8.725-8.725C26.173,12.895,22.259,8.981,17.448,8.981z"/>
		</g>
		<g>
			<path class="st0" d="M17.448,27.584c-5.446,0-9.877-4.431-9.877-9.877c0-5.447,4.431-9.878,9.877-9.878s9.878,4.431,9.878,9.878
				C27.325,23.153,22.894,27.584,17.448,27.584z M17.448,8.193c-5.246,0-9.514,4.268-9.514,9.514c0,5.246,4.268,9.513,9.514,9.513
				s9.514-4.268,9.514-9.513C26.962,12.461,22.694,8.193,17.448,8.193z M17.448,26.614c-4.911,0-8.907-3.996-8.907-8.907
				c0-4.912,3.996-8.908,8.907-8.908s8.907,3.996,8.907,8.908C26.355,22.618,22.359,26.614,17.448,26.614z M17.448,9.163
				c-4.711,0-8.543,3.833-8.543,8.544c0,4.71,3.833,8.543,8.543,8.543s8.543-3.833,8.543-8.543
				C25.991,12.996,22.159,9.163,17.448,9.163z"/>
		</g>
	</g>
</g>
<g class="st1">
	<g class="st2">
		<g>
			<path class="st0" d="M29.585,34.193H0.587c-0.228,0-0.413-0.185-0.413-0.413V4.782c0-0.228,0.185-0.413,0.413-0.413h28.999
				c0.228,0,0.413,0.185,0.413,0.413V33.78C29.998,34.008,29.813,34.193,29.585,34.193z M0.999,33.368h28.173V5.194H0.999V33.368z"
				/>
		</g>
		<g>
			<path class="st0" d="M29.585,34.348H0.587c-0.313,0-0.567-0.255-0.567-0.568V4.782c0-0.313,0.255-0.568,0.567-0.568h28.999
				c0.313,0,0.567,0.255,0.567,0.568V33.78C30.153,34.093,29.898,34.348,29.585,34.348z M0.587,4.524
				c-0.142,0-0.258,0.116-0.258,0.258V33.78c0,0.142,0.116,0.258,0.258,0.258h28.999c0.142,0,0.258-0.116,0.258-0.258V4.782
				c0-0.142-0.116-0.258-0.258-0.258H0.587z M29.173,33.522H0.999c-0.086,0-0.155-0.069-0.155-0.155V5.194
				c0-0.085,0.069-0.155,0.155-0.155h28.173c0.086,0,0.155,0.069,0.155,0.155v28.173C29.327,33.453,29.258,33.522,29.173,33.522z
				 M1.154,33.213h27.864V5.349H1.154V33.213z"/>
		</g>
	</g>
	<g class="st2">
		<g>
			<path class="st0" d="M6.887,14.554c-1.521,0-2.76-1.238-2.76-2.76c0-1.521,1.238-2.76,2.76-2.76c1.522,0,2.76,1.238,2.76,2.76
				C9.647,13.316,8.409,14.554,6.887,14.554z M6.887,9.86c-1.066,0-1.934,0.868-1.934,1.934c0,1.067,0.868,1.935,1.934,1.935
				c1.067,0,1.935-0.868,1.935-1.935C8.822,10.728,7.954,9.86,6.887,9.86z"/>
		</g>
		<g>
			<path class="st0" d="M6.888,14.709c-1.607,0-2.914-1.307-2.914-2.915c0-1.607,1.307-2.914,2.914-2.914
				c1.607,0,2.915,1.307,2.915,2.914C9.802,13.402,8.495,14.709,6.888,14.709z M6.888,9.19c-1.436,0-2.605,1.168-2.605,2.605
				c0,1.436,1.168,2.605,2.605,2.605c1.436,0,2.605-1.169,2.605-2.605C9.493,10.358,8.324,9.19,6.888,9.19z M6.888,13.884
				c-1.152,0-2.089-0.938-2.089-2.089c0-1.152,0.937-2.089,2.089-2.089c1.152,0,2.089,0.937,2.089,2.089
				C8.977,12.946,8.039,13.884,6.888,13.884z M6.888,10.015c-0.981,0-1.779,0.798-1.779,1.779c0,0.981,0.798,1.78,1.779,1.78
				c0.981,0,1.78-0.798,1.78-1.78C8.667,10.814,7.869,10.015,6.888,10.015z"/>
		</g>
	</g>
	<g class="st2">
		<g>
			<path class="st0" d="M0.587,25.525c-0.126,0-0.251-0.058-0.332-0.166c-0.136-0.183-0.098-0.441,0.085-0.578l10.627-7.902
				c0.146-0.11,0.349-0.108,0.496,0.003l7.134,5.427L28.867,11.51c0.157-0.165,0.418-0.171,0.584-0.014
				c0.165,0.157,0.172,0.418,0.014,0.584L18.941,23.145c-0.145,0.152-0.382,0.171-0.549,0.044l-7.181-5.463L0.833,25.443
				C0.759,25.498,0.672,25.525,0.587,25.525z"/>
		</g>
		<g>
			<path class="st0" d="M0.587,25.68c-0.179,0-0.349-0.086-0.456-0.229c-0.187-0.251-0.134-0.607,0.117-0.794l10.627-7.902
				c0.2-0.15,0.481-0.149,0.682,0.004l7.024,5.343l10.173-10.698c0.216-0.226,0.576-0.234,0.802-0.02
				c0.227,0.216,0.236,0.576,0.02,0.803L19.053,23.252c-0.2,0.21-0.525,0.235-0.755,0.06L11.21,17.92L0.925,25.568
				C0.826,25.641,0.709,25.68,0.587,25.68z M11.213,16.952c-0.054,0-0.108,0.017-0.153,0.05L0.433,24.905
				c-0.114,0.085-0.138,0.247-0.053,0.361c0.082,0.111,0.249,0.136,0.361,0.053l10.377-7.717c0.055-0.041,0.131-0.041,0.186,0.001
				l7.181,5.463c0.105,0.08,0.252,0.068,0.343-0.027l10.524-11.066c0.098-0.103,0.094-0.266-0.009-0.365
				c-0.102-0.097-0.266-0.094-0.365,0.009L18.71,22.415c-0.054,0.058-0.143,0.064-0.205,0.017l-7.134-5.427
				C11.324,16.97,11.268,16.952,11.213,16.952z"/>
		</g>
	</g>
	<g class="st2">
		<path class="st0" d="M34.31,1.065H5.311c-0.313,0-0.567,0.255-0.567,0.568v2.925h1.135V2.2h27.864v27.864h-4.09v1.135h4.658
			c0.313,0,0.567-0.255,0.567-0.567V1.633C34.877,1.32,34.622,1.065,34.31,1.065z"/>
	</g>
</g>
<g class="st1">
	<path class="st3" d="M34.328,6.649h-2.328v-2.91c0.001-0.321-0.258-0.583-0.58-0.584c-0.017,0-0.034,0.001-0.051,0.002L29.85,3.285
		c-3.683,0.305-7.294,1.185-10.704,2.61L17.448,6.6l-1.696-0.704c-3.41-1.425-7.022-2.306-10.705-2.61l-1.519-0.13
		C3.208,3.13,2.926,3.367,2.899,3.688C2.898,3.705,2.897,3.722,2.897,3.739v2.91H0.569c-0.321,0-0.582,0.261-0.582,0.582v24.445
		c0,0.321,0.261,0.582,0.582,0.582h33.759c0.321,0,0.582-0.261,0.582-0.582V7.231C34.91,6.909,34.649,6.649,34.328,6.649z
		 M1.151,31.095V7.813h1.746v20.371c-0.001,0.303,0.231,0.556,0.533,0.582L4.996,28.9c0.427,0.036,0.854,0.08,1.28,0.132
		c0.143,0.017,0.284,0.04,0.427,0.058c0.282,0.038,0.565,0.076,0.846,0.12c0.168,0.027,0.335,0.058,0.502,0.088
		c0.255,0.045,0.51,0.09,0.764,0.14c0.175,0.035,0.349,0.073,0.524,0.111c0.245,0.052,0.49,0.106,0.734,0.164
		c0.175,0.042,0.352,0.087,0.528,0.132c0.24,0.062,0.48,0.124,0.719,0.191c0.175,0.049,0.349,0.1,0.524,0.151
		c0.237,0.07,0.474,0.143,0.711,0.219c0.173,0.055,0.346,0.112,0.518,0.17c0.238,0.08,0.474,0.164,0.711,0.249
		c0.168,0.058,0.336,0.122,0.502,0.185c0.072,0.027,0.144,0.058,0.215,0.085H1.151z M16.866,30.803l-1.073-0.448
		c-3.407-1.427-7.017-2.311-10.699-2.619L4.061,27.65V4.372l0.888,0.074c3.563,0.294,7.057,1.146,10.355,2.524l1.562,0.648V30.803z
		 M18.03,30.803V7.619l1.563-0.649c3.298-1.378,6.791-2.229,10.353-2.524l0.888-0.074v23.276l-0.956,0.078
		c-3.684,0.306-7.297,1.184-10.71,2.604L18.03,30.803z M33.745,31.094H20.405c0.08-0.031,0.159-0.063,0.239-0.094
		c0.175-0.067,0.349-0.13,0.528-0.194c0.228-0.083,0.457-0.163,0.687-0.24c0.179-0.058,0.36-0.116,0.54-0.175
		c0.23-0.073,0.461-0.143,0.692-0.212c0.182-0.054,0.364-0.107,0.546-0.157c0.233-0.065,0.466-0.126,0.704-0.186
		c0.18-0.046,0.361-0.092,0.543-0.135c0.242-0.058,0.486-0.111,0.73-0.162c0.175-0.038,0.349-0.077,0.527-0.112
		c0.256-0.051,0.513-0.095,0.77-0.14c0.166-0.029,0.332-0.058,0.499-0.087c0.287-0.045,0.574-0.084,0.863-0.123
		c0.138-0.018,0.276-0.04,0.414-0.058c0.427-0.052,0.856-0.096,1.287-0.132l1.491-0.121c0.303-0.025,0.535-0.278,0.534-0.582V7.813
		h1.746V31.094z"/>
</g>
<g class="st1">
	<g class="st2">
		<path class="st0" d="M28.74,22.803c-0.362-0.098-0.735,0.117-0.832,0.479c-0.098,0.362,0.116,0.735,0.479,0.832
			c2.316,0.625,3.934,2.737,3.934,5.136v4.975c0,0.375,0.304,0.679,0.679,0.679s0.679-0.304,0.679-0.679V29.25
			C33.679,26.239,31.648,23.588,28.74,22.803z"/>
	</g>
	<g class="st2">
		<path class="st0" d="M25.7,22.336c-0.126,0.126-0.199,0.301-0.199,0.48c0,0.179,0.073,0.354,0.199,0.48
			c0.126,0.126,0.301,0.199,0.48,0.199c0.179,0,0.354-0.073,0.481-0.199c0.126-0.127,0.199-0.302,0.199-0.48
			c0-0.179-0.072-0.354-0.199-0.48c-0.127-0.126-0.301-0.199-0.481-0.199C26.001,22.137,25.826,22.209,25.7,22.336z"/>
	</g>
	<g class="st2">
		<path class="st0" d="M7.196,33.546c-0.179,0-0.354,0.073-0.48,0.199c-0.126,0.126-0.199,0.302-0.199,0.48
			c0,0.179,0.073,0.354,0.199,0.48s0.302,0.199,0.48,0.199s0.354-0.073,0.48-0.199c0.126-0.126,0.199-0.302,0.199-0.48
			c0-0.179-0.073-0.354-0.199-0.48C7.55,33.619,7.374,33.546,7.196,33.546z"/>
	</g>
	<g class="st2">
		<path class="st0" d="M28.11,28.114h-0.79c-5.639,0-11.113-1.88-15.554-5.318c1.663-0.564,2.881-1.983,3.211-3.678
			c0.835,0.306,1.736,0.474,2.676,0.474c0.94,0,1.841-0.168,2.676-0.474c0.349,1.794,1.693,3.28,3.507,3.769
			c0.059,0.016,0.119,0.024,0.177,0.024c0.299,0,0.573-0.199,0.655-0.502c0.098-0.362-0.117-0.735-0.479-0.833
			c-1.423-0.384-2.446-1.62-2.577-3.067c2.153-1.276,3.643-3.559,3.815-6.195c0.964-0.286,1.669-1.18,1.669-2.236V9.168
			c0-1.051-0.699-1.942-1.657-2.232c-0.129-3.771-3.238-6.799-7.04-6.799h-1.492c-3.802,0-6.911,3.028-7.04,6.799
			c-0.958,0.29-1.658,1.181-1.658,2.233v0.907c0,1.056,0.706,1.951,1.67,2.237c0.172,2.637,1.662,4.92,3.815,6.196
			c-0.132,1.447-1.154,2.683-2.577,3.067l-0.977,0.264c0,0,0,0-0.001,0l-3.573,0.964c-2.908,0.785-4.938,3.436-4.938,6.447v4.975
			c0,0.375,0.304,0.679,0.679,0.679s0.679-0.304,0.679-0.679V29.25c0-2.257,1.432-4.26,3.531-5.009v7.166
			c0,0.375,0.304,0.679,0.679,0.679s0.679-0.304,0.679-0.679v-6.074c2.338,2.933,5.346,5.348,8.716,6.994
			c3.452,1.686,7.307,2.577,11.148,2.577h0.372c0.375,0,0.679-0.304,0.679-0.679v-5.432C28.789,28.418,28.485,28.114,28.11,28.114z
			 M11.221,11.801V11.73c0-0.375-0.304-0.679-0.679-0.679c-0.537,0-0.975-0.437-0.975-0.975V9.169c0-0.537,0.437-0.975,0.975-0.975
			c0.375,0,0.679-0.304,0.679-0.679V7.181c0-3.136,2.551-5.686,5.686-5.686h1.492c3.135,0,5.686,2.551,5.686,5.686v0.334
			c0,0.375,0.304,0.679,0.679,0.679c0.537,0,0.974,0.437,0.974,0.974v0.908c0,0.537-0.437,0.974-0.974,0.974
			c-0.375,0-0.679,0.304-0.679,0.679v0.072c0,3.547-2.885,6.432-6.432,6.432S11.221,15.348,11.221,11.801z M8.777,24.284
			L8.345,23.73l1.809-0.488c4.81,4.019,10.891,6.23,17.166,6.23h0.111v4.072C20.086,33.452,13.301,30.089,8.777,24.284z"/>
	</g>
	<g class="st2">
		<path class="st0" d="M17.653,12.971h0.951c0.375,0,0.679-0.304,0.679-0.679c0-0.375-0.304-0.679-0.679-0.679h-0.272V9.508
			c0-0.375-0.304-0.679-0.679-0.679s-0.679,0.304-0.679,0.679v2.784C16.974,12.667,17.278,12.971,17.653,12.971z"/>
	</g>
	<g class="st2">
		<path class="st0" d="M19.158,15.331c0.265-0.265,0.265-0.695,0-0.96c-0.265-0.265-0.695-0.265-0.96,0
			c-0.295,0.296-0.776,0.296-1.072,0c-0.265-0.265-0.695-0.265-0.96,0c-0.265,0.265-0.265,0.695,0,0.96
			c0.412,0.412,0.954,0.619,1.496,0.619S18.746,15.743,19.158,15.331z"/>
	</g>
	<g class="st2">
		<path class="st0" d="M15.884,7.928c-0.265-0.265-0.695-0.265-0.96,0c-0.143,0.143-0.333,0.222-0.536,0.222
			c-0.202,0-0.393-0.079-0.536-0.222c-0.265-0.265-0.695-0.265-0.96,0c-0.265,0.265-0.265,0.695,0,0.96
			c0.4,0.4,0.931,0.62,1.496,0.62s1.097-0.22,1.496-0.62C16.15,8.623,16.15,8.193,15.884,7.928z"/>
	</g>
	<g class="st2">
		<path class="st0" d="M21.262,9.508c0.565,0,1.097-0.22,1.496-0.62c0.265-0.265,0.265-0.695,0-0.96
			c-0.265-0.265-0.695-0.265-0.96,0c-0.143,0.143-0.333,0.222-0.536,0.222c-0.203,0-0.393-0.079-0.536-0.222
			c-0.265-0.265-0.695-0.265-0.96,0c-0.265,0.265-0.265,0.695,0,0.96C20.165,9.288,20.697,9.508,21.262,9.508z"/>
	</g>
	<g class="st2">
		<path class="st0" d="M17.676,7.716c-0.95,0-1.722-0.772-1.722-1.722V2.367c0-0.262,0.213-0.475,0.475-0.475
			s0.475,0.213,0.475,0.475v3.628c0,0.425,0.346,0.771,0.771,0.771c0.425,0,0.771-0.346,0.771-0.771l0.001-3.608
			c0-0.262,0.213-0.475,0.475-0.475l0,0c0.263,0,0.475,0.213,0.475,0.476l-0.001,3.608C19.398,6.944,18.626,7.716,17.676,7.716z"/>
	</g>
	<g class="st2">
		<circle class="st0" cx="17.659" cy="4.467" r="0.809"/>
	</g>
</g>
</svg>
