<?xml version="1.0" encoding="utf-8"?>
<!-- Generator: Adobe Illustrator 27.3.1, SVG Export Plug-In . SVG Version: 6.00 Build 0)  -->
<svg version="1.1" id="Layer_1" xmlns="http://www.w3.org/2000/svg" xmlns:xlink="http://www.w3.org/1999/xlink" x="0px" y="0px"
	 width="35px" height="35px" viewBox="0 0 35 35" enable-background="new 0 0 35 35" xml:space="preserve">
<g>
	<g display="none">
		<g display="inline">
			<g transform="translate(0.000000, 7.000000)">
				
					<linearGradient id="SVGID_1_" gradientUnits="userSpaceOnUse" x1="-0.0011" y1="24.9263" x2="35.0011" y2="24.9263" gradientTransform="matrix(1 0 0 -1 0 29)">
					<stop  offset="0" style="stop-color:#960F00"/>
					<stop  offset="0.5449" style="stop-color:#FF1F00"/>
					<stop  offset="1" style="stop-color:#A90000"/>
				</linearGradient>
				<path fill-rule="evenodd" clip-rule="evenodd" fill="url(#SVGID_1_)" d="M34.98,9.44c-0.09-0.73-0.45-1.38-1.03-1.83l0,0
					l-4.1-3.22v-5.66c0-0.4-0.32-0.72-0.72-0.72h-2.95c-0.4,0-0.72,0.32-0.72,0.72v2.22l-5.81-4.57c-1.27-0.99-3.03-0.99-4.3,0
					L1.05,7.61c-0.58,0.45-0.94,1.1-1.03,1.83c-0.09,0.73,0.11,1.44,0.57,2.02c0.45,0.58,1.1,0.94,1.83,1.03
					c0.11,0.01,0.22,0.02,0.33,0.02c0.61,0,1.2-0.2,1.69-0.59l11.8-9.27c0.74-0.58,1.78-0.58,2.53,0l11.8,9.27
					c0.58,0.45,1.29,0.65,2.02,0.57c0.73-0.09,1.38-0.45,1.83-1.03C34.87,10.89,35.07,10.17,34.98,9.44"/>
				
					<linearGradient id="SVGID_00000112611624516507151140000017294829883770574258_" gradientUnits="userSpaceOnUse" x1="5.15" y1="13.9788" x2="29.85" y2="13.9788" gradientTransform="matrix(1 0 0 -1 0 29)">
					<stop  offset="0" style="stop-color:#960F00"/>
					<stop  offset="0.5449" style="stop-color:#FF1F00"/>
					<stop  offset="1" style="stop-color:#A90000"/>
				</linearGradient>
				<path fill-rule="evenodd" clip-rule="evenodd" fill="url(#SVGID_00000112611624516507151140000017294829883770574258_)" d="
					M29.57,12.82L18.84,4.45c-0.79-0.61-1.88-0.61-2.67,0L5.43,12.82c-0.17,0.14-0.28,0.34-0.28,0.57v9.55
					c0,1.71,1.39,3.11,3.11,3.11h5.62c0.4,0,0.72-0.32,0.72-0.72v-6.69c0-1.6,1.3-2.9,2.9-2.9s2.9,1.3,2.9,2.9v6.69
					c0,0.4,0.32,0.72,0.72,0.72h5.62c1.71,0,3.11-1.39,3.11-3.11v-9.55C29.85,13.17,29.75,12.96,29.57,12.82"/>
			</g>
		</g>
	</g>
	<g transform="translate(0,-952.36218)" display="none">
		
			<linearGradient id="SVGID_00000067918339268196856300000013452183509435590278_" gradientUnits="userSpaceOnUse" x1="0" y1="18.1571" x2="35" y2="18.1571" gradientTransform="matrix(1 0 0 -1 0 988.3622)">
			<stop  offset="0" style="stop-color:#960F00"/>
			<stop  offset="0.5449" style="stop-color:#FF1F00"/>
			<stop  offset="1" style="stop-color:#A90000"/>
		</linearGradient>
		<path display="inline" fill="url(#SVGID_00000067918339268196856300000013452183509435590278_)" d="M6.83,957.4
			c-3.78,0-6.83,3.05-6.83,6.83v11.95c0,3.78,3.05,6.83,6.83,6.83h21.34c3.78,0,6.83-3.05,6.83-6.83v-11.95
			c0-3.78-3.05-6.83-6.83-6.83H6.83z M13.66,964.23l9.39,5.98l-9.39,5.98C13.66,976.19,13.66,964.23,13.66,964.23z"/>
	</g>
	
		<linearGradient id="SVGID_00000139998076175248443340000004024792985765601667_" gradientUnits="userSpaceOnUse" x1="1.343" y1="18.1249" x2="33.6433" y2="18.1249" gradientTransform="matrix(1 0 0 -1 0 36)">
		<stop  offset="0" style="stop-color:#960F00"/>
		<stop  offset="0.5449" style="stop-color:#FF1F00"/>
		<stop  offset="1" style="stop-color:#A90000"/>
	</linearGradient>
	<path display="none" fill="url(#SVGID_00000139998076175248443340000004024792985765601667_)" d="M15.61,10.42
		c0-0.04,0-0.08,0.01-0.11c0.02-0.12,0.01-0.22-0.05-0.33c-0.09-0.16-0.08-0.32,0.04-0.46c0.17-0.18,0.14-0.37,0.03-0.56
		c-0.05-0.09-0.11-0.18-0.17-0.26c-0.05-0.08-0.11-0.16-0.17-0.24l0.01,0.01c0-0.05,0-0.11,0.01-0.15c0.05-0.16,0.04-0.3-0.09-0.42
		c-0.02-0.02-0.03-0.05-0.04-0.08c0.04,0.02,0.07,0.04,0.11,0.06c0.01,0,0.02-0.01,0.05-0.01c-0.01-0.06-0.01-0.12-0.02-0.19
		c-0.06,0.01-0.1,0.01-0.14,0.02c0,0.05,0.01,0.09,0.01,0.14c-0.1-0.02-0.06-0.14-0.13-0.19s-0.13-0.1-0.15-0.19
		c-0.01-0.02-0.03-0.03-0.04-0.05c-0.06,0.02-0.03,0.08-0.05,0.11c-0.01,0.02-0.04,0.04-0.06,0.05l0,0
		c0.02-0.11,0.04-0.22,0.06-0.34c0.02-0.12-0.04-0.22-0.07-0.33c-0.01-0.03-0.02-0.06-0.04-0.08c-0.18-0.24-0.14-0.5-0.03-0.75
		c0.03-0.07,0.07-0.14,0.1-0.2c0.09-0.16,0.09-0.32,0.02-0.48c-0.04-0.08-0.07-0.17-0.1-0.25c-0.09-0.24-0.08-0.48,0.06-0.7
		c0.07-0.12,0.1-0.23,0.08-0.37c-0.05-0.42,0.05-0.81,0.24-1.19c0.2-0.39,0.46-0.73,0.82-0.99c0.07-0.05,0.11-0.11,0.13-0.2
		c0.05-0.19,0.13-0.37,0.29-0.48c0.17-0.11,0.28-0.27,0.41-0.41c0.33-0.38,0.75-0.49,1.23-0.44c0.17,0.02,0.33,0.09,0.5,0.16
		s0.31,0.15,0.45,0.26c0.22,0.16,0.36,0.39,0.47,0.63c0.04,0.09,0.04,0.21,0.07,0.33c0.03,0.01,0.07,0.04,0.11,0.07
		c0.07,0.04,0.15,0.07,0.23,0.11c0.24,0.12,0.43,0.3,0.57,0.54c0.18,0.31,0.33,0.63,0.48,0.96c0.03,0.06,0.04,0.13,0.06,0.19
		c0.04,0.13,0.08,0.26,0.12,0.39c0.11,0.39,0.15,0.79,0.03,1.19C21,5.41,20.94,5.63,20.88,5.85C20.99,5.98,21,5.98,21,6.17
		c0,0.06,0.01,0.12,0.04,0.17c0.14,0.27,0.1,0.45-0.14,0.66c0.02-0.04,0.04-0.08,0.06-0.12c0.03-0.06,0.07-0.12,0.09-0.18
		c0.01-0.06,0.01-0.12,0-0.18c-0.01-0.04-0.02-0.09-0.09-0.1c-0.06,0.09-0.1,0.19-0.09,0.31C20.88,6.82,20.89,6.91,20.9,7
		c-0.01,0.05-0.03,0.1-0.04,0.15c-0.03,0.18-0.1,0.35-0.22,0.49c-0.02,0.02-0.03,0.05-0.04,0.08c0.01,0.02,0.01,0.04,0.02,0.04
		c0.17,0.12,0.19,0.28,0.12,0.46c-0.02,0.06-0.05,0.13-0.07,0.19c-0.04,0.11-0.07,0.21-0.06,0.33h0.01
		c-0.02-0.01-0.05-0.02-0.05-0.03c0-0.08,0-0.17,0.01-0.25c0.02-0.1,0.05-0.19,0.08-0.28c0.05-0.21,0.03-0.25-0.18-0.36
		c-0.1,0.06-0.16,0.16-0.2,0.26c-0.04,0.1-0.05,0.2-0.01,0.31c0.01,0.03,0,0.06,0,0.09l0.01-0.01c-0.1-0.12-0.1-0.25-0.07-0.39
		c0.05-0.09,0.1-0.19,0.16-0.3c-0.02-0.01-0.05-0.03-0.07-0.04c-0.01-0.01-0.03,0-0.05,0c-0.01,0.12-0.08,0.23-0.03,0.35
		c-0.05,0-0.06,0.04-0.07,0.07c-0.06,0.29-0.17,0.57-0.27,0.85c-0.03,0.07-0.05,0.15-0.09,0.21c-0.13,0.19-0.15,0.41-0.18,0.63
		c-0.03,0.25,0,0.5,0.05,0.75c0.06,0.31,0.22,0.56,0.42,0.8c0.37,0.43,0.81,0.76,1.32,0.98c0.38,0.17,0.77,0.33,1.15,0.49
		c0.28,0.11,0.56,0.2,0.84,0.28c0.41,0.12,0.8,0.29,1.13,0.57c0.39,0.33,0.63,0.74,0.71,1.24c0,0.03,0.02,0.06,0.01,0.09
		c-0.03,0.27,0.05,0.53,0.1,0.79c0.04,0.23,0.08,0.46,0.1,0.7c0.03,0.58,0.05,1.15,0.03,1.73c-0.02,0.74,0.11,1.45,0.35,2.15
		c0.2,0.59,0.41,1.17,0.66,1.75c0.11,0.26,0.25,0.5,0.4,0.74c0.04,0.06,0.08,0.11,0.16,0.11c0.31,0.04,0.6,0.14,0.9,0.25
		c0.35,0.12,0.7,0.11,1.05,0.01c0.07-0.02,0.13-0.04,0.2-0.05c0.24-0.06,0.47-0.15,0.66-0.33c0.08-0.08,0.2-0.13,0.32-0.2
		c0.05-0.35,0.29-0.61,0.52-0.87c0.11-0.13,0.23-0.26,0.35-0.38c0.11-0.11,0.15-0.24,0.15-0.39c0-0.24,0.03-0.47,0.08-0.7
		c0.04-0.16,0.09-0.32,0.22-0.44c0.05-0.05,0.12-0.09,0.19-0.12c0.11-0.04,0.19,0,0.24,0.11C31.96,20,31.98,20.1,32,20.19
		c0.01,0.01,0.02,0.03,0.04,0.03c0.19,0.01,0.3,0.1,0.4,0.26c0.12,0.2,0.27,0.38,0.42,0.57c0.05,0.07,0.11,0.12,0.18,0.19
		c0.04-0.03,0.08-0.06,0.11-0.08c0.11-0.06,0.23-0.07,0.35-0.01c0.08,0.04,0.13,0.1,0.15,0.19c0.03,0.17,0.04,0.33,0,0.5
		c-0.07,0.27-0.08,0.54-0.08,0.81c0,0.13-0.01,0.26-0.06,0.38c-0.02,0.06-0.03,0.13-0.03,0.2c-0.02,0.16-0.11,0.26-0.24,0.34
		c-0.03,0.02-0.07,0.03-0.1,0.05c-0.08,0.02-0.13,0.08-0.16,0.15c-0.03,0.06-0.06,0.12-0.1,0.18c-0.12,0.22-0.31,0.33-0.56,0.31
		c-0.12-0.01-0.21,0.02-0.29,0.1c-0.18,0.19-0.41,0.25-0.66,0.26c-0.1,0.01-0.21,0.01-0.31,0.01c-0.03,0.05,0,0.06,0.02,0.08
		c0.09,0.09,0.19,0.18,0.28,0.27c0.27,0.26,0.43,0.59,0.53,0.94c0.13,0.48,0.18,0.97,0.04,1.46c-0.1,0.35-0.22,0.69-0.42,1.01
		c-0.18,0.29-0.36,0.58-0.54,0.87c-0.08,0.13-0.19,0.24-0.29,0.35c-0.25,0.29-0.52,0.57-0.82,0.82c-0.34,0.27-0.69,0.53-1.04,0.78
		c-0.13,0.09-0.27,0.16-0.41,0.24c-0.22,0.14-0.44,0.27-0.66,0.41c-0.01,0.01-0.02,0.02-0.04,0.02c-0.33,0.12-0.62,0.32-0.97,0.38
		c-0.1,0.02-0.2,0.06-0.31,0.08c-0.11,0.03-0.22,0.05-0.33,0.07c-0.33,0.05-0.64,0.15-0.93,0.35c-0.25,0.18-0.51,0.35-0.82,0.43
		c-0.03,0.01-0.06,0.03-0.09,0.05c0.06,0.16,0.11,0.31,0.17,0.47c0.16,0.04,0.32,0.12,0.44,0.24c0.09,0.09,0.17,0.18,0.21,0.29
		c0.04,0.1,0.1,0.16,0.21,0.19c0.08,0.02,0.16,0.06,0.23,0.1c0.23,0.13,0.25,0.45,0.04,0.61c-0.02,0.01-0.04,0.03-0.06,0.04
		c-0.1,0.03-0.21,0.04-0.31,0.08c-0.09,0.04-0.16,0.11-0.26,0.13c-0.19,0.03-0.36,0.01-0.49-0.16c-0.06-0.08-0.13-0.13-0.21-0.17
		c-0.18-0.08-0.35-0.18-0.54-0.25c-0.44-0.17-0.89-0.32-1.34-0.44s-0.91-0.17-1.37-0.22c-0.16-0.02-0.32-0.03-0.47-0.06
		c-0.26-0.05-0.51-0.02-0.77,0.02c-0.37,0.05-0.72,0.17-1.08,0.28c-0.09,0.03-0.17,0.07-0.26,0.1c-0.12,0.04-0.24,0.09-0.36,0.13
		c-0.08,0.03-0.16,0.06-0.24,0.09c-0.34,0.12-0.69,0.23-1.03,0.35c-0.37,0.13-0.75,0.16-1.14,0.15c-0.41-0.02-0.82,0-1.23-0.02
		c-0.3-0.01-0.59-0.04-0.88-0.07c-0.44-0.05-0.87-0.12-1.31-0.18c-0.24-0.03-0.48-0.08-0.72-0.12c-0.12-0.02-0.24-0.02-0.36,0
		c-0.15,0.03-0.31,0.04-0.45,0c-0.11-0.03-0.21-0.02-0.3,0.04c-0.12,0.07-0.25,0.11-0.39,0.11c-0.18,0-0.22-0.01-0.44-0.11
		c-0.06,0.02-0.13,0.04-0.19,0.05c-0.3,0.07-0.54-0.07-0.64-0.38c-0.07-0.01-0.14-0.02-0.21-0.04c-0.21-0.04-0.28-0.15-0.27-0.35
		c0.01-0.09,0.03-0.16,0.09-0.23c0.04-0.05,0.09-0.1,0.14-0.16C8.46,33.47,8.55,33.23,8.73,33s0.43-0.32,0.69-0.45
		c-0.07-0.05-0.13-0.09-0.18-0.12C8.98,32.29,8.72,32.15,8.46,32c-0.31-0.19-0.64-0.31-0.99-0.38c-0.31-0.06-0.6-0.17-0.89-0.28
		c-0.24-0.09-0.48-0.18-0.72-0.28c-0.2-0.08-0.38-0.19-0.55-0.32c-0.11-0.08-0.23-0.16-0.34-0.23c-0.23-0.14-0.45-0.31-0.65-0.5
		c-0.11-0.11-0.24-0.22-0.35-0.32c-0.33-0.31-0.61-0.66-0.87-1.02c-0.29-0.4-0.54-0.83-0.65-1.32c-0.01-0.05-0.03-0.1-0.03-0.16
		c-0.01-0.36-0.02-0.73,0.06-1.09c0.08-0.37,0.26-0.7,0.51-0.98c0.29-0.32,0.64-0.53,1.06-0.63c0.07-0.02,0.15-0.04,0.22-0.07
		c0.02-0.01,0.04-0.03,0.09-0.07c-0.27-0.01-0.5-0.03-0.74-0.04c-0.3-0.01-0.61-0.02-0.91-0.03c-0.04,0-0.09,0.01-0.13,0.02
		c-0.23,0.03-0.4-0.06-0.5-0.28c-0.01-0.03-0.03-0.06-0.03-0.08c-0.03-0.09-0.09-0.15-0.17-0.16c-0.21-0.03-0.3-0.18-0.37-0.36
		c-0.06-0.15-0.07-0.31-0.06-0.47c0.01-0.18,0-0.35-0.05-0.52c-0.03-0.11-0.03-0.21-0.01-0.31c0.03-0.12,0.05-0.24,0.06-0.36
		c0.01-0.09,0.06-0.16,0.12-0.22c0.07-0.07,0.15-0.13,0.22-0.2c0.16-0.14,0.32-0.28,0.46-0.44c0.15-0.17,0.33-0.31,0.52-0.48
		c0.02-0.09,0.04-0.2,0.06-0.31c0.02-0.1,0.08-0.18,0.16-0.25c0.09-0.08,0.19-0.09,0.29-0.03c0.06,0.04,0.11,0.09,0.15,0.14
		c0.11,0.14,0.17,0.3,0.18,0.48c0.01,0.14,0,0.27,0,0.41c0,0.04-0.01,0.08-0.01,0.11c0,0.3-0.04,0.27,0.19,0.5
		c0.18,0.18,0.35,0.36,0.52,0.55c0.1,0.11,0.19,0.21,0.22,0.36c0.02,0.09,0.09,0.14,0.16,0.18c0.08,0.05,0.16,0.08,0.24,0.12
		c0.14,0.07,0.29,0.13,0.43,0.2c0.12,0.07,0.27,0.09,0.41,0.13c0.04,0.01,0.09,0.02,0.13,0.04c0.15,0.08,0.31,0.06,0.47,0.03
		c0.24-0.04,0.46-0.11,0.68-0.2c0.34-0.14,0.69-0.23,1.06-0.23c0.04,0,0.07-0.01,0.12-0.01c0.07-0.14,0.12-0.28,0.2-0.41
		s0.13-0.27,0.18-0.42c0.1-0.29,0.2-0.57,0.29-0.86c0-0.01,0-0.02,0.01-0.02c0.13-0.25,0.22-0.52,0.34-0.77
		c0.14-0.29,0.25-0.59,0.36-0.88c0.05-0.12,0.07-0.26,0.09-0.4c0.05-0.33,0.09-0.66,0.04-1c-0.01-0.05-0.01-0.11-0.01-0.16
		c0-0.39,0-0.79,0.03-1.18c0.02-0.28,0.08-0.55,0.14-0.83c0.04-0.18,0.06-0.36,0.09-0.54c0.06-0.32,0.16-0.63,0.33-0.92
		c0.14-0.24,0.31-0.45,0.55-0.59c0.01,0,0.01-0.01,0.02-0.01c0.35-0.32,0.79-0.4,1.23-0.49c0.21-0.04,0.42-0.06,0.63-0.09
		c0.55-0.08,1.05-0.28,1.51-0.6c0.26-0.18,0.49-0.4,0.71-0.63c0.12-0.12,0.23-0.25,0.35-0.36c0.15-0.13,0.26-0.3,0.38-0.45
		c0.1-0.13,0.16-0.27,0.19-0.43c0.05-0.39,0.04-0.79,0.03-1.18c0-0.01-0.01-0.02-0.03-0.05c-0.04,0.06-0.07,0.11-0.11,0.17
		S15.7,9.65,15.66,9.7c-0.05,0.07-0.05,0.15-0.02,0.24c0.03,0.07,0.06,0.14,0.07,0.22C15.7,10.21,15.7,10.32,15.61,10.42
		L15.61,10.42z"/>
	
		<linearGradient id="SVGID_00000108288846593555612910000014907972342184957099_" gradientUnits="userSpaceOnUse" x1="5.023" y1="18.1591" x2="29.9837" y2="18.1591" gradientTransform="matrix(1 0 0 -1 0 36)">
		<stop  offset="0" style="stop-color:#960F00"/>
		<stop  offset="0.5449" style="stop-color:#FF1F00"/>
		<stop  offset="1" style="stop-color:#A90000"/>
	</linearGradient>
	<path display="none" fill="url(#SVGID_00000108288846593555612910000014907972342184957099_)" d="M15.98,0.34
		c-0.4,0-0.76,0.24-0.91,0.62h-0.02c0,0.02-0.02,0.04-0.02,0.06c-0.04,0.1-0.06,0.21-0.07,0.33v21.83c-0.08,0.01-0.16,0.01-0.24,0
		c-0.89-0.15-1.8-0.15-2.69,0.01C9.5,23.63,7.42,24.82,5.99,27c-1.93,2.93-0.88,6.4,2.34,7.76c1.59,0.67,3.26,0.72,4.93,0.36
		c3.53-0.75,6.53-3.42,6.47-7.77c-0.08-5.83-0.02-11.65-0.02-17.48c0-0.11,0.01-0.23,0.03-0.41c0.63,0.45,1.22,0.84,1.78,1.27
		c1.27,0.98,2.57,1.93,3.76,2.99c1.27,1.13,2.08,2.56,2.26,4.28c0.07,0.68,0.01,1.37,0.01,2.11c0.99-1.24,1.82-2.5,2.22-4.01
		c0.43-1.58,0.22-3.08-0.71-4.41c-0.54-0.77-1.17-1.47-1.87-2.1c-1.39-1.27-3.03-2.19-4.63-3.16c-1.37-0.83-2.76-1.66-4.1-2.54
		c-0.55-0.36-1.03-0.83-1.51-1.3V1.33C16.96,0.79,16.53,0.35,15.98,0.34L15.98,0.34z"/>
	<g display="none">
		
			<linearGradient id="SVGID_00000136392091214349365630000009658649365868349344_" gradientUnits="userSpaceOnUse" x1="0" y1="18.16" x2="35" y2="18.16" gradientTransform="matrix(1 0 0 -1 0 36)">
			<stop  offset="0" style="stop-color:#960F00"/>
			<stop  offset="0.5449" style="stop-color:#FF1F00"/>
			<stop  offset="1" style="stop-color:#A90000"/>
		</linearGradient>
		<path display="inline" fill="url(#SVGID_00000136392091214349365630000009658649365868349344_)" d="M17.5,0.34
			C7.84,0.34,0,8.18,0,17.84s7.84,17.5,17.5,17.5S35,27.51,35,17.84S27.16,0.34,17.5,0.34z M8.95,20.73c-1.6,0-2.89-1.29-2.89-2.89
			c0-1.6,1.29-2.89,2.89-2.89s2.89,1.29,2.89,2.89l0,0C11.83,19.44,10.54,20.73,8.95,20.73z M17.5,20.73c-1.6,0-2.89-1.29-2.89-2.89
			s1.29-2.89,2.89-2.89s2.89,1.29,2.89,2.89l0,0C20.39,19.44,19.1,20.73,17.5,20.73z M26.05,20.73c-1.6,0-2.89-1.29-2.89-2.89
			s1.29-2.89,2.89-2.89c1.6,0,2.89,1.29,2.89,2.89S27.65,20.73,26.05,20.73L26.05,20.73z"/>
	</g>
	<g display="none">
		
			<linearGradient id="SVGID_00000021830715491595733910000003516680127446894978_" gradientUnits="userSpaceOnUse" x1="0" y1="18.1581" x2="35.0034" y2="18.1581" gradientTransform="matrix(1 0 0 -1 0 36)">
			<stop  offset="0" style="stop-color:#960F00"/>
			<stop  offset="0.5449" style="stop-color:#FF1F00"/>
			<stop  offset="1" style="stop-color:#A90000"/>
		</linearGradient>
		<path display="inline" fill="url(#SVGID_00000021830715491595733910000003516680127446894978_)" d="M20.03,20.38
			c0.18-0.18,0.34-0.35,0.5-0.53c0.15-0.18,0.3-0.35,0.43-0.53c0.01-0.01,0.02-0.02,0.03-0.03c0.04-0.05,0.08-0.09,0.12-0.14
			c3.51-4.68,3.05-11.23-1.07-15.38c-2.19-2.21-5.18-3.45-8.29-3.43h-0.01C5.25,0.34,0,5.59,0,12.07c0,3.11,1.24,6.1,3.43,8.3
			c4.15,4.13,10.69,4.58,15.37,1.07c0.05-0.04,0.09-0.08,0.14-0.11c0.01-0.01,0.02-0.03,0.03-0.04c0.27-0.21,0.53-0.43,0.78-0.66
			C19.85,20.54,19.94,20.47,20.03,20.38z M18.59,18.93c-0.32,0.32-0.66,0.61-1.01,0.88C13.3,23.04,7.22,22.18,4,17.91
			C1.09,14.05,1.47,8.64,4.88,5.23c3.77-3.79,9.91-3.81,13.7-0.04s3.81,9.91,0.04,13.7C18.61,18.9,18.6,18.92,18.59,18.93z
			 M19,17.57c-0.25,0.33-0.53,0.65-0.83,0.94c-0.29,0.3-0.61,0.58-0.95,0.83c-4.01,3.03-9.72,2.23-12.74-1.78
			c-1.19-1.58-1.83-3.5-1.83-5.48c0-5.03,4.08-9.1,9.1-9.09c2.41,0,4.72,0.96,6.42,2.66C21.36,8.86,21.72,13.94,19,17.57z
			 M23.29,25.24l-3.68-3.68c0.11-0.1,0.23-0.2,0.34-0.3c0.17-0.15,0.33-0.3,0.5-0.47s0.33-0.33,0.47-0.5
			c0.1-0.11,0.2-0.23,0.29-0.34l3.68,3.68L23.29,25.24z M27.54,24.55l-3.33,3.33l-1.23-1.49l0.52-0.52l2.56-2.56L27.54,24.55z
			 M35,32.06c0.08,1.73-1.26,3.2-2.99,3.28c-0.98,0.05-1.93-0.37-2.56-1.13l-4.86-5.87L28,24.93l5.86,4.85
			C34.54,30.35,34.95,31.17,35,32.06z"/>
	</g>
	<g transform="translate(0,-952.36218)" display="none">
		
			<linearGradient id="SVGID_00000073708944555993758090000005973394702081339274_" gradientUnits="userSpaceOnUse" x1="1.5851" y1="18.1572" x2="33.4" y2="18.1572" gradientTransform="matrix(1 0 0 -1 0 988.3622)">
			<stop  offset="0" style="stop-color:#960F00"/>
			<stop  offset="0.5449" style="stop-color:#FF1F00"/>
			<stop  offset="1" style="stop-color:#A90000"/>
		</linearGradient>
		
			<path display="inline" fill-rule="evenodd" clip-rule="evenodd" fill="url(#SVGID_00000073708944555993758090000005973394702081339274_)" d="
			M17.5,952.71c-1.29,0-2.34,1.07-2.34,2.36c0,1.01,0.65,1.89,1.54,2.22v1.13c-3.47,0.27-6.57,2.28-8.82,5.3
			C5.47,966.97,4,971.41,4,976.29c0,0.96,0.06,1.9,0.17,2.82l-1,1.42l0,0l-1.44,2.05c-0.25,0.36-0.17,0.86,0.19,1.11
			c0.13,0.09,0.29,0.14,0.46,0.14c4.23,0,8.24-0.05,12.42-0.07c-0.18,0.35-0.28,0.75-0.28,1.17c0,1.56,1.38,2.77,2.97,2.77
			s2.97-1.2,2.97-2.77c0-0.42-0.1-0.82-0.28-1.17c4.18,0.02,8.19,0.07,12.42,0.07c0.44,0,0.8-0.36,0.8-0.8
			c0-0.16-0.05-0.32-0.14-0.46l-1.44-2.05l0,0l-1-1.42c0.11-0.92,0.17-1.86,0.17-2.82c0-4.88-1.46-9.32-3.87-12.57
			c-2.24-3.02-5.34-5.03-8.82-5.3v-1.13c0.9-0.33,1.54-1.21,1.54-2.22C19.84,953.78,18.79,952.71,17.5,952.71L17.5,952.71z"/>
	</g>
</g>
<g transform="translate(0,-952.36218)">
	
		<linearGradient id="SVGID_00000173140417505504083410000018338001991276920239_" gradientUnits="userSpaceOnUse" x1="2.281710e-05" y1="18.5" x2="35" y2="18.5" gradientTransform="matrix(1 0 0 -1 0 988.3622)">
		<stop  offset="0" style="stop-color:#960F00"/>
		<stop  offset="0.5449" style="stop-color:#FF1F00"/>
		<stop  offset="1" style="stop-color:#A90000"/>
	</linearGradient>
	<path fill="url(#SVGID_00000173140417505504083410000018338001991276920239_)" d="M2.1,955.112c-0.3,0-0.6,0.1-0.8,0.2
		c-0.1,0-0.1,0.1-0.2,0.1s-0.1,0.1-0.2,0.1c-0.2,0.2-0.4,0.3-0.6,0.6c-0.1,0.1-0.2,0.2-0.2,0.4c0,0.1-0.1,0.3-0.1,0.5
		c0,0.1,0,0.1,0,0.2v3.6h30.8v-3.6c0-0.3-0.1-0.6-0.2-0.8c-0.1-0.1-0.1-0.3-0.2-0.4c-0.2-0.2-0.3-0.4-0.6-0.6l0,0
		c-0.1-0.1-0.2-0.1-0.3-0.2l0,0c-0.1,0-0.1-0.1-0.2-0.1l0,0c-0.1,0-0.1,0-0.2-0.1l0,0c-0.1,0-0.1,0-0.2,0l0,0c-0.1,0-0.1,0-0.2,0
		L2.1,955.112L2.1,955.112z M7.6,956.912c0.5,0,0.9,0.4,0.9,0.9s-0.4,0.9-0.9,0.9s-0.9-0.4-0.9-0.9
		C6.7,957.312,7.1,956.912,7.6,956.912z M23.2,956.912c0.5,0,0.9,0.4,0.9,0.9s-0.4,0.9-0.9,0.9s-0.9-0.4-0.9-0.9
		C22.4,957.312,22.8,956.912,23.2,956.912z M0,961.312v4.4h7.3v-4.4H0L0,961.312z M7.8,961.312v4.4h7.3v-4.4
		C15.2,961.312,7.8,961.312,7.8,961.312z M15.7,961.312v4.4h6.9c0.1-0.1,0.3-0.3,0.4-0.4v-0.1v-3.9H15.7L15.7,961.312z
		 M23.5,961.312v3.7c1.2-0.9,2.7-1.4,4.4-1.4c0,0,0,0,0.1,0l0,0c1,0,2,0.2,2.9,0.6v-2.8h-7.4V961.312z M27.9,964.112
		c-3.9,0-7.1,3.1-7.1,6.8c0,1.3,0.3,2.4,1,3.4l0,0c0,0,0,0,0,0.1l3.5,5.9c0,0,0,0,0.1,0.1l2.5,4.3l5.5-9.3l0.6-1l0,0l0,0
		c0.2-0.4,0.4-0.8,0.6-1.2c0-0.1,0.1-0.3,0.1-0.4l0,0c0-0.1,0.1-0.3,0.1-0.4l0,0c0-0.1,0.1-0.3,0.1-0.4l0,0c0-0.3,0.1-0.6,0.1-0.9
		c0-0.4,0-0.8-0.1-1.2c0-0.1,0-0.1,0-0.2c0,0,0,0,0-0.1c0-0.2-0.1-0.4-0.2-0.5c-0.1-0.4-0.3-0.7-0.5-1.1c0-0.1-0.1-0.1-0.1-0.2
		c-0.3-0.5-0.7-1-1.2-1.5l0,0c-0.1-0.1-0.2-0.2-0.3-0.3c-0.2-0.2-0.5-0.4-0.8-0.6l0,0c-0.2-0.1-0.3-0.2-0.5-0.3
		C30.3,964.412,29.2,964.112,27.9,964.112L27.9,964.112L27.9,964.112z M27.9,965.412c3,0,5.4,2.3,5.4,5.2s-2.4,5.2-5.4,5.2
		s-5.4-2.3-5.4-5.2C22.6,967.712,24.9,965.412,27.9,965.412z M0,966.212v4.3h7.3v-4.4H0V966.212z M7.8,966.212v4.4h7.3v-4.4
		C15.2,966.212,7.8,966.212,7.8,966.212z M15.7,966.212v4.4h4.7c0.1-1.7,0.7-3.2,1.8-4.4H15.7L15.7,966.212z M0,971.112v4.3h7.3
		v-4.3H0z M7.8,971.112v4.3h7.3v-4.3C15.2,971.112,7.8,971.112,7.8,971.112z M15.7,971.112v4.3h6.2l-0.5-0.8v-0.1l0,0
		c-0.6-1-1-2.2-1-3.5L15.7,971.112L15.7,971.112z M0,975.912v2.3c0,1.2,1,2.1,2.1,2.1h5.2v-4.4L0,975.912L0,975.912z M7.8,975.912
		v4.4h7.3v-4.4H7.8L7.8,975.912z M15.7,975.912v4.4H23v-2.9l-0.9-1.5H15.7L15.7,975.912z M23.5,978.212v2.1h1.3L23.5,978.212
		L23.5,978.212z"/>
</g>
</svg>
