<?xml version="1.0" encoding="utf-8"?>
<!-- Generator: Adobe Illustrator 27.3.1, SVG Export Plug-In . SVG Version: 6.00 Build 0)  -->
<svg version="1.1" id="Layer_1" xmlns="http://www.w3.org/2000/svg" xmlns:xlink="http://www.w3.org/1999/xlink" x="0px" y="0px"
	 width="35px" height="35px" viewBox="0 0 35 35" style="enable-background:new 0 0 35 35;" xml:space="preserve">
<style type="text/css">
	.st0{display:none;}
	.st1{display:inline;}
	.st2{fill:#2C5696;}
	.st3{display:inline;fill:#2C5696;}
	.st4{fill:#FFFFFF;}
</style>
<g class="st0">
	<g class="st1">
		<g>
			<path class="st2" d="M34.359,34.635H0.649c-0.261,0-0.472-0.211-0.472-0.472V4.475c0-0.261,0.211-0.472,0.472-0.472h33.71
				c0.261,0,0.472,0.212,0.472,0.472v29.688C34.831,34.424,34.62,34.635,34.359,34.635z M1.121,33.691h32.766V4.947H1.121V33.691z"
				/>
		</g>
		<g>
			<path class="st2" d="M34.359,34.813H0.649C0.292,34.813,0,34.521,0,34.163V4.475c0-0.358,0.292-0.649,0.649-0.649h33.71
				c0.358,0,0.649,0.292,0.649,0.649v29.688C35.008,34.521,34.717,34.813,34.359,34.813z M0.649,4.18
				c-0.163,0-0.295,0.132-0.295,0.295v29.688c0,0.163,0.132,0.295,0.295,0.295h33.71c0.163,0,0.295-0.132,0.295-0.295V4.475
				c0-0.163-0.132-0.295-0.295-0.295H0.649z M33.887,33.868H1.121c-0.098,0-0.177-0.079-0.177-0.177V4.947
				c0-0.098,0.079-0.177,0.177-0.177h32.765c0.098,0,0.177,0.079,0.177,0.177v28.744C34.064,33.789,33.985,33.868,33.887,33.868z
				 M1.299,33.514H33.71V5.124H1.299V33.514z"/>
		</g>
	</g>
	<g class="st1">
		<g>
			<path class="st2" d="M26.041,7.486c-0.261,0-0.472-0.211-0.472-0.472V0.875c0-0.261,0.211-0.472,0.472-0.472
				c0.261,0,0.472,0.211,0.472,0.472v6.139C26.513,7.274,26.302,7.486,26.041,7.486z"/>
		</g>
		<g>
			<path class="st2" d="M26.041,7.663c-0.358,0-0.649-0.292-0.649-0.649V0.875c0-0.358,0.291-0.649,0.649-0.649
				c0.358,0,0.649,0.291,0.649,0.649v6.139C26.691,7.371,26.399,7.663,26.041,7.663z M26.041,0.579
				c-0.163,0-0.295,0.132-0.295,0.295v6.139c0,0.163,0.132,0.295,0.295,0.295c0.163,0,0.295-0.132,0.295-0.295V0.875
				C26.337,0.712,26.204,0.579,26.041,0.579z"/>
		</g>
	</g>
	<g class="st1">
		<g>
			<path class="st2" d="M8.726,7.486c-0.261,0-0.472-0.211-0.472-0.472V0.875c0-0.261,0.211-0.472,0.472-0.472
				c0.261,0,0.472,0.211,0.472,0.472v6.139C9.198,7.274,8.987,7.486,8.726,7.486z"/>
		</g>
		<g>
			<path class="st2" d="M8.726,7.663c-0.358,0-0.649-0.292-0.649-0.649V0.875c0-0.358,0.291-0.649,0.649-0.649
				c0.358,0,0.649,0.291,0.649,0.649v6.139C9.376,7.371,9.084,7.663,8.726,7.663z M8.726,0.579c-0.163,0-0.295,0.132-0.295,0.295
				v6.139c0,0.163,0.132,0.295,0.295,0.295c0.163,0,0.295-0.132,0.295-0.295V0.875C9.021,0.712,8.889,0.579,8.726,0.579z"/>
		</g>
	</g>
	<g class="st1">
		<g>
			<g>
				<path class="st2" d="M9.155,25.811V25.14c0.214-0.186,0.534-0.462,0.958-0.825c0.424-0.364,0.748-0.644,0.972-0.839
					c0.224-0.196,0.515-0.459,0.874-0.79c0.359-0.331,0.639-0.606,0.839-0.825c0.201-0.219,0.424-0.48,0.671-0.783
					c0.247-0.303,0.436-0.576,0.566-0.818c0.298-0.588,0.447-1.163,0.447-1.728c0-0.564-0.167-1.044-0.503-1.44
					c-0.336-0.396-0.867-0.594-1.595-0.594s-1.284,0.219-1.671,0.657c-0.387,0.439-0.599,1.012-0.636,1.72H9.155
					c0.046-1.025,0.359-1.818,0.937-2.377c0.578-0.559,1.326-0.839,2.244-0.839c0.918,0,1.662,0.259,2.231,0.776
					c0.569,0.517,0.853,1.247,0.853,2.189c0,0.41-0.084,0.837-0.252,1.279c-0.167,0.443-0.359,0.83-0.573,1.161
					c-0.214,0.331-0.522,0.713-0.923,1.147c-0.401,0.433-0.725,0.765-0.972,0.993c-0.247,0.228-0.608,0.55-1.084,0.965
					c-0.475,0.415-0.778,0.683-0.909,0.804h5.049v0.839H9.155z"/>
			</g>
			<g>
				<path class="st2" d="M15.756,25.988H9.155c-0.098,0-0.177-0.079-0.177-0.177V25.14c0-0.051,0.022-0.1,0.061-0.134
					c0.215-0.186,0.534-0.462,0.959-0.826c0.424-0.363,0.748-0.643,0.971-0.838c0.223-0.195,0.513-0.457,0.871-0.787
					c0.35-0.322,0.629-0.596,0.829-0.814c0.199-0.217,0.42-0.476,0.665-0.776c0.24-0.294,0.424-0.56,0.548-0.79
					c0.282-0.556,0.426-1.11,0.426-1.644c0-0.526-0.151-0.96-0.461-1.326c-0.299-0.353-0.79-0.532-1.459-0.532
					c-0.68,0-1.183,0.195-1.538,0.597c-0.358,0.406-0.557,0.948-0.592,1.612c-0.005,0.094-0.083,0.168-0.177,0.168H9.155
					c-0.048,0-0.095-0.02-0.128-0.055c-0.033-0.035-0.051-0.082-0.049-0.13c0.049-1.067,0.382-1.908,0.991-2.497
					c0.609-0.59,1.406-0.889,2.368-0.889c0.96,0,1.75,0.277,2.35,0.822c0.605,0.55,0.911,1.331,0.911,2.32
					c0,0.43-0.088,0.881-0.263,1.342c-0.17,0.451-0.369,0.853-0.59,1.195c-0.22,0.339-0.536,0.732-0.942,1.17
					c-0.4,0.432-0.73,0.77-0.981,1.003c-0.248,0.229-0.61,0.552-1.088,0.968c-0.227,0.198-0.415,0.362-0.563,0.493h4.586
					c0.098,0,0.177,0.079,0.177,0.177v0.839C15.933,25.909,15.854,25.988,15.756,25.988z M9.332,25.634h6.247V25.15h-4.871
					c-0.073,0-0.138-0.045-0.165-0.113c-0.027-0.068-0.009-0.145,0.044-0.194c0.131-0.122,0.435-0.391,0.913-0.808
					c0.474-0.413,0.834-0.734,1.08-0.961c0.245-0.226,0.568-0.558,0.962-0.984c0.392-0.423,0.696-0.801,0.905-1.123
					c0.208-0.32,0.394-0.699,0.556-1.127c0.159-0.421,0.24-0.83,0.24-1.217c0-0.885-0.267-1.578-0.795-2.058
					c-0.533-0.484-1.243-0.73-2.112-0.73c-0.867,0-1.58,0.266-2.121,0.79c-0.507,0.491-0.8,1.187-0.872,2.073h0.57
					c0.062-0.67,0.287-1.229,0.668-1.66c0.42-0.476,1.027-0.717,1.804-0.717c0.778,0,1.36,0.221,1.73,0.657
					c0.362,0.426,0.545,0.949,0.545,1.554c0,0.59-0.157,1.198-0.467,1.808c-0.136,0.253-0.333,0.538-0.587,0.849
					c-0.25,0.306-0.478,0.572-0.678,0.791c-0.207,0.226-0.492,0.507-0.85,0.836c-0.36,0.332-0.652,0.596-0.877,0.793
					c-0.224,0.196-0.549,0.476-0.973,0.84c-0.386,0.33-0.684,0.587-0.896,0.771V25.634z"/>
			</g>
		</g>
		<g>
			<g>
				<path class="st2" d="M19.378,16.169c0.597-0.443,1.348-0.664,2.252-0.664c0.904,0,1.625,0.244,2.161,0.734
					c0.536,0.489,0.804,1.112,0.804,1.867c0,0.532-0.156,1.007-0.468,1.427c-0.312,0.42-0.73,0.708-1.252,0.867v0.07
					c0.597,0.149,1.063,0.461,1.399,0.937c0.336,0.476,0.504,1.095,0.504,1.86c0,0.765-0.276,1.412-0.826,1.944
					c-0.55,0.532-1.312,0.797-2.286,0.797c-0.974,0-1.769-0.245-2.385-0.734c-0.615-0.49-0.97-1.172-1.063-2.049h0.909
					c0.065,0.559,0.319,1.023,0.762,1.392c0.443,0.368,1.026,0.552,1.748,0.552c0.723,0,1.277-0.191,1.664-0.573
					c0.387-0.382,0.581-0.881,0.581-1.496c0-0.811-0.259-1.387-0.776-1.727c-0.518-0.34-1.294-0.51-2.329-0.51h-0.308v-0.825h0.321
					c1.93-0.009,2.895-0.62,2.895-1.832c0-0.568-0.182-1.021-0.546-1.357c-0.363-0.336-0.879-0.504-1.545-0.504
					c-0.666,0-1.198,0.143-1.594,0.426c-0.396,0.285-0.636,0.692-0.72,1.224h-0.937C18.436,17.22,18.781,16.612,19.378,16.169z"/>
			</g>
			<g>
				<path class="st2" d="M21.665,26.184c-1.01,0-1.85-0.26-2.495-0.772c-0.651-0.519-1.031-1.248-1.129-2.169
					c-0.005-0.05,0.011-0.1,0.044-0.137c0.034-0.037,0.082-0.059,0.132-0.059h0.909c0.09,0,0.166,0.067,0.176,0.157
					c0.06,0.517,0.289,0.934,0.699,1.276c0.408,0.339,0.958,0.511,1.635,0.511c0.671,0,1.189-0.176,1.54-0.522
					c0.355-0.351,0.528-0.799,0.528-1.37c0-0.754-0.228-1.271-0.696-1.579c-0.486-0.32-1.237-0.481-2.231-0.481h-0.308
					c-0.098,0-0.177-0.079-0.177-0.177v-0.825c0-0.098,0.079-0.177,0.177-0.177h0.321c1.829-0.009,2.718-0.55,2.718-1.655
					c0-0.522-0.16-0.923-0.488-1.227c-0.328-0.303-0.807-0.456-1.425-0.456c-0.625,0-1.127,0.132-1.491,0.393
					c-0.36,0.258-0.572,0.62-0.649,1.108c-0.014,0.086-0.088,0.149-0.175,0.149h-0.937c-0.051,0-0.099-0.022-0.132-0.059
					c-0.034-0.038-0.049-0.088-0.043-0.139c0.099-0.82,0.47-1.475,1.105-1.946l0,0c0.625-0.464,1.419-0.699,2.358-0.699
					c0.946,0,1.713,0.263,2.28,0.78c0.571,0.522,0.861,1.194,0.861,1.998c0,0.569-0.169,1.084-0.504,1.532
					c-0.254,0.342-0.576,0.605-0.962,0.785c0.457,0.185,0.83,0.481,1.112,0.881c0.356,0.504,0.536,1.163,0.536,1.962
					c0,0.811-0.296,1.508-0.879,2.071C23.492,25.899,22.682,26.184,21.665,26.184z M18.419,23.401
					c0.117,0.738,0.435,1.307,0.971,1.734c0.581,0.461,1.346,0.695,2.274,0.695c0.922,0,1.65-0.251,2.163-0.747
					c0.519-0.501,0.771-1.096,0.771-1.817c0-0.723-0.159-1.315-0.471-1.758c-0.313-0.444-0.737-0.728-1.297-0.867
					c-0.079-0.02-0.134-0.091-0.134-0.172v-0.07c0-0.078,0.051-0.147,0.126-0.169c0.483-0.147,0.874-0.417,1.161-0.803
					c0.292-0.391,0.434-0.824,0.434-1.321c0-0.71-0.244-1.278-0.746-1.736c-0.5-0.457-1.187-0.688-2.041-0.688
					c-0.861,0-1.584,0.212-2.146,0.629l0,0c-0.509,0.378-0.816,0.872-0.934,1.506h0.584c0.111-0.506,0.368-0.907,0.764-1.191
					c0.426-0.305,0.997-0.46,1.698-0.46c0.71,0,1.27,0.185,1.666,0.551c0.399,0.369,0.602,0.869,0.602,1.487
					c0,1.323-1.034,2-3.071,2.009h-0.145v0.471h0.131c1.065,0,1.881,0.182,2.426,0.54c0.568,0.374,0.856,1.004,0.856,1.875
					c0,0.661-0.213,1.207-0.633,1.622c-0.419,0.414-1.021,0.624-1.789,0.624c-0.762,0-1.388-0.2-1.861-0.593
					c-0.435-0.362-0.704-0.816-0.801-1.351H18.419z"/>
			</g>
		</g>
	</g>
	<g class="st1">
		<g>
			<path class="st2" d="M34.359,9.611H0.991c-0.261,0-0.472-0.212-0.472-0.472S0.73,8.666,0.991,8.666h33.368
				c0.261,0,0.472,0.212,0.472,0.472S34.62,9.611,34.359,9.611z"/>
		</g>
		<g>
			<path class="st2" d="M34.359,9.788H0.992c-0.358,0-0.649-0.291-0.649-0.649s0.292-0.649,0.649-0.649h33.368
				c0.358,0,0.649,0.292,0.649,0.649S34.717,9.788,34.359,9.788z M0.992,8.843c-0.163,0-0.295,0.132-0.295,0.295
				c0,0.163,0.132,0.295,0.295,0.295h33.368c0.163,0,0.295-0.132,0.295-0.295c0-0.163-0.132-0.295-0.295-0.295H0.992z"/>
		</g>
	</g>
</g>
<g class="st0">
	<g class="st1">
		<g>
			<path class="st2" d="M19.346,34.819h-3.693c-0.715,0-1.297-0.582-1.297-1.298v-1.574c0-0.751-0.483-1.421-1.202-1.667
				c-0.561-0.192-1.116-0.424-1.648-0.689c-0.658-0.328-1.445-0.203-1.96,0.312l-1.15,1.15c-0.49,0.491-1.346,0.49-1.834,0
				L3.95,28.442c-0.506-0.506-0.506-1.329,0-1.835l1.165-1.165c0.512-0.512,0.639-1.298,0.314-1.954
				c-0.263-0.533-0.493-1.088-0.682-1.649c-0.241-0.713-0.903-1.192-1.647-1.192H1.482c-0.715,0-1.297-0.582-1.297-1.298v-3.693
				c0-0.715,0.582-1.297,1.297-1.297H3.13c0.741,0,1.402-0.476,1.646-1.184c0.189-0.551,0.418-1.096,0.679-1.621
				c0.328-0.659,0.204-1.448-0.311-1.962L3.95,8.4C3.705,8.155,3.57,7.829,3.57,7.482c0-0.347,0.135-0.672,0.38-0.918l2.612-2.611
				c0.489-0.489,1.344-0.491,1.834,0l1.208,1.209c0.512,0.512,1.298,0.639,1.956,0.314c0.525-0.259,1.071-0.485,1.622-0.672
				c0.702-0.238,1.174-0.892,1.174-1.626V1.485c0-0.715,0.582-1.297,1.297-1.297h3.693c0.716,0,1.298,0.582,1.298,1.297v1.693
				c0,0.734,0.472,1.387,1.174,1.626c0.552,0.187,1.097,0.413,1.621,0.672c0.658,0.325,1.444,0.198,1.956-0.313l1.208-1.209
				c0.505-0.505,1.328-0.506,1.835,0l2.611,2.612c0.245,0.245,0.38,0.571,0.38,0.917c0,0.347-0.135,0.672-0.38,0.917l-1.193,1.194
				c-0.514,0.514-0.639,1.303-0.31,1.962c0.261,0.523,0.489,1.069,0.679,1.621c0.244,0.708,0.905,1.184,1.645,1.184h1.649
				c0.715,0,1.297,0.582,1.297,1.297v3.693c0,0.715-0.582,1.298-1.297,1.298H31.9c-0.744,0-1.407,0.479-1.647,1.192
				c-0.19,0.562-0.419,1.116-0.682,1.649c-0.324,0.656-0.198,1.442,0.314,1.954l1.165,1.165c0.506,0.506,0.506,1.329,0,1.835
				l-2.611,2.611c-0.506,0.505-1.328,0.506-1.835,0l-1.15-1.15c-0.515-0.515-1.302-0.639-1.96-0.312
				c-0.532,0.266-1.087,0.498-1.648,0.689c-0.719,0.246-1.202,0.915-1.202,1.667v1.574C20.644,34.237,20.062,34.819,19.346,34.819z
				 M10.739,28.442c0.407,0,0.817,0.093,1.199,0.284c0.494,0.247,1.009,0.462,1.529,0.639c1.11,0.379,1.856,1.417,1.856,2.582v1.574
				c0,0.182,0.148,0.33,0.33,0.33h3.693c0.182,0,0.33-0.148,0.33-0.33v-1.574c0-1.165,0.746-2.203,1.856-2.582
				c0.521-0.178,1.035-0.393,1.529-0.639c1.03-0.515,2.266-0.316,3.076,0.493l1.15,1.15c0.128,0.129,0.339,0.128,0.467,0
				l2.611-2.611c0.062-0.062,0.097-0.145,0.097-0.234c0-0.088-0.035-0.171-0.097-0.233l-1.165-1.165
				c-0.806-0.806-1.006-2.038-0.497-3.067c0.244-0.494,0.457-1.008,0.633-1.529c0.374-1.107,1.404-1.85,2.564-1.85h1.618
				c0.182,0,0.33-0.148,0.33-0.33v-3.693c0-0.182-0.148-0.33-0.33-0.33h-1.649c-1.153,0-2.182-0.738-2.56-1.836
				c-0.176-0.512-0.388-1.018-0.63-1.504c-0.514-1.032-0.317-2.269,0.492-3.077l1.193-1.194c0.062-0.062,0.097-0.145,0.097-0.233
				c0-0.088-0.035-0.171-0.097-0.233l-2.611-2.612c-0.129-0.129-0.339-0.128-0.467,0l-1.208,1.208
				c-0.805,0.806-2.038,1.006-3.068,0.497c-0.487-0.24-0.993-0.45-1.504-0.624c-1.095-0.371-1.831-1.393-1.831-2.542V1.485
				c0-0.182-0.148-0.33-0.33-0.33h-3.693c-0.182,0-0.33,0.148-0.33,0.33v1.693c0,1.149-0.735,2.17-1.83,2.542
				c-0.512,0.173-1.018,0.383-1.505,0.624c-1.028,0.508-2.262,0.309-3.068-0.497L7.712,4.637c-0.125-0.125-0.342-0.125-0.467,0
				L4.634,7.249C4.572,7.311,4.537,7.394,4.537,7.482c0,0.088,0.035,0.171,0.097,0.233l1.194,1.194
				c0.809,0.809,1.006,2.045,0.492,3.078c-0.242,0.486-0.454,0.993-0.63,1.504c-0.378,1.099-1.407,1.837-2.56,1.837H1.482
				c-0.182,0-0.33,0.148-0.33,0.33v3.693c0,0.182,0.148,0.33,0.33,0.33H3.1c1.16,0,2.19,0.744,2.564,1.85
				c0.176,0.521,0.389,1.036,0.633,1.53c0.508,1.028,0.309,2.26-0.497,3.066l-1.165,1.165c-0.062,0.062-0.097,0.145-0.097,0.233
				c0,0.088,0.035,0.171,0.097,0.234l2.612,2.611c0.125,0.125,0.342,0.125,0.467,0l1.15-1.15
				C9.371,28.71,10.05,28.442,10.739,28.442z"/>
		</g>
		<g>
			<path class="st2" d="M19.346,35h-3.692c-0.815,0-1.479-0.663-1.479-1.479v-1.574c0-0.673-0.434-1.274-1.079-1.495
				c-0.571-0.195-1.133-0.43-1.671-0.699c-0.588-0.293-1.291-0.181-1.751,0.277l-1.149,1.15c-0.267,0.267-0.649,0.421-1.046,0.421h0
				c-0.397-0.001-0.778-0.154-1.045-0.421L3.822,28.57c-0.576-0.577-0.576-1.515,0-2.091l1.165-1.165
				c0.458-0.457,0.57-1.158,0.28-1.745c-0.267-0.542-0.5-1.104-0.691-1.671c-0.216-0.64-0.809-1.069-1.476-1.069H1.482
				c-0.815,0-1.478-0.664-1.478-1.479v-3.693c0-0.815,0.663-1.478,1.478-1.478H3.13c0.663,0,1.255-0.426,1.474-1.061
				c0.191-0.558,0.423-1.111,0.688-1.643c0.294-0.589,0.182-1.294-0.277-1.753L3.822,8.528c-0.279-0.279-0.433-0.65-0.433-1.046
				c0-0.395,0.154-0.766,0.433-1.046l2.612-2.612c0.267-0.267,0.648-0.42,1.045-0.42h0c0.397,0,0.778,0.154,1.046,0.42l1.208,1.209
				c0.457,0.457,1.16,0.57,1.747,0.279c0.532-0.263,1.085-0.492,1.644-0.682c0.628-0.213,1.05-0.798,1.05-1.454V1.485
				c0-0.815,0.664-1.479,1.479-1.479h3.692c0.815,0,1.479,0.664,1.479,1.479v1.693c0,0.656,0.422,1.24,1.051,1.454
				c0.559,0.19,1.111,0.419,1.644,0.682c0.588,0.289,1.29,0.178,1.747-0.279l1.208-1.209c0.576-0.576,1.514-0.577,2.091-0.001
				l2.612,2.612c0.279,0.28,0.433,0.651,0.433,1.046c0,0.395-0.154,0.767-0.433,1.046l-1.194,1.193
				c-0.46,0.459-0.57,1.163-0.276,1.753c0.265,0.532,0.496,1.085,0.688,1.642c0.219,0.635,0.811,1.061,1.474,1.061h1.649
				c0.815,0,1.479,0.663,1.479,1.478v3.693c0,0.815-0.663,1.479-1.479,1.479H31.9c-0.667,0-1.26,0.429-1.475,1.069
				c-0.192,0.569-0.425,1.132-0.692,1.671c-0.29,0.587-0.178,1.288,0.28,1.745l1.165,1.165c0.576,0.577,0.576,1.515,0,2.091
				l-2.611,2.611c-0.577,0.575-1.515,0.575-2.091,0l-1.15-1.151c-0.458-0.458-1.161-0.57-1.751-0.277
				c-0.538,0.269-1.1,0.504-1.671,0.699c-0.645,0.221-1.079,0.821-1.079,1.495v1.574C20.825,34.337,20.161,35,19.346,35z
				 M10.739,29.229c0.287,0,0.577,0.066,0.847,0.2c0.524,0.262,1.071,0.491,1.626,0.681c0.792,0.271,1.324,1.009,1.324,1.838v1.574
				c0,0.615,0.501,1.116,1.116,1.116h3.692c0.615,0,1.116-0.501,1.116-1.116v-1.574c0-0.829,0.532-1.567,1.324-1.838
				c0.555-0.19,1.102-0.419,1.626-0.681c0.73-0.361,1.601-0.223,2.169,0.345l1.15,1.15c0.434,0.434,1.143,0.434,1.578,0l2.611-2.612
				c0.435-0.435,0.435-1.143,0-1.578l-1.165-1.165c-0.567-0.568-0.707-1.437-0.348-2.163c0.259-0.525,0.486-1.073,0.672-1.627
				c0.266-0.787,0.997-1.315,1.819-1.315h1.618c0.615,0,1.116-0.501,1.116-1.116v-3.693c0-0.615-0.501-1.116-1.116-1.116h-1.649
				c-0.818,0-1.548-0.525-1.817-1.306c-0.186-0.543-0.412-1.081-0.67-1.599c-0.364-0.729-0.225-1.602,0.345-2.171l1.193-1.193
				c0.211-0.211,0.327-0.491,0.327-0.789c0-0.298-0.116-0.578-0.327-0.789L28.31,4.082c-0.435-0.435-1.143-0.435-1.578,0
				L25.524,5.29c-0.568,0.568-1.437,0.707-2.165,0.348c-0.518-0.255-1.056-0.478-1.599-0.663c-0.776-0.264-1.298-0.986-1.298-1.798
				V1.485c0-0.615-0.501-1.116-1.116-1.116h-3.692c-0.615,0-1.116,0.5-1.116,1.116v1.693c0,0.811-0.521,1.534-1.296,1.798
				c-0.544,0.184-1.083,0.407-1.6,0.663c-0.727,0.36-1.597,0.22-2.165-0.348L8.268,4.081C8.068,3.882,7.781,3.767,7.479,3.767h0
				c-0.302,0-0.589,0.115-0.788,0.314L4.079,6.693C3.868,6.904,3.751,7.184,3.751,7.482c0,0.298,0.116,0.579,0.327,0.789
				l1.194,1.194c0.569,0.57,0.708,1.442,0.345,2.171c-0.258,0.518-0.484,1.056-0.67,1.599c-0.269,0.781-0.999,1.306-1.817,1.306
				H1.482c-0.615,0-1.116,0.501-1.116,1.116v3.693c0,0.615,0.501,1.116,1.116,1.116H3.1c0.822,0,1.554,0.528,1.819,1.315
				c0.186,0.552,0.412,1.1,0.672,1.627c0.359,0.726,0.219,1.595-0.348,2.162l-1.165,1.165c-0.436,0.435-0.436,1.143,0,1.578
				l2.611,2.612c0.199,0.2,0.486,0.314,0.788,0.314h0c0.302,0,0.589-0.115,0.789-0.314l1.15-1.15
				C9.776,29.417,10.254,29.229,10.739,29.229z M19.346,34.033h-3.692c-0.282,0-0.512-0.23-0.512-0.512v-1.574
				c0-1.087-0.697-2.056-1.733-2.41c-0.529-0.181-1.051-0.399-1.552-0.649c-0.347-0.173-0.734-0.265-1.118-0.265
				c-0.661,0-1.282,0.257-1.749,0.724l-1.15,1.15c-0.094,0.094-0.222,0.146-0.36,0.147H7.48c-0.137,0-0.268-0.054-0.362-0.147
				l-2.612-2.611c-0.096-0.097-0.15-0.225-0.15-0.362c0-0.136,0.053-0.265,0.15-0.362l1.165-1.165
				c0.751-0.751,0.937-1.899,0.463-2.858c-0.247-0.498-0.462-1.021-0.642-1.552c-0.349-1.033-1.31-1.727-2.392-1.727H1.482
				c-0.282,0-0.511-0.23-0.511-0.512v-3.693c0-0.282,0.229-0.511,0.511-0.511H3.13c1.076,0,2.036-0.689,2.389-1.714
				c0.178-0.518,0.393-1.031,0.639-1.525c0.48-0.962,0.296-2.115-0.458-2.868L4.506,7.844c-0.096-0.097-0.15-0.225-0.15-0.362
				s0.053-0.265,0.15-0.362l2.612-2.612c0.186-0.186,0.536-0.186,0.723,0l1.209,1.209c0.75,0.751,1.9,0.937,2.859,0.463
				c0.496-0.245,1.009-0.458,1.527-0.633c1.021-0.347,1.707-1.299,1.707-2.37V1.485c0-0.282,0.23-0.512,0.512-0.512h3.692
				c0.282,0,0.512,0.23,0.512,0.512v1.693c0,1.071,0.686,2.023,1.707,2.37c0.519,0.176,1.032,0.389,1.527,0.633
				c0.96,0.473,2.109,0.288,2.859-0.462l1.208-1.209c0.096-0.096,0.224-0.15,0.361-0.15h0.001c0.137,0,0.265,0.053,0.362,0.149
				l2.611,2.612c0.096,0.095,0.15,0.224,0.15,0.361c0,0.137-0.053,0.265-0.15,0.362L29.3,9.037
				c-0.754,0.753-0.938,1.906-0.458,2.868c0.246,0.494,0.46,1.007,0.639,1.525c0.353,1.026,1.313,1.714,2.388,1.714h1.649
				c0.282,0,0.512,0.229,0.512,0.511v3.693c0,0.282-0.23,0.512-0.512,0.512H31.9c-1.082,0-2.043,0.694-2.392,1.727
				c-0.18,0.532-0.396,1.054-0.642,1.552c-0.474,0.959-0.288,2.108,0.463,2.858l1.165,1.165c0.096,0.097,0.15,0.225,0.15,0.362
				c0,0.137-0.053,0.265-0.15,0.362l-2.611,2.611c-0.201,0.199-0.525,0.198-0.724,0l-1.15-1.15
				c-0.755-0.754-1.906-0.939-2.866-0.459c-0.501,0.25-1.023,0.468-1.552,0.649c-1.037,0.354-1.733,1.323-1.733,2.41v1.574
				C19.858,33.803,19.628,34.033,19.346,34.033z M10.739,28.261c0.44,0,0.883,0.105,1.28,0.303c0.486,0.242,0.993,0.454,1.507,0.631
				c1.184,0.404,1.979,1.511,1.979,2.753v1.574c0,0.082,0.066,0.149,0.149,0.149h3.692c0.082,0,0.149-0.067,0.149-0.149v-1.574
				c0-1.243,0.795-2.349,1.979-2.753c0.514-0.176,1.021-0.388,1.507-0.631c1.1-0.548,2.42-0.338,3.285,0.527l1.15,1.15
				c0.058,0.058,0.152,0.058,0.21-0.001l2.611-2.611c0.029-0.028,0.044-0.065,0.044-0.105c0-0.04-0.015-0.076-0.044-0.105
				l-1.165-1.165c-0.861-0.861-1.074-2.177-0.531-3.276c0.239-0.483,0.449-0.99,0.623-1.507c0.399-1.18,1.498-1.973,2.736-1.973
				h1.618c0.082,0,0.149-0.067,0.149-0.149v-3.693c0-0.082-0.066-0.148-0.149-0.148h-1.649c-1.23,0-2.328-0.787-2.731-1.959
				c-0.173-0.503-0.382-1.002-0.621-1.482c-0.549-1.102-0.338-2.423,0.527-3.286l1.193-1.193c0.029-0.029,0.044-0.065,0.044-0.105
				c0-0.04-0.015-0.077-0.043-0.104l-2.612-2.613c-0.028-0.028-0.065-0.043-0.105-0.043h0c-0.04,0-0.077,0.016-0.104,0.043
				l-1.209,1.209c-0.86,0.861-2.175,1.074-3.276,0.531c-0.48-0.236-0.979-0.443-1.483-0.614c-1.169-0.396-1.953-1.487-1.953-2.713
				V1.485c0-0.082-0.067-0.149-0.149-0.149h-3.692c-0.082,0-0.149,0.067-0.149,0.149v1.693c0,1.226-0.785,2.317-1.954,2.713
				c-0.502,0.17-1.001,0.377-1.483,0.615C10.97,7.05,9.653,6.835,8.792,5.975L7.584,4.765c-0.05-0.051-0.158-0.051-0.21,0
				L4.763,7.377C4.734,7.405,4.719,7.442,4.719,7.482c0,0.04,0.015,0.077,0.044,0.105l1.193,1.194
				c0.864,0.864,1.075,2.185,0.526,3.287c-0.239,0.48-0.448,0.979-0.621,1.482c-0.403,1.172-1.501,1.959-2.732,1.959H1.482
				c-0.082,0-0.148,0.067-0.148,0.148v3.693c0,0.082,0.067,0.149,0.148,0.149H3.1c1.238,0,2.337,0.793,2.736,1.973
				c0.174,0.516,0.384,1.024,0.623,1.508c0.543,1.098,0.329,2.414-0.531,3.275l-1.165,1.165c-0.029,0.028-0.044,0.065-0.044,0.105
				c0,0.04,0.015,0.077,0.044,0.105l2.611,2.612c0.025,0.026,0.064,0.041,0.105,0.041H7.48c0.04,0,0.078-0.015,0.103-0.04l1.15-1.15
				C9.269,28.556,9.981,28.261,10.739,28.261z"/>
		</g>
	</g>
	<g class="st1">
		<g>
			<path class="st2" d="M17.5,27.168c-5.329,0-9.665-4.336-9.665-9.665c0-5.33,4.336-9.665,9.665-9.665s9.665,4.336,9.665,9.665
				C27.165,22.833,22.829,27.168,17.5,27.168z M17.5,8.805c-4.796,0-8.698,3.902-8.698,8.698c0,4.796,3.902,8.698,8.698,8.698
				c4.796,0,8.698-3.902,8.698-8.698C26.198,12.707,22.296,8.805,17.5,8.805z"/>
		</g>
		<g>
			<path class="st2" d="M17.5,27.35c-5.429,0-9.846-4.417-9.846-9.846c0-5.43,4.417-9.847,9.846-9.847s9.847,4.417,9.847,9.847
				C27.346,22.933,22.929,27.35,17.5,27.35z M17.5,8.019c-5.23,0-9.484,4.255-9.484,9.484c0,5.229,4.254,9.484,9.484,9.484
				s9.484-4.254,9.484-9.484C26.984,12.274,22.729,8.019,17.5,8.019z M17.5,26.382c-4.896,0-8.879-3.983-8.879-8.879
				c0-4.896,3.983-8.88,8.879-8.88s8.879,3.983,8.879,8.88C26.379,22.399,22.396,26.382,17.5,26.382z M17.5,8.987
				c-4.696,0-8.516,3.821-8.516,8.517c0,4.696,3.821,8.516,8.516,8.516s8.517-3.821,8.517-8.516
				C26.016,12.807,22.196,8.987,17.5,8.987z"/>
		</g>
	</g>
</g>
<g class="st0">
	<g class="st1">
		<g>
			<path class="st2" d="M29.689,34.317H0.589c-0.229,0-0.414-0.185-0.414-0.414V4.796c0-0.229,0.185-0.414,0.414-0.414h29.101
				c0.229,0,0.414,0.185,0.414,0.414v29.107C30.104,34.131,29.918,34.317,29.689,34.317z M1.003,33.488h28.273V5.21H1.003V33.488z"
				/>
		</g>
		<g>
			<path class="st2" d="M29.69,34.472H0.589c-0.314,0-0.569-0.256-0.569-0.57V4.796c0-0.314,0.256-0.57,0.569-0.57H29.69
				c0.314,0,0.569,0.256,0.569,0.57v29.107C30.259,34.216,30.003,34.472,29.69,34.472z M0.589,4.537
				c-0.143,0-0.259,0.116-0.259,0.259v29.107c0,0.143,0.116,0.259,0.259,0.259H29.69c0.143,0,0.259-0.116,0.259-0.259V4.796
				c0-0.143-0.116-0.259-0.259-0.259H0.589z M29.275,33.644H1.003c-0.086,0-0.155-0.07-0.155-0.155V5.21
				c0-0.086,0.07-0.155,0.155-0.155h28.273c0.086,0,0.155,0.07,0.155,0.155v28.278C29.431,33.574,29.361,33.644,29.275,33.644z
				 M1.158,33.333H29.12V5.365H1.158V33.333z"/>
		</g>
	</g>
	<g class="st1">
		<g>
			<path class="st2" d="M6.912,14.604c-1.527,0-2.769-1.243-2.769-2.77c0-1.527,1.243-2.77,2.769-2.77c1.527,0,2.77,1.243,2.77,2.77
				C9.681,13.362,8.439,14.604,6.912,14.604z M6.912,9.893c-1.07,0-1.941,0.871-1.941,1.941c0,1.071,0.871,1.942,1.941,1.942
				c1.071,0,1.941-0.871,1.941-1.942C8.853,10.764,7.982,9.893,6.912,9.893z"/>
		</g>
		<g>
			<path class="st2" d="M6.912,14.76c-1.613,0-2.925-1.312-2.925-2.926c0-1.613,1.312-2.925,2.925-2.925
				c1.613,0,2.925,1.312,2.925,2.925C9.837,13.448,8.525,14.76,6.912,14.76z M6.912,9.22c-1.442,0-2.614,1.173-2.614,2.614
				c0,1.442,1.172,2.615,2.614,2.615c1.441,0,2.614-1.173,2.614-2.615C9.526,10.393,8.353,9.22,6.912,9.22z M6.912,13.932
				c-1.156,0-2.096-0.941-2.096-2.097c0-1.156,0.94-2.097,2.096-2.097c1.156,0,2.097,0.94,2.097,2.097
				C9.008,12.991,8.068,13.932,6.912,13.932z M6.912,10.049c-0.985,0-1.786,0.801-1.786,1.786c0,0.985,0.801,1.786,1.786,1.786
				c0.985,0,1.786-0.801,1.786-1.786C8.698,10.85,7.897,10.049,6.912,10.049z"/>
		</g>
	</g>
	<g class="st1">
		<g>
			<path class="st2" d="M0.589,25.616c-0.127,0-0.252-0.058-0.333-0.167c-0.136-0.184-0.098-0.443,0.085-0.58l10.664-7.931
				c0.147-0.11,0.35-0.109,0.498,0.003l7.159,5.447l10.305-10.839c0.158-0.165,0.419-0.172,0.586-0.015
				c0.165,0.158,0.172,0.42,0.015,0.586L19.008,23.227c-0.146,0.153-0.383,0.172-0.551,0.044l-7.207-5.483L0.836,25.534
				C0.761,25.589,0.675,25.616,0.589,25.616z"/>
		</g>
		<g>
			<path class="st2" d="M0.589,25.772c-0.18,0-0.35-0.086-0.457-0.23c-0.187-0.252-0.135-0.61,0.117-0.797l10.664-7.932
				c0.201-0.15,0.482-0.149,0.684,0.004l7.049,5.363l10.209-10.738c0.216-0.226,0.578-0.235,0.805-0.02
				c0.228,0.217,0.237,0.578,0.02,0.806L19.12,23.335c-0.201,0.21-0.527,0.236-0.758,0.061l-7.114-5.413L0.928,25.659
				C0.829,25.733,0.712,25.772,0.589,25.772z M11.252,17.012c-0.054,0-0.108,0.017-0.153,0.051L0.434,24.994
				c-0.115,0.085-0.138,0.248-0.053,0.362c0.082,0.111,0.25,0.136,0.363,0.053l10.414-7.745c0.055-0.041,0.132-0.041,0.186,0.001
				l7.207,5.483c0.106,0.08,0.253,0.068,0.345-0.028l10.561-11.107c0.098-0.103,0.094-0.267-0.009-0.366
				c-0.102-0.097-0.267-0.094-0.366,0.009L18.776,22.495c-0.055,0.058-0.143,0.064-0.206,0.017l-7.159-5.447
				C11.363,17.029,11.308,17.012,11.252,17.012z"/>
		</g>
	</g>
	<g class="st1">
		<path class="st2" d="M34.431,1.065H5.329c-0.314,0-0.569,0.256-0.569,0.57v2.936h1.139V2.204h27.962v27.968h-4.105v1.139h4.674
			c0.314,0,0.569-0.256,0.569-0.57V1.635C35,1.321,34.744,1.065,34.431,1.065z"/>
	</g>
</g>
<g class="st0">
	<path class="st3" d="M34.328,6.649h-2.328v-2.91c0.001-0.321-0.258-0.583-0.58-0.584c-0.017,0-0.034,0.001-0.051,0.002L29.85,3.285
		c-3.683,0.305-7.294,1.185-10.704,2.61L17.448,6.6l-1.696-0.704c-3.41-1.425-7.022-2.306-10.705-2.61l-1.519-0.13
		C3.208,3.13,2.926,3.367,2.899,3.688C2.898,3.705,2.897,3.722,2.897,3.739v2.91H0.569c-0.321,0-0.582,0.261-0.582,0.582v24.445
		c0,0.321,0.261,0.582,0.582,0.582h33.759c0.321,0,0.582-0.261,0.582-0.582V7.231C34.91,6.909,34.649,6.649,34.328,6.649z
		 M1.151,31.095V7.813h1.746v20.371c-0.001,0.303,0.231,0.556,0.533,0.582L4.996,28.9c0.427,0.036,0.854,0.08,1.28,0.132
		c0.143,0.017,0.284,0.04,0.427,0.058c0.282,0.038,0.565,0.076,0.846,0.12c0.168,0.027,0.335,0.058,0.502,0.088
		c0.255,0.045,0.51,0.09,0.764,0.14c0.175,0.035,0.349,0.073,0.524,0.111c0.245,0.052,0.49,0.106,0.734,0.164
		c0.175,0.042,0.352,0.087,0.528,0.132c0.24,0.062,0.48,0.124,0.719,0.191c0.175,0.049,0.349,0.1,0.524,0.151
		c0.237,0.07,0.474,0.143,0.711,0.219c0.173,0.055,0.346,0.112,0.518,0.17c0.238,0.08,0.474,0.164,0.711,0.249
		c0.168,0.058,0.336,0.122,0.502,0.185c0.072,0.027,0.144,0.058,0.215,0.085H1.151z M16.866,30.803l-1.073-0.448
		c-3.407-1.427-7.017-2.311-10.699-2.619L4.061,27.65V4.372l0.888,0.074c3.563,0.294,7.057,1.146,10.355,2.524l1.562,0.648V30.803z
		 M18.03,30.803V7.619l1.563-0.649c3.298-1.378,6.791-2.229,10.353-2.524l0.888-0.074v23.276l-0.956,0.078
		c-3.684,0.306-7.297,1.184-10.71,2.604L18.03,30.803z M33.745,31.094H20.405c0.08-0.031,0.159-0.063,0.239-0.094
		c0.175-0.067,0.349-0.13,0.528-0.194c0.228-0.083,0.457-0.163,0.687-0.24c0.179-0.058,0.36-0.116,0.54-0.175
		c0.23-0.073,0.461-0.143,0.692-0.212c0.182-0.054,0.364-0.107,0.546-0.157c0.233-0.065,0.466-0.126,0.704-0.186
		c0.18-0.046,0.361-0.092,0.543-0.135c0.242-0.058,0.486-0.111,0.73-0.162c0.175-0.038,0.349-0.077,0.527-0.112
		c0.256-0.051,0.513-0.095,0.77-0.14c0.166-0.029,0.332-0.058,0.499-0.087c0.287-0.045,0.574-0.084,0.863-0.123
		c0.138-0.018,0.276-0.04,0.414-0.058c0.427-0.052,0.856-0.096,1.287-0.132l1.491-0.121c0.303-0.025,0.535-0.278,0.534-0.582V7.813
		h1.746V31.094z"/>
</g>
<g class="st0">
	<g class="st1">
		<path class="st2" d="M28.74,22.803c-0.362-0.098-0.735,0.117-0.832,0.479c-0.098,0.362,0.116,0.735,0.479,0.832
			c2.316,0.625,3.934,2.737,3.934,5.136v4.975c0,0.375,0.304,0.679,0.679,0.679s0.679-0.304,0.679-0.679V29.25
			C33.679,26.239,31.648,23.588,28.74,22.803z"/>
	</g>
	<g class="st1">
		<path class="st2" d="M25.7,22.336c-0.126,0.126-0.199,0.301-0.199,0.48c0,0.179,0.073,0.354,0.199,0.48
			c0.126,0.126,0.301,0.199,0.48,0.199c0.179,0,0.354-0.073,0.481-0.199c0.126-0.127,0.199-0.302,0.199-0.48
			c0-0.179-0.072-0.354-0.199-0.48c-0.127-0.126-0.301-0.199-0.481-0.199C26.001,22.137,25.826,22.209,25.7,22.336z"/>
	</g>
	<g class="st1">
		<path class="st2" d="M7.196,33.546c-0.179,0-0.354,0.073-0.48,0.199c-0.126,0.126-0.199,0.302-0.199,0.48
			c0,0.179,0.073,0.354,0.199,0.48s0.302,0.199,0.48,0.199s0.354-0.073,0.48-0.199c0.126-0.126,0.199-0.302,0.199-0.48
			c0-0.179-0.073-0.354-0.199-0.48C7.55,33.619,7.374,33.546,7.196,33.546z"/>
	</g>
	<g class="st1">
		<path class="st2" d="M28.11,28.114h-0.79c-5.639,0-11.113-1.88-15.554-5.318c1.663-0.564,2.881-1.983,3.211-3.678
			c0.835,0.306,1.736,0.474,2.676,0.474c0.94,0,1.841-0.168,2.676-0.474c0.349,1.794,1.693,3.28,3.507,3.769
			c0.059,0.016,0.119,0.024,0.177,0.024c0.299,0,0.573-0.199,0.655-0.502c0.098-0.362-0.117-0.735-0.479-0.833
			c-1.423-0.384-2.446-1.62-2.577-3.067c2.153-1.276,3.643-3.559,3.815-6.195c0.964-0.286,1.669-1.18,1.669-2.236V9.168
			c0-1.051-0.699-1.942-1.657-2.232c-0.129-3.771-3.238-6.799-7.04-6.799h-1.492c-3.802,0-6.911,3.028-7.04,6.799
			c-0.958,0.29-1.658,1.181-1.658,2.233v0.907c0,1.056,0.706,1.951,1.67,2.237c0.172,2.637,1.662,4.92,3.815,6.196
			c-0.132,1.447-1.154,2.683-2.577,3.067l-0.977,0.264c0,0,0,0-0.001,0l-3.573,0.964c-2.908,0.785-4.938,3.436-4.938,6.447v4.975
			c0,0.375,0.304,0.679,0.679,0.679s0.679-0.304,0.679-0.679V29.25c0-2.257,1.432-4.26,3.531-5.009v7.166
			c0,0.375,0.304,0.679,0.679,0.679s0.679-0.304,0.679-0.679v-6.074c2.338,2.933,5.346,5.348,8.716,6.994
			c3.452,1.686,7.307,2.577,11.148,2.577h0.372c0.375,0,0.679-0.304,0.679-0.679v-5.432C28.789,28.418,28.485,28.114,28.11,28.114z
			 M11.221,11.801V11.73c0-0.375-0.304-0.679-0.679-0.679c-0.537,0-0.975-0.437-0.975-0.975V9.169c0-0.537,0.437-0.975,0.975-0.975
			c0.375,0,0.679-0.304,0.679-0.679V7.181c0-3.136,2.551-5.686,5.686-5.686h1.492c3.135,0,5.686,2.551,5.686,5.686v0.334
			c0,0.375,0.304,0.679,0.679,0.679c0.537,0,0.974,0.437,0.974,0.974v0.908c0,0.537-0.437,0.974-0.974,0.974
			c-0.375,0-0.679,0.304-0.679,0.679v0.072c0,3.547-2.885,6.432-6.432,6.432S11.221,15.348,11.221,11.801z M8.777,24.284
			L8.345,23.73l1.809-0.488c4.81,4.019,10.891,6.23,17.166,6.23h0.111v4.072C20.086,33.452,13.301,30.089,8.777,24.284z"/>
	</g>
	<g class="st1">
		<path class="st2" d="M17.653,12.971h0.951c0.375,0,0.679-0.304,0.679-0.679c0-0.375-0.304-0.679-0.679-0.679h-0.272V9.508
			c0-0.375-0.304-0.679-0.679-0.679s-0.679,0.304-0.679,0.679v2.784C16.974,12.667,17.278,12.971,17.653,12.971z"/>
	</g>
	<g class="st1">
		<path class="st2" d="M19.158,15.331c0.265-0.265,0.265-0.695,0-0.96c-0.265-0.265-0.695-0.265-0.96,0
			c-0.295,0.296-0.776,0.296-1.072,0c-0.265-0.265-0.695-0.265-0.96,0c-0.265,0.265-0.265,0.695,0,0.96
			c0.412,0.412,0.954,0.619,1.496,0.619S18.746,15.743,19.158,15.331z"/>
	</g>
	<g class="st1">
		<path class="st2" d="M15.884,7.928c-0.265-0.265-0.695-0.265-0.96,0c-0.143,0.143-0.333,0.222-0.536,0.222
			c-0.202,0-0.393-0.079-0.536-0.222c-0.265-0.265-0.695-0.265-0.96,0c-0.265,0.265-0.265,0.695,0,0.96
			c0.4,0.4,0.931,0.62,1.496,0.62s1.097-0.22,1.496-0.62C16.15,8.623,16.15,8.193,15.884,7.928z"/>
	</g>
	<g class="st1">
		<path class="st2" d="M21.262,9.508c0.565,0,1.097-0.22,1.496-0.62c0.265-0.265,0.265-0.695,0-0.96
			c-0.265-0.265-0.695-0.265-0.96,0c-0.143,0.143-0.333,0.222-0.536,0.222c-0.203,0-0.393-0.079-0.536-0.222
			c-0.265-0.265-0.695-0.265-0.96,0c-0.265,0.265-0.265,0.695,0,0.96C20.165,9.288,20.697,9.508,21.262,9.508z"/>
	</g>
	<g class="st1">
		<path class="st2" d="M17.676,7.716c-0.95,0-1.722-0.772-1.722-1.722V2.367c0-0.262,0.213-0.475,0.475-0.475
			s0.475,0.213,0.475,0.475v3.628c0,0.425,0.346,0.771,0.771,0.771c0.425,0,0.771-0.346,0.771-0.771l0.001-3.608
			c0-0.262,0.213-0.475,0.475-0.475l0,0c0.263,0,0.475,0.213,0.475,0.476l-0.001,3.608C19.398,6.944,18.626,7.716,17.676,7.716z"/>
	</g>
	<g class="st1">
		<circle class="st2" cx="17.659" cy="4.467" r="0.809"/>
	</g>
</g>
<g class="st0">
	
		<image style="display:inline;overflow:visible;opacity:0.3;" width="5251" height="1291" xlink:href="6F18DF0D.png"  transform="matrix(0.24 0 0 0.24 -591.12 -125.04)">
	</image>
	<g class="st1">
		<rect x="-500.938" y="-34.82" class="st4" width="1080" height="129.605"/>
	</g>
</g>
<g class="st0">
	<g class="st1">
		<g>
			<path class="st2" d="M17.5,34.824c-9.552,0-17.324-7.771-17.324-17.324c0-9.552,7.771-17.324,17.324-17.324
				c9.552,0,17.323,7.771,17.323,17.324C34.824,27.052,27.052,34.824,17.5,34.824z M17.5,1.117C8.466,1.117,1.117,8.466,1.117,17.5
				c0,9.034,7.349,16.383,16.383,16.383c9.034,0,16.383-7.349,16.383-16.383C33.883,8.466,26.534,1.117,17.5,1.117z"/>
			<path class="st2" d="M17.5,35C7.85,35,0,27.15,0,17.5C0,7.85,7.85,0,17.5,0C27.15,0,35,7.85,35,17.5C35,27.15,27.15,35,17.5,35z
				 M17.5,0.353C8.045,0.353,0.353,8.045,0.353,17.5c0,9.455,7.692,17.148,17.147,17.148c9.455,0,17.147-7.692,17.147-17.148
				C34.647,8.045,26.955,0.353,17.5,0.353z M17.5,34.059c-9.131,0-16.56-7.429-16.56-16.56c0-9.131,7.429-16.559,16.56-16.559
				c9.131,0,16.559,7.428,16.559,16.559C34.059,26.631,26.631,34.059,17.5,34.059z M17.5,1.293c-8.937,0-16.207,7.27-16.207,16.206
				c0,8.937,7.27,16.207,16.207,16.207c8.936,0,16.206-7.27,16.206-16.207C33.707,8.564,26.436,1.293,17.5,1.293z"/>
		</g>
	</g>
	<g class="st1">
		<path class="st2" d="M12.557,25.399c-0.081,0-0.162-0.021-0.234-0.062c-0.146-0.084-0.236-0.239-0.236-0.408V10.072
			c0-0.169,0.09-0.324,0.236-0.408c0.146-0.085,0.326-0.083,0.472,0.002l12.702,7.428c0.144,0.085,0.233,0.239,0.233,0.406
			c0,0.167-0.089,0.321-0.233,0.406l-12.702,7.429C12.721,25.377,12.639,25.399,12.557,25.399z M13.028,10.891v13.217l11.3-6.609
			L13.028,10.891z"/>
		<path class="st2" d="M12.557,25.575c-0.113,0-0.225-0.03-0.322-0.086c-0.2-0.114-0.324-0.329-0.324-0.561V10.072
			c0-0.232,0.124-0.447,0.325-0.561c0.199-0.116,0.447-0.114,0.648,0.002l12.702,7.429c0.198,0.116,0.32,0.329,0.32,0.558
			c0,0.229-0.123,0.442-0.32,0.558l-12.702,7.429C12.784,25.545,12.671,25.575,12.557,25.575z M12.557,9.778
			c-0.05,0-0.1,0.013-0.146,0.039c-0.091,0.053-0.148,0.15-0.148,0.255v14.857c0,0.105,0.057,0.202,0.148,0.255
			c0.089,0.051,0.204,0.051,0.295-0.001l12.701-7.428c0.09-0.053,0.146-0.15,0.146-0.254c0-0.104-0.056-0.201-0.146-0.254
			L12.706,9.818C12.66,9.791,12.608,9.778,12.557,9.778z M13.028,24.285c-0.03,0-0.061-0.008-0.088-0.024
			c-0.055-0.031-0.089-0.09-0.089-0.153V10.891c0-0.063,0.034-0.122,0.089-0.153c0.055-0.031,0.122-0.031,0.177,0.001l11.3,6.608
			c0.054,0.031,0.087,0.09,0.087,0.152s-0.033,0.121-0.087,0.152l-11.3,6.609C13.089,24.277,13.058,24.285,13.028,24.285z
			 M13.204,11.199v12.603L23.978,17.5L13.204,11.199z"/>
	</g>
</g>
<text transform="matrix(1 0 0 1 -399.2584 73.822)" style="display:none;fill:#2C5696; font-family:'Poppins-Regular'; font-size:18.4737px;">Video</text>
<text transform="matrix(1 0 0 1 -196.9893 73.822)" style="display:none;fill:#2C5696; font-family:'Poppins-Regular'; font-size:18.4737px;">Music</text>
<text transform="matrix(1 0 0 1 5.6121 73.822)" style="display:none;fill:#2C5696; font-family:'Poppins-Regular'; font-size:18.4737px;">Home</text>
<text transform="matrix(1 0 0 1 210.1717 73.822)" style="display:none;fill:#2C5696; font-family:'Poppins-Regular'; font-size:18.4737px;">Photos</text>
<text transform="matrix(1 0 0 1 422.1772 73.822)" style="display:none;fill:#2C5696; font-family:'Poppins-Regular'; font-size:18.4737px;">More</text>
<g class="st0">
	<g class="st1">
		<path class="st2" d="M6.807,34.819c-2.554,0-4.631-2.078-4.631-4.631c0-2.554,2.077-4.631,4.631-4.631
			c2.554,0,4.631,2.078,4.631,4.631C11.438,32.742,9.36,34.819,6.807,34.819z M6.807,26.52c-2.023,0-3.668,1.645-3.668,3.668
			s1.645,3.668,3.668,3.668s3.668-1.645,3.668-3.668S8.829,26.52,6.807,26.52z"/>
		<path class="st2" d="M6.807,35c-2.654,0-4.812-2.159-4.812-4.812s2.159-4.812,4.812-4.812s4.812,2.158,4.812,4.812
			S9.46,35,6.807,35z M6.807,25.737c-2.454,0-4.451,1.997-4.451,4.451s1.997,4.451,4.451,4.451s4.451-1.997,4.451-4.451
			S9.261,25.737,6.807,25.737z M6.807,34.036c-2.122,0-3.848-1.727-3.848-3.848s1.726-3.848,3.848-3.848s3.848,1.727,3.848,3.848
			S8.929,34.036,6.807,34.036z M6.807,26.701c-1.923,0-3.487,1.564-3.487,3.487c0,1.923,1.564,3.487,3.487,3.487
			c1.923,0,3.487-1.564,3.487-3.487C10.294,28.265,8.73,26.701,6.807,26.701z"/>
	</g>
	<g class="st1">
		<path class="st2" d="M28.193,30.67c-2.554,0-4.632-2.078-4.632-4.631c0-2.554,2.078-4.631,4.632-4.631
			c2.554,0,4.631,2.078,4.631,4.631C32.825,28.592,30.747,30.67,28.193,30.67z M28.193,22.371c-2.023,0-3.668,1.645-3.668,3.668
			s1.646,3.668,3.668,3.668s3.668-1.645,3.668-3.668S30.216,22.371,28.193,22.371z"/>
		<path class="st2" d="M28.193,30.851c-2.654,0-4.812-2.159-4.812-4.812s2.159-4.812,4.812-4.812s4.812,2.159,4.812,4.812
			S30.847,30.851,28.193,30.851z M28.193,21.588c-2.455,0-4.451,1.997-4.451,4.451s1.997,4.451,4.451,4.451
			c2.454,0,4.451-1.997,4.451-4.451S30.647,21.588,28.193,21.588z M28.193,29.887c-2.122,0-3.849-1.727-3.849-3.848
			s1.726-3.848,3.849-3.848c2.122,0,3.848,1.727,3.848,3.848S30.315,29.887,28.193,29.887z M28.193,22.551
			c-1.923,0-3.487,1.564-3.487,3.487s1.565,3.487,3.487,3.487c1.923,0,3.487-1.564,3.487-3.487S30.116,22.551,28.193,22.551z"/>
	</g>
	<g class="st1">
		<path class="st2" d="M10.956,30.67c-0.266,0-0.482-0.215-0.482-0.482V4.652c0-0.232,0.165-0.431,0.393-0.474l21.386-3.99
			C32.397,0.165,32.54,0.2,32.65,0.292c0.111,0.092,0.174,0.228,0.174,0.371v25.376c0,0.266-0.215,0.482-0.482,0.482
			c-0.266,0-0.482-0.215-0.482-0.482V1.243l-20.423,3.81v25.135C11.438,30.454,11.223,30.67,10.956,30.67z"/>
		<path class="st2" d="M10.956,30.851c-0.365,0-0.662-0.297-0.662-0.663V4.652c0-0.319,0.227-0.592,0.541-0.651l21.387-3.99
			c0.199-0.036,0.396,0.018,0.544,0.141c0.152,0.127,0.239,0.313,0.239,0.51v25.376c0,0.365-0.297,0.663-0.662,0.663
			c-0.365,0-0.663-0.297-0.663-0.663V1.46L11.619,5.203v24.985C11.619,30.553,11.321,30.851,10.956,30.851z M32.341,0.361
			c-0.019,0-0.038,0.002-0.057,0.005L10.901,4.356c-0.142,0.027-0.246,0.152-0.246,0.296v25.536c0,0.166,0.135,0.301,0.301,0.301
			c0.166,0,0.301-0.135,0.301-0.301V5.053c0-0.087,0.062-0.162,0.148-0.177l20.423-3.81c0.052-0.011,0.107,0.004,0.148,0.039
			c0.041,0.034,0.065,0.085,0.065,0.139v24.796c0,0.166,0.135,0.301,0.301,0.301s0.301-0.135,0.301-0.301V0.662
			c0-0.09-0.04-0.175-0.109-0.232C32.481,0.386,32.413,0.361,32.341,0.361z"/>
	</g>
	<g class="st1">
		<path class="st2" d="M10.956,9.939c-0.228,0-0.43-0.162-0.473-0.393c-0.049-0.262,0.124-0.513,0.385-0.562l21.386-3.99
			c0.266-0.046,0.514,0.124,0.562,0.385c0.049,0.262-0.124,0.513-0.385,0.562l-21.387,3.99C11.015,9.936,10.985,9.939,10.956,9.939z
			"/>
		<path class="st2" d="M10.956,10.119c-0.319,0-0.592-0.227-0.651-0.541c-0.067-0.36,0.171-0.706,0.53-0.773l21.387-3.99
			c0.365-0.063,0.705,0.169,0.773,0.53c0.067,0.359-0.171,0.706-0.529,0.773l-21.387,3.99
			C11.035,10.116,10.995,10.119,10.956,10.119z M32.34,5.166c-0.018,0-0.037,0.002-0.055,0.005L10.901,9.16
			c-0.163,0.031-0.271,0.189-0.24,0.352c0.03,0.161,0.186,0.268,0.354,0.24l21.384-3.99c0.163-0.031,0.271-0.189,0.24-0.352
			C32.612,5.266,32.486,5.166,32.34,5.166z"/>
	</g>
</g>
<g class="st0">
	<g class="st1">
		<path class="st2" d="M34.341,34.82H0.659c-0.265,0-0.479-0.214-0.479-0.479V0.659c0-0.265,0.214-0.479,0.479-0.479h33.682
			c0.265,0,0.479,0.214,0.479,0.479v33.682C34.82,34.606,34.606,34.82,34.341,34.82z M1.138,33.861h32.723V1.138H1.138V33.861z"/>
		<path class="st2" d="M34.341,35H0.659C0.296,35,0,34.704,0,34.341V0.659C0,0.296,0.296,0,0.659,0h33.682
			C34.704,0,35,0.296,35,0.659v33.682C35,34.704,34.704,35,34.341,35z M0.659,0.36c-0.165,0-0.3,0.134-0.3,0.3v33.682
			c0,0.165,0.134,0.3,0.3,0.3h33.682c0.165,0,0.3-0.134,0.3-0.3V0.659c0-0.165-0.134-0.3-0.3-0.3H0.659z M33.861,34.041H1.139
			c-0.099,0-0.18-0.08-0.18-0.18V1.138c0-0.099,0.08-0.18,0.18-0.18h32.723c0.099,0,0.18,0.08,0.18,0.18v32.723
			C34.041,33.961,33.961,34.041,33.861,34.041z M1.318,33.682h32.363V1.318H1.318V33.682z"/>
	</g>
	<g class="st1">
		<path class="st2" d="M7.977,12.01c-1.767,0-3.205-1.438-3.205-3.206c0-1.767,1.438-3.205,3.205-3.205
			c1.768,0,3.206,1.438,3.206,3.205C11.183,10.572,9.745,12.01,7.977,12.01z M7.977,6.558c-1.239,0-2.246,1.008-2.246,2.246
			c0,1.239,1.008,2.247,2.246,2.247c1.239,0,2.247-1.008,2.247-2.247C10.224,7.565,9.217,6.558,7.977,6.558z"/>
		<path class="st2" d="M7.978,12.19c-1.866,0-3.385-1.519-3.385-3.385c0-1.866,1.519-3.385,3.385-3.385
			c1.867,0,3.385,1.519,3.385,3.385C11.363,10.671,9.844,12.19,7.978,12.19z M7.978,5.779c-1.668,0-3.025,1.357-3.025,3.025
			c0,1.668,1.357,3.026,3.025,3.026c1.668,0,3.026-1.358,3.026-3.026C11.003,7.136,9.646,5.779,7.978,5.779z M7.978,11.231
			c-1.338,0-2.426-1.089-2.426-2.427c0-1.338,1.088-2.426,2.426-2.426c1.338,0,2.427,1.088,2.427,2.426
			C10.404,10.142,9.315,11.231,7.978,11.231z M7.978,6.738c-1.139,0-2.067,0.927-2.067,2.067c0,1.14,0.927,2.067,2.067,2.067
			c1.14,0,2.067-0.927,2.067-2.067C10.045,7.665,9.117,6.738,7.978,6.738z"/>
	</g>
	<g class="st1">
		<path class="st2" d="M0.66,24.752c-0.147,0-0.291-0.067-0.385-0.193c-0.158-0.213-0.114-0.513,0.099-0.671l12.343-9.178
			c0.17-0.127,0.405-0.126,0.576,0.003l8.286,6.303L33.506,8.473c0.183-0.191,0.485-0.199,0.678-0.017
			c0.191,0.183,0.199,0.486,0.017,0.678L21.977,21.988c-0.168,0.177-0.443,0.199-0.637,0.051l-8.341-6.345L0.945,24.657
			C0.859,24.721,0.759,24.752,0.66,24.752z"/>
		<path class="st2" d="M0.66,24.932c-0.208,0-0.405-0.099-0.529-0.266c-0.217-0.292-0.156-0.705,0.136-0.922l12.343-9.178
			c0.233-0.174,0.558-0.173,0.792,0.004l8.159,6.206L33.376,8.35c0.25-0.262,0.669-0.272,0.932-0.023
			c0.264,0.251,0.274,0.669,0.023,0.932L22.108,22.112c-0.232,0.243-0.61,0.273-0.877,0.07l-8.233-6.263L1.052,24.802
			C0.937,24.887,0.801,24.932,0.66,24.932z M13.001,14.795c-0.063,0-0.125,0.02-0.177,0.059L0.48,24.032
			c-0.133,0.099-0.16,0.287-0.062,0.419c0.095,0.129,0.29,0.158,0.42,0.061l12.053-8.963c0.064-0.048,0.153-0.048,0.216,0.001
			l8.341,6.345c0.122,0.093,0.293,0.079,0.399-0.032L34.071,9.011c0.114-0.119,0.109-0.309-0.011-0.424
			c-0.118-0.113-0.309-0.109-0.424,0.011L21.709,21.14c-0.063,0.067-0.166,0.074-0.239,0.019l-8.286-6.303
			C13.13,14.816,13.065,14.795,13.001,14.795z"/>
	</g>
</g>
<g class="st0">
	<g class="st1">
		<path class="st2" d="M3.236,20.556c-1.685,0-3.056-1.371-3.056-3.056c0-1.685,1.371-3.056,3.056-3.056s3.056,1.371,3.056,3.056
			C6.292,19.185,4.921,20.556,3.236,20.556z M3.236,15.406c-1.155,0-2.094,0.939-2.094,2.094s0.939,2.094,2.094,2.094
			S5.33,18.655,5.33,17.5S4.391,15.406,3.236,15.406z"/>
		<path class="st2" d="M3.236,20.736C1.452,20.736,0,19.284,0,17.5s1.452-3.236,3.236-3.236s3.236,1.451,3.236,3.236
			S5.02,20.736,3.236,20.736z M3.236,14.625c-1.585,0-2.875,1.29-2.875,2.875s1.29,2.875,2.875,2.875s2.875-1.29,2.875-2.875
			S4.821,14.625,3.236,14.625z M3.236,19.774c-1.254,0-2.274-1.02-2.274-2.274s1.02-2.274,2.274-2.274S5.51,16.246,5.51,17.5
			S4.49,19.774,3.236,19.774z M3.236,15.586c-1.055,0-1.914,0.859-1.914,1.914s0.859,1.914,1.914,1.914S5.15,18.555,5.15,17.5
			S4.291,15.586,3.236,15.586z"/>
	</g>
	<g class="st1">
		<path class="st2" d="M31.764,20.556c-1.685,0-3.056-1.371-3.056-3.056c0-1.685,1.371-3.056,3.056-3.056
			c1.685,0,3.055,1.371,3.055,3.056C34.82,19.185,33.449,20.556,31.764,20.556z M31.764,15.406c-1.155,0-2.094,0.939-2.094,2.094
			s0.939,2.094,2.094,2.094c1.155,0,2.094-0.939,2.094-2.094S32.919,15.406,31.764,15.406z"/>
		<path class="st2" d="M31.764,20.736c-1.784,0-3.236-1.452-3.236-3.236s1.452-3.236,3.236-3.236c1.784,0,3.236,1.451,3.236,3.236
			S33.549,20.736,31.764,20.736z M31.764,14.625c-1.585,0-2.875,1.29-2.875,2.875s1.29,2.875,2.875,2.875
			c1.585,0,2.875-1.29,2.875-2.875S33.35,14.625,31.764,14.625z M31.764,19.774c-1.254,0-2.274-1.02-2.274-2.274
			s1.02-2.274,2.274-2.274c1.254,0,2.274,1.02,2.274,2.274S33.018,19.774,31.764,19.774z M31.764,15.586
			c-1.055,0-1.914,0.859-1.914,1.914s0.859,1.914,1.914,1.914c1.055,0,1.914-0.859,1.914-1.914S32.819,15.586,31.764,15.586z"/>
	</g>
	<g class="st1">
		<path class="st2" d="M17.5,20.556c-1.685,0-3.056-1.371-3.056-3.056c0-1.685,1.371-3.056,3.056-3.056
			c1.685,0,3.055,1.371,3.055,3.056C20.556,19.185,19.185,20.556,17.5,20.556z M17.5,15.406c-1.155,0-2.094,0.939-2.094,2.094
			s0.939,2.094,2.094,2.094s2.094-0.939,2.094-2.094S18.655,15.406,17.5,15.406z"/>
		<path class="st2" d="M17.5,20.736c-1.784,0-3.236-1.452-3.236-3.236s1.452-3.236,3.236-3.236s3.236,1.451,3.236,3.236
			S19.284,20.736,17.5,20.736z M17.5,14.625c-1.585,0-2.875,1.29-2.875,2.875s1.29,2.875,2.875,2.875s2.875-1.29,2.875-2.875
			S19.085,14.625,17.5,14.625z M17.5,19.774c-1.254,0-2.274-1.02-2.274-2.274s1.02-2.274,2.274-2.274
			c1.254,0,2.274,1.02,2.274,2.274S18.754,19.774,17.5,19.774z M17.5,15.586c-1.055,0-1.914,0.859-1.914,1.914
			s0.859,1.914,1.914,1.914c1.055,0,1.914-0.859,1.914-1.914S18.555,15.586,17.5,15.586z"/>
	</g>
</g>
<g class="st0">
	<g class="st1">
		<path class="st2" d="M34.37,18.541c-0.117,0-0.234-0.045-0.324-0.134L17.5,1.86L0.953,18.406c-0.179,0.179-0.469,0.179-0.648,0
			c-0.179-0.179-0.179-0.469,0-0.648L17.176,0.888c0.172-0.172,0.476-0.172,0.648,0l16.87,16.871c0.179,0.179,0.179,0.469,0,0.648
			C34.605,18.496,34.487,18.541,34.37,18.541z"/>
		<path class="st2" d="M34.37,18.713c-0.168,0-0.326-0.065-0.445-0.184L17.5,2.103L1.075,18.528c-0.238,0.238-0.653,0.238-0.891,0
			c-0.245-0.246-0.245-0.645,0-0.891L17.054,0.767c0.228-0.227,0.663-0.227,0.891,0l16.87,16.871C34.935,17.756,35,17.915,35,18.083
			c0,0.168-0.065,0.326-0.184,0.445C34.697,18.647,34.538,18.713,34.37,18.713z M17.5,1.688c0.046,0,0.089,0.018,0.122,0.05
			l16.546,16.547c0.107,0.108,0.297,0.108,0.404,0c0.054-0.054,0.084-0.126,0.084-0.202c0-0.077-0.03-0.149-0.084-0.202L17.702,1.01
			c-0.104-0.105-0.301-0.105-0.404,0L0.427,17.881c-0.054,0.054-0.084,0.126-0.084,0.202c0,0.076,0.03,0.148,0.084,0.202
			c0.111,0.112,0.293,0.112,0.404,0L17.378,1.738C17.41,1.706,17.454,1.688,17.5,1.688z"/>
	</g>
	<g class="st1">
		<path class="st2" d="M29.839,34.232h-8.14c-0.253,0-0.458-0.205-0.458-0.458v-11.68h-7.481v11.68c0,0.253-0.205,0.458-0.458,0.458
			h-8.14c-0.253,0-0.458-0.205-0.458-0.458v-19.83c0-0.253,0.205-0.458,0.458-0.458c0.253,0,0.458,0.205,0.458,0.458v19.371h7.224
			V21.637c0-0.253,0.205-0.458,0.458-0.458h8.397c0.253,0,0.458,0.205,0.458,0.458v11.679h7.225V13.945
			c0-0.253,0.205-0.458,0.458-0.458c0.253,0,0.458,0.205,0.458,0.458v19.83C30.297,34.027,30.092,34.232,29.839,34.232z"/>
		<path class="st2" d="M29.839,34.404h-8.141c-0.347,0-0.63-0.283-0.63-0.63V22.266h-7.137v11.508c0,0.347-0.283,0.63-0.63,0.63
			h-8.14c-0.347,0-0.63-0.283-0.63-0.63v-19.83c0-0.347,0.283-0.63,0.63-0.63s0.63,0.283,0.63,0.63v19.2h6.881V21.637
			c0-0.347,0.283-0.63,0.63-0.63h8.397c0.347,0,0.63,0.283,0.63,0.63v11.508h6.881v-19.2c0-0.347,0.283-0.63,0.63-0.63
			s0.63,0.283,0.63,0.63v19.83C30.468,34.121,30.186,34.404,29.839,34.404z M13.759,21.923h7.481c0.095,0,0.172,0.077,0.172,0.172
			v11.68c0,0.158,0.128,0.286,0.286,0.286h8.141c0.158,0,0.286-0.128,0.286-0.286v-19.83c0-0.158-0.128-0.286-0.286-0.286
			c-0.158,0-0.286,0.128-0.286,0.286v19.371c0,0.095-0.077,0.172-0.172,0.172h-7.224c-0.095,0-0.172-0.077-0.172-0.172V21.637
			c0-0.158-0.128-0.286-0.286-0.286h-8.397c-0.158,0-0.286,0.128-0.286,0.286v11.679c0,0.095-0.077,0.172-0.172,0.172H5.619
			c-0.095,0-0.172-0.077-0.172-0.172V13.945c0-0.158-0.128-0.286-0.286-0.286c-0.158,0-0.286,0.128-0.286,0.286v19.83
			c0,0.158,0.128,0.286,0.286,0.286h8.14c0.158,0,0.286-0.128,0.286-0.286v-11.68C13.588,22,13.665,21.923,13.759,21.923z"/>
	</g>
</g>
<g>
	<g>
		<path class="st4" d="M17.222,30.803c-0.636,0-1.273-0.028-1.905-0.086l-8.394-0.759L1.974,29.96c-0.491,0-0.967-0.204-1.306-0.56
			c-0.343-0.361-0.518-0.834-0.492-1.333c0.05-0.953,0.873-1.7,1.874-1.7h0.929c1.941,0,3.52-1.576,3.52-3.513v-9.316
			C6.5,7.64,11.31,2.84,17.222,2.84c5.912,0,10.722,4.799,10.722,10.699v9.316c0,1.937,1.579,3.513,3.521,3.513h1.465
			c0.907,0,1.702,0.636,1.848,1.478c0.092,0.53-0.051,1.067-0.394,1.474c-0.344,0.407-0.846,0.641-1.379,0.641h-5.526l-8.353,0.757
			C18.495,30.774,17.858,30.803,17.222,30.803z M2.05,27.295c-0.498,0-0.922,0.368-0.945,0.822
			c-0.013,0.242,0.072,0.471,0.238,0.646c0.166,0.175,0.39,0.271,0.631,0.271h4.99l8.436,0.76c1.208,0.11,2.434,0.11,3.643,0
			l8.394-0.759l5.568-0.002c0.258,0,0.501-0.113,0.667-0.31c0.168-0.2,0.235-0.455,0.19-0.718c-0.07-0.405-0.471-0.71-0.933-0.71
			h-1.465c-2.454,0-4.45-1.992-4.45-4.44v-9.316c0-5.388-4.393-9.771-9.793-9.771c-5.4,0-9.793,4.383-9.793,9.771v9.316
			c0,2.448-1.996,4.44-4.45,4.44H2.05z"/>
		<path class="st4" d="M17.222,30.977c-0.64,0-1.286-0.029-1.921-0.087l-8.394-0.759l-4.933,0.003c-0.539,0-1.061-0.224-1.432-0.614
			c-0.376-0.396-0.568-0.915-0.539-1.461c0.054-1.046,0.954-1.865,2.047-1.865h0.929c1.845,0,3.346-1.498,3.346-3.339v-9.316
			c0-5.995,4.889-10.873,10.897-10.873c6.008,0,10.896,4.878,10.896,10.873v9.316c0,1.841,1.501,3.339,3.347,3.339h1.465
			c0.99,0,1.859,0.698,2.02,1.623c0.101,0.581-0.057,1.17-0.432,1.615c-0.377,0.446-0.927,0.703-1.512,0.703h-5.526l-8.337,0.756
			C18.508,30.948,17.862,30.977,17.222,30.977z M6.922,29.785l8.41,0.76c1.248,0.112,2.53,0.112,3.778,0l8.352-0.757l5.542-0.001
			c0.481,0,0.935-0.211,1.245-0.579c0.31-0.367,0.439-0.852,0.356-1.332c-0.132-0.761-0.853-1.335-1.677-1.335h-1.465
			c-2.038,0-3.695-1.654-3.695-3.687v-9.316c0-5.803-4.732-10.525-10.548-10.525c-5.816,0-10.548,4.721-10.548,10.525v9.316
			c0,2.033-1.657,3.687-3.695,3.687H2.05c-0.908,0-1.654,0.674-1.7,1.536c-0.023,0.45,0.135,0.878,0.445,1.204
			c0.305,0.321,0.735,0.505,1.179,0.505L6.922,29.785z M17.222,30.05c-0.614,0-1.228-0.028-1.837-0.083l-8.436-0.761l-4.974,0.001
			c-0.29,0-0.559-0.115-0.758-0.325c-0.199-0.21-0.3-0.485-0.285-0.775c0.028-0.544,0.53-0.987,1.119-0.987h0.929
			c2.358,0,4.276-1.914,4.276-4.266v-9.316c0-5.484,4.471-9.946,9.967-9.946s9.967,4.462,9.967,9.946v9.316
			c0,2.352,1.918,4.266,4.276,4.266h1.465c0.545,0,1.02,0.367,1.104,0.854c0.055,0.315-0.026,0.621-0.228,0.86
			c-0.2,0.237-0.491,0.372-0.801,0.372l-5.568,0.002l-8.378,0.758C18.449,30.022,17.835,30.05,17.222,30.05z M2.05,27.468
			c-0.407,0-0.752,0.295-0.771,0.657c-0.01,0.194,0.058,0.377,0.191,0.517c0.132,0.14,0.312,0.217,0.505,0.217h4.99l8.452,0.762
			c1.197,0.109,2.412,0.109,3.611,0l8.394-0.759l5.583-0.003c0.207,0,0.401-0.091,0.534-0.248c0.135-0.16,0.188-0.364,0.151-0.577
			c-0.056-0.323-0.383-0.566-0.761-0.566h-1.465c-2.55,0-4.624-2.07-4.624-4.614v-9.316c0-5.292-4.315-9.598-9.618-9.598
			c-5.304,0-9.619,4.305-9.619,9.598v9.316c0,2.544-2.074,4.614-4.624,4.614H2.05z"/>
	</g>
	<g>
		<path class="st4" d="M17.222,34.246c-2.089,0-3.788-1.696-3.788-3.78c0-0.256,0.208-0.463,0.465-0.463
			c0.257,0,0.465,0.207,0.465,0.463c0,1.573,1.283,2.853,2.859,2.853s2.859-1.28,2.859-2.853c0-0.256,0.208-0.463,0.464-0.463
			c0.257,0,0.465,0.207,0.465,0.463C21.01,32.55,19.311,34.246,17.222,34.246z"/>
		<path class="st4" d="M17.222,34.42c-2.185,0-3.962-1.774-3.962-3.954c0-0.351,0.287-0.637,0.639-0.637s0.639,0.286,0.639,0.637
			c0,1.477,1.204,2.679,2.685,2.679c1.48,0,2.685-1.202,2.685-2.679c0-0.351,0.287-0.637,0.639-0.637
			c0.352,0,0.639,0.286,0.639,0.637C21.184,32.646,19.407,34.42,17.222,34.42z M13.899,30.176c-0.16,0-0.29,0.13-0.29,0.29
			c0,1.988,1.621,3.606,3.614,3.606c1.993,0,3.614-1.618,3.614-3.606c0-0.16-0.13-0.29-0.29-0.29c-0.16,0-0.29,0.13-0.29,0.29
			c0,1.669-1.361,3.027-3.033,3.027s-3.033-1.358-3.033-3.027C14.189,30.306,14.059,30.176,13.899,30.176z"/>
	</g>
	<g>
		<path class="st4" d="M17.222,7.438c-0.257,0-0.464-0.208-0.464-0.464V1.218c0-0.256,0.208-0.463,0.464-0.463
			c0.257,0,0.465,0.207,0.465,0.463v5.756C17.687,7.23,17.479,7.438,17.222,7.438z"/>
		<path class="st4" d="M17.222,7.612c-0.352,0-0.639-0.286-0.639-0.638V1.218c0-0.351,0.287-0.637,0.639-0.637
			c0.352,0,0.639,0.286,0.639,0.637v5.756C17.861,7.325,17.574,7.612,17.222,7.612z M17.222,0.928c-0.16,0-0.29,0.13-0.29,0.29
			v5.756c0,0.16,0.13,0.29,0.29,0.29c0.16,0,0.29-0.13,0.29-0.29V1.218C17.512,1.058,17.382,0.928,17.222,0.928z"/>
	</g>
</g>
<g class="st0">
	<g class="st1">
		<path class="st4" d="M15.625,26.105c-6.968,0-12.637-5.657-12.637-12.61c0-6.953,5.669-12.61,12.637-12.61
			c6.969,0,12.637,5.657,12.637,12.61C28.263,20.448,22.594,26.105,15.625,26.105z M15.625,1.788
			c-6.469,0-11.733,5.252-11.733,11.707c0,6.456,5.263,11.707,11.733,11.707c6.47,0,11.733-5.252,11.733-11.707
			C27.359,7.04,22.095,1.788,15.625,1.788z"/>
		<path class="st4" d="M15.625,26.275c-7.061,0-12.807-5.732-12.807-12.779c0-7.046,5.745-12.779,12.807-12.779
			c7.062,0,12.807,5.732,12.807,12.779C28.432,20.542,22.687,26.275,15.625,26.275z M15.625,1.055
			c-6.875,0-12.468,5.581-12.468,12.441c0,6.86,5.593,12.441,12.468,12.441c6.875,0,12.468-5.581,12.468-12.441
			C28.093,6.636,22.5,1.055,15.625,1.055z M15.625,25.372c-6.563,0-11.903-5.328-11.903-11.877c0-6.549,5.339-11.877,11.903-11.877
			c6.563,0,11.903,5.328,11.903,11.877C27.528,20.044,22.188,25.372,15.625,25.372z M15.625,1.957
			c-6.376,0-11.563,5.176-11.563,11.538s5.187,11.538,11.563,11.538c6.376,0,11.564-5.176,11.564-11.538S22.001,1.957,15.625,1.957z
			"/>
	</g>
	<g class="st1">
		<path class="st4" d="M31.54,34.114c-0.128,0-0.255-0.054-0.344-0.159l-8.788-10.308c-0.162-0.19-0.139-0.474,0.051-0.636
			c0.19-0.161,0.475-0.139,0.638,0.051l8.788,10.308c0.162,0.19,0.139,0.474-0.051,0.636C31.748,34.079,31.644,34.114,31.54,34.114z
			"/>
		<path class="st4" d="M31.54,34.283c-0.182,0-0.355-0.079-0.473-0.218l-8.788-10.308c-0.222-0.26-0.19-0.653,0.07-0.874
			c0.261-0.22,0.654-0.189,0.876,0.071l8.788,10.308c0.222,0.261,0.19,0.653-0.07,0.874C31.83,34.231,31.687,34.283,31.54,34.283z
			 M22.751,23.074c-0.065,0-0.13,0.022-0.183,0.067c-0.118,0.101-0.132,0.279-0.031,0.397l8.788,10.308
			c0.098,0.114,0.284,0.129,0.399,0.032c0.118-0.1,0.133-0.278,0.032-0.397l-8.788-10.308
			C22.911,23.107,22.832,23.074,22.751,23.074z"/>
	</g>
</g>
</svg>
