<?xml version="1.0" encoding="utf-8"?>
<!-- Generator: Adobe Illustrator 27.3.1, SVG Export Plug-In . SVG Version: 6.00 Build 0)  -->
<svg version="1.1" id="Layer_1" xmlns="http://www.w3.org/2000/svg" xmlns:xlink="http://www.w3.org/1999/xlink" x="0px" y="0px"
	 width="35px" height="35px" viewBox="0 0 35 35" style="enable-background:new 0 0 35 35;" xml:space="preserve">
<style type="text/css">
	.st0{display:none;}
	.st1{display:inline;}
	.st2{fill:#2C5696;}
	.st3{display:inline;fill:#2C5696;}
</style>
<g class="st0">
	<g class="st1">
		<g>
			<path class="st2" d="M34.359,34.635H0.649c-0.261,0-0.472-0.211-0.472-0.472V4.475c0-0.261,0.211-0.472,0.472-0.472h33.71
				c0.261,0,0.472,0.212,0.472,0.472v29.688C34.831,34.424,34.62,34.635,34.359,34.635z M1.121,33.691h32.766V4.947H1.121V33.691z"
				/>
		</g>
		<g>
			<path class="st2" d="M34.359,34.813H0.649C0.292,34.813,0,34.521,0,34.163V4.475c0-0.358,0.292-0.649,0.649-0.649h33.71
				c0.358,0,0.649,0.292,0.649,0.649v29.688C35.008,34.521,34.717,34.813,34.359,34.813z M0.649,4.18
				c-0.163,0-0.295,0.132-0.295,0.295v29.688c0,0.163,0.132,0.295,0.295,0.295h33.71c0.163,0,0.295-0.132,0.295-0.295V4.475
				c0-0.163-0.132-0.295-0.295-0.295H0.649z M33.887,33.868H1.121c-0.098,0-0.177-0.079-0.177-0.177V4.947
				c0-0.098,0.079-0.177,0.177-0.177h32.765c0.098,0,0.177,0.079,0.177,0.177v28.744C34.064,33.789,33.985,33.868,33.887,33.868z
				 M1.299,33.514H33.71V5.124H1.299V33.514z"/>
		</g>
	</g>
	<g class="st1">
		<g>
			<path class="st2" d="M26.041,7.486c-0.261,0-0.472-0.211-0.472-0.472V0.875c0-0.261,0.211-0.472,0.472-0.472
				c0.261,0,0.472,0.211,0.472,0.472v6.139C26.513,7.274,26.302,7.486,26.041,7.486z"/>
		</g>
		<g>
			<path class="st2" d="M26.041,7.663c-0.358,0-0.649-0.292-0.649-0.649V0.875c0-0.358,0.291-0.649,0.649-0.649
				c0.358,0,0.649,0.291,0.649,0.649v6.139C26.691,7.371,26.399,7.663,26.041,7.663z M26.041,0.579
				c-0.163,0-0.295,0.132-0.295,0.295v6.139c0,0.163,0.132,0.295,0.295,0.295c0.163,0,0.295-0.132,0.295-0.295V0.875
				C26.337,0.712,26.204,0.579,26.041,0.579z"/>
		</g>
	</g>
	<g class="st1">
		<g>
			<path class="st2" d="M8.726,7.486c-0.261,0-0.472-0.211-0.472-0.472V0.875c0-0.261,0.211-0.472,0.472-0.472
				c0.261,0,0.472,0.211,0.472,0.472v6.139C9.198,7.274,8.987,7.486,8.726,7.486z"/>
		</g>
		<g>
			<path class="st2" d="M8.726,7.663c-0.358,0-0.649-0.292-0.649-0.649V0.875c0-0.358,0.291-0.649,0.649-0.649
				c0.358,0,0.649,0.291,0.649,0.649v6.139C9.376,7.371,9.084,7.663,8.726,7.663z M8.726,0.579c-0.163,0-0.295,0.132-0.295,0.295
				v6.139c0,0.163,0.132,0.295,0.295,0.295c0.163,0,0.295-0.132,0.295-0.295V0.875C9.021,0.712,8.889,0.579,8.726,0.579z"/>
		</g>
	</g>
	<g class="st1">
		<g>
			<g>
				<path class="st2" d="M9.155,25.811V25.14c0.214-0.186,0.534-0.462,0.958-0.825c0.424-0.364,0.748-0.644,0.972-0.839
					c0.224-0.196,0.515-0.459,0.874-0.79c0.359-0.331,0.639-0.606,0.839-0.825c0.201-0.219,0.424-0.48,0.671-0.783
					c0.247-0.303,0.436-0.576,0.566-0.818c0.298-0.588,0.447-1.163,0.447-1.728c0-0.564-0.167-1.044-0.503-1.44
					c-0.336-0.396-0.867-0.594-1.595-0.594s-1.284,0.219-1.671,0.657c-0.387,0.439-0.599,1.012-0.636,1.72H9.155
					c0.046-1.025,0.359-1.818,0.937-2.377c0.578-0.559,1.326-0.839,2.244-0.839c0.918,0,1.662,0.259,2.231,0.776
					c0.569,0.517,0.853,1.247,0.853,2.189c0,0.41-0.084,0.837-0.252,1.279c-0.167,0.443-0.359,0.83-0.573,1.161
					c-0.214,0.331-0.522,0.713-0.923,1.147c-0.401,0.433-0.725,0.765-0.972,0.993c-0.247,0.228-0.608,0.55-1.084,0.965
					c-0.475,0.415-0.778,0.683-0.909,0.804h5.049v0.839H9.155z"/>
			</g>
			<g>
				<path class="st2" d="M15.756,25.988H9.155c-0.098,0-0.177-0.079-0.177-0.177V25.14c0-0.051,0.022-0.1,0.061-0.134
					c0.215-0.186,0.534-0.462,0.959-0.826c0.424-0.363,0.748-0.643,0.971-0.838c0.223-0.195,0.513-0.457,0.871-0.787
					c0.35-0.322,0.629-0.596,0.829-0.814c0.199-0.217,0.42-0.476,0.665-0.776c0.24-0.294,0.424-0.56,0.548-0.79
					c0.282-0.556,0.426-1.11,0.426-1.644c0-0.526-0.151-0.96-0.461-1.326c-0.299-0.353-0.79-0.532-1.459-0.532
					c-0.68,0-1.183,0.195-1.538,0.597c-0.358,0.406-0.557,0.948-0.592,1.612c-0.005,0.094-0.083,0.168-0.177,0.168H9.155
					c-0.048,0-0.095-0.02-0.128-0.055c-0.033-0.035-0.051-0.082-0.049-0.13c0.049-1.067,0.382-1.908,0.991-2.497
					c0.609-0.59,1.406-0.889,2.368-0.889c0.96,0,1.75,0.277,2.35,0.822c0.605,0.55,0.911,1.331,0.911,2.32
					c0,0.43-0.088,0.881-0.263,1.342c-0.17,0.451-0.369,0.853-0.59,1.195c-0.22,0.339-0.536,0.732-0.942,1.17
					c-0.4,0.432-0.73,0.77-0.981,1.003c-0.248,0.229-0.61,0.552-1.088,0.968c-0.227,0.198-0.415,0.362-0.563,0.493h4.586
					c0.098,0,0.177,0.079,0.177,0.177v0.839C15.933,25.909,15.854,25.988,15.756,25.988z M9.332,25.634h6.247V25.15h-4.871
					c-0.073,0-0.138-0.045-0.165-0.113c-0.027-0.068-0.009-0.145,0.044-0.194c0.131-0.122,0.435-0.391,0.913-0.808
					c0.474-0.413,0.834-0.734,1.08-0.961c0.245-0.226,0.568-0.558,0.962-0.984c0.392-0.423,0.696-0.801,0.905-1.123
					c0.208-0.32,0.394-0.699,0.556-1.127c0.159-0.421,0.24-0.83,0.24-1.217c0-0.885-0.267-1.578-0.795-2.058
					c-0.533-0.484-1.243-0.73-2.112-0.73c-0.867,0-1.58,0.266-2.121,0.79c-0.507,0.491-0.8,1.187-0.872,2.073h0.57
					c0.062-0.67,0.287-1.229,0.668-1.66c0.42-0.476,1.027-0.717,1.804-0.717c0.778,0,1.36,0.221,1.73,0.657
					c0.362,0.426,0.545,0.949,0.545,1.554c0,0.59-0.157,1.198-0.467,1.808c-0.136,0.253-0.333,0.538-0.587,0.849
					c-0.25,0.306-0.478,0.572-0.678,0.791c-0.207,0.226-0.492,0.507-0.85,0.836c-0.36,0.332-0.652,0.596-0.877,0.793
					c-0.224,0.196-0.549,0.476-0.973,0.84c-0.386,0.33-0.684,0.587-0.896,0.771V25.634z"/>
			</g>
		</g>
		<g>
			<g>
				<path class="st2" d="M19.378,16.169c0.597-0.443,1.348-0.664,2.252-0.664c0.904,0,1.625,0.244,2.161,0.734
					c0.536,0.489,0.804,1.112,0.804,1.867c0,0.532-0.156,1.007-0.468,1.427c-0.312,0.42-0.73,0.708-1.252,0.867v0.07
					c0.597,0.149,1.063,0.461,1.399,0.937c0.336,0.476,0.504,1.095,0.504,1.86c0,0.765-0.276,1.412-0.826,1.944
					c-0.55,0.532-1.312,0.797-2.286,0.797c-0.974,0-1.769-0.245-2.385-0.734c-0.615-0.49-0.97-1.172-1.063-2.049h0.909
					c0.065,0.559,0.319,1.023,0.762,1.392c0.443,0.368,1.026,0.552,1.748,0.552c0.723,0,1.277-0.191,1.664-0.573
					c0.387-0.382,0.581-0.881,0.581-1.496c0-0.811-0.259-1.387-0.776-1.727c-0.518-0.34-1.294-0.51-2.329-0.51h-0.308v-0.825h0.321
					c1.93-0.009,2.895-0.62,2.895-1.832c0-0.568-0.182-1.021-0.546-1.357c-0.363-0.336-0.879-0.504-1.545-0.504
					c-0.666,0-1.198,0.143-1.594,0.426c-0.396,0.285-0.636,0.692-0.72,1.224h-0.937C18.436,17.22,18.781,16.612,19.378,16.169z"/>
			</g>
			<g>
				<path class="st2" d="M21.665,26.184c-1.01,0-1.85-0.26-2.495-0.772c-0.651-0.519-1.031-1.248-1.129-2.169
					c-0.005-0.05,0.011-0.1,0.044-0.137c0.034-0.037,0.082-0.059,0.132-0.059h0.909c0.09,0,0.166,0.067,0.176,0.157
					c0.06,0.517,0.289,0.934,0.699,1.276c0.408,0.339,0.958,0.511,1.635,0.511c0.671,0,1.189-0.176,1.54-0.522
					c0.355-0.351,0.528-0.799,0.528-1.37c0-0.754-0.228-1.271-0.696-1.579c-0.486-0.32-1.237-0.481-2.231-0.481h-0.308
					c-0.098,0-0.177-0.079-0.177-0.177v-0.825c0-0.098,0.079-0.177,0.177-0.177h0.321c1.829-0.009,2.718-0.55,2.718-1.655
					c0-0.522-0.16-0.923-0.488-1.227c-0.328-0.303-0.807-0.456-1.425-0.456c-0.625,0-1.127,0.132-1.491,0.393
					c-0.36,0.258-0.572,0.62-0.649,1.108c-0.014,0.086-0.088,0.149-0.175,0.149h-0.937c-0.051,0-0.099-0.022-0.132-0.059
					c-0.034-0.038-0.049-0.088-0.043-0.139c0.099-0.82,0.47-1.475,1.105-1.946l0,0c0.625-0.464,1.419-0.699,2.358-0.699
					c0.946,0,1.713,0.263,2.28,0.78c0.571,0.522,0.861,1.194,0.861,1.998c0,0.569-0.169,1.084-0.504,1.532
					c-0.254,0.342-0.576,0.605-0.962,0.785c0.457,0.185,0.83,0.481,1.112,0.881c0.356,0.504,0.536,1.163,0.536,1.962
					c0,0.811-0.296,1.508-0.879,2.071C23.492,25.899,22.682,26.184,21.665,26.184z M18.419,23.401
					c0.117,0.738,0.435,1.307,0.971,1.734c0.581,0.461,1.346,0.695,2.274,0.695c0.922,0,1.65-0.251,2.163-0.747
					c0.519-0.501,0.771-1.096,0.771-1.817c0-0.723-0.159-1.315-0.471-1.758c-0.313-0.444-0.737-0.728-1.297-0.867
					c-0.079-0.02-0.134-0.091-0.134-0.172v-0.07c0-0.078,0.051-0.147,0.126-0.169c0.483-0.147,0.874-0.417,1.161-0.803
					c0.292-0.391,0.434-0.824,0.434-1.321c0-0.71-0.244-1.278-0.746-1.736c-0.5-0.457-1.187-0.688-2.041-0.688
					c-0.861,0-1.584,0.212-2.146,0.629l0,0c-0.509,0.378-0.816,0.872-0.934,1.506h0.584c0.111-0.506,0.368-0.907,0.764-1.191
					c0.426-0.305,0.997-0.46,1.698-0.46c0.71,0,1.27,0.185,1.666,0.551c0.399,0.369,0.602,0.869,0.602,1.487
					c0,1.323-1.034,2-3.071,2.009h-0.145v0.471h0.131c1.065,0,1.881,0.182,2.426,0.54c0.568,0.374,0.856,1.004,0.856,1.875
					c0,0.661-0.213,1.207-0.633,1.622c-0.419,0.414-1.021,0.624-1.789,0.624c-0.762,0-1.388-0.2-1.861-0.593
					c-0.435-0.362-0.704-0.816-0.801-1.351H18.419z"/>
			</g>
		</g>
	</g>
	<g class="st1">
		<g>
			<path class="st2" d="M34.359,9.611H0.991c-0.261,0-0.472-0.212-0.472-0.472S0.73,8.666,0.991,8.666h33.368
				c0.261,0,0.472,0.212,0.472,0.472S34.62,9.611,34.359,9.611z"/>
		</g>
		<g>
			<path class="st2" d="M34.359,9.788H0.992c-0.358,0-0.649-0.291-0.649-0.649s0.292-0.649,0.649-0.649h33.368
				c0.358,0,0.649,0.292,0.649,0.649S34.717,9.788,34.359,9.788z M0.992,8.843c-0.163,0-0.295,0.132-0.295,0.295
				c0,0.163,0.132,0.295,0.295,0.295h33.368c0.163,0,0.295-0.132,0.295-0.295c0-0.163-0.132-0.295-0.295-0.295H0.992z"/>
		</g>
	</g>
</g>
<g>
	<g>
		<g>
			<path class="st2" d="M19.346,34.819h-3.693c-0.715,0-1.297-0.582-1.297-1.298v-1.574c0-0.751-0.483-1.421-1.202-1.667
				c-0.561-0.192-1.116-0.424-1.648-0.689c-0.658-0.328-1.445-0.203-1.96,0.312l-1.15,1.15c-0.49,0.491-1.346,0.49-1.834,0
				L3.95,28.442c-0.506-0.506-0.506-1.329,0-1.835l1.165-1.165c0.512-0.512,0.639-1.298,0.314-1.954
				c-0.263-0.533-0.493-1.088-0.682-1.649c-0.241-0.713-0.903-1.192-1.647-1.192H1.482c-0.715,0-1.297-0.582-1.297-1.298v-3.693
				c0-0.715,0.582-1.297,1.297-1.297H3.13c0.741,0,1.402-0.476,1.646-1.184c0.189-0.551,0.418-1.096,0.679-1.621
				c0.328-0.659,0.204-1.448-0.311-1.962L3.95,8.4C3.705,8.155,3.57,7.829,3.57,7.482c0-0.347,0.135-0.672,0.38-0.918l2.612-2.611
				c0.489-0.489,1.344-0.491,1.834,0l1.208,1.209c0.512,0.512,1.298,0.639,1.956,0.314c0.525-0.259,1.071-0.485,1.622-0.672
				c0.702-0.238,1.174-0.892,1.174-1.626V1.485c0-0.715,0.582-1.297,1.297-1.297h3.693c0.716,0,1.298,0.582,1.298,1.297v1.693
				c0,0.734,0.472,1.387,1.174,1.626c0.552,0.187,1.097,0.413,1.621,0.672c0.658,0.325,1.444,0.198,1.956-0.313l1.208-1.209
				c0.505-0.505,1.328-0.506,1.835,0l2.611,2.612c0.245,0.245,0.38,0.571,0.38,0.917c0,0.347-0.135,0.672-0.38,0.917l-1.193,1.194
				c-0.514,0.514-0.639,1.303-0.31,1.962c0.261,0.523,0.489,1.069,0.679,1.621c0.244,0.708,0.905,1.184,1.645,1.184h1.649
				c0.715,0,1.297,0.582,1.297,1.297v3.693c0,0.715-0.582,1.298-1.297,1.298H31.9c-0.744,0-1.407,0.479-1.647,1.192
				c-0.19,0.562-0.419,1.116-0.682,1.649c-0.324,0.656-0.198,1.442,0.314,1.954l1.165,1.165c0.506,0.506,0.506,1.329,0,1.835
				l-2.611,2.611c-0.506,0.505-1.328,0.506-1.835,0l-1.15-1.15c-0.515-0.515-1.302-0.639-1.96-0.312
				c-0.532,0.266-1.087,0.498-1.648,0.689c-0.719,0.246-1.202,0.915-1.202,1.667v1.574C20.644,34.237,20.062,34.819,19.346,34.819z
				 M10.739,28.442c0.407,0,0.817,0.093,1.199,0.284c0.494,0.247,1.009,0.462,1.529,0.639c1.11,0.379,1.856,1.417,1.856,2.582v1.574
				c0,0.182,0.148,0.33,0.33,0.33h3.693c0.182,0,0.33-0.148,0.33-0.33v-1.574c0-1.165,0.746-2.203,1.856-2.582
				c0.521-0.178,1.035-0.393,1.529-0.639c1.03-0.515,2.266-0.316,3.076,0.493l1.15,1.15c0.128,0.129,0.339,0.128,0.467,0
				l2.611-2.611c0.062-0.062,0.097-0.145,0.097-0.234c0-0.088-0.035-0.171-0.097-0.233l-1.165-1.165
				c-0.806-0.806-1.006-2.038-0.497-3.067c0.244-0.494,0.457-1.008,0.633-1.529c0.374-1.107,1.404-1.85,2.564-1.85h1.618
				c0.182,0,0.33-0.148,0.33-0.33v-3.693c0-0.182-0.148-0.33-0.33-0.33h-1.649c-1.153,0-2.182-0.738-2.56-1.836
				c-0.176-0.512-0.388-1.018-0.63-1.504c-0.514-1.032-0.317-2.269,0.492-3.077l1.193-1.194c0.062-0.062,0.097-0.145,0.097-0.233
				c0-0.088-0.035-0.171-0.097-0.233l-2.611-2.612c-0.129-0.129-0.339-0.128-0.467,0l-1.208,1.208
				c-0.805,0.806-2.038,1.006-3.068,0.497c-0.487-0.24-0.993-0.45-1.504-0.624c-1.095-0.371-1.831-1.393-1.831-2.542V1.485
				c0-0.182-0.148-0.33-0.33-0.33h-3.693c-0.182,0-0.33,0.148-0.33,0.33v1.693c0,1.149-0.735,2.17-1.83,2.542
				c-0.512,0.173-1.018,0.383-1.505,0.624c-1.028,0.508-2.262,0.309-3.068-0.497L7.712,4.637c-0.125-0.125-0.342-0.125-0.467,0
				L4.634,7.249C4.572,7.311,4.537,7.394,4.537,7.482c0,0.088,0.035,0.171,0.097,0.233l1.194,1.194
				c0.809,0.809,1.006,2.045,0.492,3.078c-0.242,0.486-0.454,0.993-0.63,1.504c-0.378,1.099-1.407,1.837-2.56,1.837H1.482
				c-0.182,0-0.33,0.148-0.33,0.33v3.693c0,0.182,0.148,0.33,0.33,0.33H3.1c1.16,0,2.19,0.744,2.564,1.85
				c0.176,0.521,0.389,1.036,0.633,1.53c0.508,1.028,0.309,2.26-0.497,3.066l-1.165,1.165c-0.062,0.062-0.097,0.145-0.097,0.233
				c0,0.088,0.035,0.171,0.097,0.234l2.612,2.611c0.125,0.125,0.342,0.125,0.467,0l1.15-1.15
				C9.371,28.71,10.05,28.442,10.739,28.442z"/>
		</g>
		<g>
			<path class="st2" d="M19.346,35h-3.692c-0.815,0-1.479-0.663-1.479-1.479v-1.574c0-0.673-0.434-1.274-1.079-1.495
				c-0.571-0.195-1.133-0.43-1.671-0.699c-0.588-0.293-1.291-0.181-1.751,0.277l-1.149,1.15c-0.267,0.267-0.649,0.421-1.046,0.421h0
				c-0.397-0.001-0.778-0.154-1.045-0.421L3.822,28.57c-0.576-0.577-0.576-1.515,0-2.091l1.165-1.165
				c0.458-0.457,0.57-1.158,0.28-1.745c-0.267-0.542-0.5-1.104-0.691-1.671c-0.216-0.64-0.809-1.069-1.476-1.069H1.482
				c-0.815,0-1.478-0.664-1.478-1.479v-3.693c0-0.815,0.663-1.478,1.478-1.478H3.13c0.663,0,1.255-0.426,1.474-1.061
				c0.191-0.558,0.423-1.111,0.688-1.643c0.294-0.589,0.182-1.294-0.277-1.753L3.822,8.528c-0.279-0.279-0.433-0.65-0.433-1.046
				c0-0.395,0.154-0.766,0.433-1.046l2.612-2.612c0.267-0.267,0.648-0.42,1.045-0.42h0c0.397,0,0.778,0.154,1.046,0.42l1.208,1.209
				c0.457,0.457,1.16,0.57,1.747,0.279c0.532-0.263,1.085-0.492,1.644-0.682c0.628-0.213,1.05-0.798,1.05-1.454V1.485
				c0-0.815,0.664-1.479,1.479-1.479h3.692c0.815,0,1.479,0.664,1.479,1.479v1.693c0,0.656,0.422,1.24,1.051,1.454
				c0.559,0.19,1.111,0.419,1.644,0.682c0.588,0.289,1.29,0.178,1.747-0.279l1.208-1.209c0.576-0.576,1.514-0.577,2.091-0.001
				l2.612,2.612c0.279,0.28,0.433,0.651,0.433,1.046c0,0.395-0.154,0.767-0.433,1.046l-1.194,1.193
				c-0.46,0.459-0.57,1.163-0.276,1.753c0.265,0.532,0.496,1.085,0.688,1.642c0.219,0.635,0.811,1.061,1.474,1.061h1.649
				c0.815,0,1.479,0.663,1.479,1.478v3.693c0,0.815-0.663,1.479-1.479,1.479H31.9c-0.667,0-1.26,0.429-1.475,1.069
				c-0.192,0.569-0.425,1.132-0.692,1.671c-0.29,0.587-0.178,1.288,0.28,1.745l1.165,1.165c0.576,0.577,0.576,1.515,0,2.091
				l-2.611,2.611c-0.577,0.575-1.515,0.575-2.091,0l-1.15-1.151c-0.458-0.458-1.161-0.57-1.751-0.277
				c-0.538,0.269-1.1,0.504-1.671,0.699c-0.645,0.221-1.079,0.821-1.079,1.495v1.574C20.825,34.337,20.161,35,19.346,35z
				 M10.739,29.229c0.287,0,0.577,0.066,0.847,0.2c0.524,0.262,1.071,0.491,1.626,0.681c0.792,0.271,1.324,1.009,1.324,1.838v1.574
				c0,0.615,0.501,1.116,1.116,1.116h3.692c0.615,0,1.116-0.501,1.116-1.116v-1.574c0-0.829,0.532-1.567,1.324-1.838
				c0.555-0.19,1.102-0.419,1.626-0.681c0.73-0.361,1.601-0.223,2.169,0.345l1.15,1.15c0.434,0.434,1.143,0.434,1.578,0l2.611-2.612
				c0.435-0.435,0.435-1.143,0-1.578l-1.165-1.165c-0.567-0.568-0.707-1.437-0.348-2.163c0.259-0.525,0.486-1.073,0.672-1.627
				c0.266-0.787,0.997-1.315,1.819-1.315h1.618c0.615,0,1.116-0.501,1.116-1.116v-3.693c0-0.615-0.501-1.116-1.116-1.116h-1.649
				c-0.818,0-1.548-0.525-1.817-1.306c-0.186-0.543-0.412-1.081-0.67-1.599c-0.364-0.729-0.225-1.602,0.345-2.171l1.193-1.193
				c0.211-0.211,0.327-0.491,0.327-0.789c0-0.298-0.116-0.578-0.327-0.789L28.31,4.082c-0.435-0.435-1.143-0.435-1.578,0
				L25.524,5.29c-0.568,0.568-1.437,0.707-2.165,0.348c-0.518-0.255-1.056-0.478-1.599-0.663c-0.776-0.264-1.298-0.986-1.298-1.798
				V1.485c0-0.615-0.501-1.116-1.116-1.116h-3.692c-0.615,0-1.116,0.5-1.116,1.116v1.693c0,0.811-0.521,1.534-1.296,1.798
				c-0.544,0.184-1.083,0.407-1.6,0.663c-0.727,0.36-1.597,0.22-2.165-0.348L8.268,4.081C8.068,3.882,7.781,3.767,7.479,3.767h0
				c-0.302,0-0.589,0.115-0.788,0.314L4.079,6.693C3.868,6.904,3.751,7.184,3.751,7.482c0,0.298,0.116,0.579,0.327,0.789
				l1.194,1.194c0.569,0.57,0.708,1.442,0.345,2.171c-0.258,0.518-0.484,1.056-0.67,1.599c-0.269,0.781-0.999,1.306-1.817,1.306
				H1.482c-0.615,0-1.116,0.501-1.116,1.116v3.693c0,0.615,0.501,1.116,1.116,1.116H3.1c0.822,0,1.554,0.528,1.819,1.315
				c0.186,0.552,0.412,1.1,0.672,1.627c0.359,0.726,0.219,1.595-0.348,2.162l-1.165,1.165c-0.436,0.435-0.436,1.143,0,1.578
				l2.611,2.612c0.199,0.2,0.486,0.314,0.788,0.314h0c0.302,0,0.589-0.115,0.789-0.314l1.15-1.15
				C9.776,29.417,10.254,29.229,10.739,29.229z M19.346,34.033h-3.692c-0.282,0-0.512-0.23-0.512-0.512v-1.574
				c0-1.087-0.697-2.056-1.733-2.41c-0.529-0.181-1.051-0.399-1.552-0.649c-0.347-0.173-0.734-0.265-1.118-0.265
				c-0.661,0-1.282,0.257-1.749,0.724l-1.15,1.15c-0.094,0.094-0.222,0.146-0.36,0.147H7.48c-0.137,0-0.268-0.054-0.362-0.147
				l-2.612-2.611c-0.096-0.097-0.15-0.225-0.15-0.362c0-0.136,0.053-0.265,0.15-0.362l1.165-1.165
				c0.751-0.751,0.937-1.899,0.463-2.858c-0.247-0.498-0.462-1.021-0.642-1.552c-0.349-1.033-1.31-1.727-2.392-1.727H1.482
				c-0.282,0-0.511-0.23-0.511-0.512v-3.693c0-0.282,0.229-0.511,0.511-0.511H3.13c1.076,0,2.036-0.689,2.389-1.714
				c0.178-0.518,0.393-1.031,0.639-1.525c0.48-0.962,0.296-2.115-0.458-2.868L4.506,7.844c-0.096-0.097-0.15-0.225-0.15-0.362
				s0.053-0.265,0.15-0.362l2.612-2.612c0.186-0.186,0.536-0.186,0.723,0l1.209,1.209c0.75,0.751,1.9,0.937,2.859,0.463
				c0.496-0.245,1.009-0.458,1.527-0.633c1.021-0.347,1.707-1.299,1.707-2.37V1.485c0-0.282,0.23-0.512,0.512-0.512h3.692
				c0.282,0,0.512,0.23,0.512,0.512v1.693c0,1.071,0.686,2.023,1.707,2.37c0.519,0.176,1.032,0.389,1.527,0.633
				c0.96,0.473,2.109,0.288,2.859-0.462l1.208-1.209c0.096-0.096,0.224-0.15,0.361-0.15h0.001c0.137,0,0.265,0.053,0.362,0.149
				l2.611,2.612c0.096,0.095,0.15,0.224,0.15,0.361c0,0.137-0.053,0.265-0.15,0.362L29.3,9.037
				c-0.754,0.753-0.938,1.906-0.458,2.868c0.246,0.494,0.46,1.007,0.639,1.525c0.353,1.026,1.313,1.714,2.388,1.714h1.649
				c0.282,0,0.512,0.229,0.512,0.511v3.693c0,0.282-0.23,0.512-0.512,0.512H31.9c-1.082,0-2.043,0.694-2.392,1.727
				c-0.18,0.532-0.396,1.054-0.642,1.552c-0.474,0.959-0.288,2.108,0.463,2.858l1.165,1.165c0.096,0.097,0.15,0.225,0.15,0.362
				c0,0.137-0.053,0.265-0.15,0.362l-2.611,2.611c-0.201,0.199-0.525,0.198-0.724,0l-1.15-1.15
				c-0.755-0.754-1.906-0.939-2.866-0.459c-0.501,0.25-1.023,0.468-1.552,0.649c-1.037,0.354-1.733,1.323-1.733,2.41v1.574
				C19.858,33.803,19.628,34.033,19.346,34.033z M10.739,28.261c0.44,0,0.883,0.105,1.28,0.303c0.486,0.242,0.993,0.454,1.507,0.631
				c1.184,0.404,1.979,1.511,1.979,2.753v1.574c0,0.082,0.066,0.149,0.149,0.149h3.692c0.082,0,0.149-0.067,0.149-0.149v-1.574
				c0-1.243,0.795-2.349,1.979-2.753c0.514-0.176,1.021-0.388,1.507-0.631c1.1-0.548,2.42-0.338,3.285,0.527l1.15,1.15
				c0.058,0.058,0.152,0.058,0.21-0.001l2.611-2.611c0.029-0.028,0.044-0.065,0.044-0.105c0-0.04-0.015-0.076-0.044-0.105
				l-1.165-1.165c-0.861-0.861-1.074-2.177-0.531-3.276c0.239-0.483,0.449-0.99,0.623-1.507c0.399-1.18,1.498-1.973,2.736-1.973
				h1.618c0.082,0,0.149-0.067,0.149-0.149v-3.693c0-0.082-0.066-0.148-0.149-0.148h-1.649c-1.23,0-2.328-0.787-2.731-1.959
				c-0.173-0.503-0.382-1.002-0.621-1.482c-0.549-1.102-0.338-2.423,0.527-3.286l1.193-1.193c0.029-0.029,0.044-0.065,0.044-0.105
				c0-0.04-0.015-0.077-0.043-0.104l-2.612-2.613c-0.028-0.028-0.065-0.043-0.105-0.043h0c-0.04,0-0.077,0.016-0.104,0.043
				l-1.209,1.209c-0.86,0.861-2.175,1.074-3.276,0.531c-0.48-0.236-0.979-0.443-1.483-0.614c-1.169-0.396-1.953-1.487-1.953-2.713
				V1.485c0-0.082-0.067-0.149-0.149-0.149h-3.692c-0.082,0-0.149,0.067-0.149,0.149v1.693c0,1.226-0.785,2.317-1.954,2.713
				c-0.502,0.17-1.001,0.377-1.483,0.615C10.97,7.05,9.653,6.835,8.792,5.975L7.584,4.765c-0.05-0.051-0.158-0.051-0.21,0
				L4.763,7.377C4.734,7.405,4.719,7.442,4.719,7.482c0,0.04,0.015,0.077,0.044,0.105l1.193,1.194
				c0.864,0.864,1.075,2.185,0.526,3.287c-0.239,0.48-0.448,0.979-0.621,1.482c-0.403,1.172-1.501,1.959-2.732,1.959H1.482
				c-0.082,0-0.148,0.067-0.148,0.148v3.693c0,0.082,0.067,0.149,0.148,0.149H3.1c1.238,0,2.337,0.793,2.736,1.973
				c0.174,0.516,0.384,1.024,0.623,1.508c0.543,1.098,0.329,2.414-0.531,3.275l-1.165,1.165c-0.029,0.028-0.044,0.065-0.044,0.105
				c0,0.04,0.015,0.077,0.044,0.105l2.611,2.612c0.025,0.026,0.064,0.041,0.105,0.041H7.48c0.04,0,0.078-0.015,0.103-0.04l1.15-1.15
				C9.269,28.556,9.981,28.261,10.739,28.261z"/>
		</g>
	</g>
	<g>
		<g>
			<path class="st2" d="M17.5,27.168c-5.329,0-9.665-4.336-9.665-9.665c0-5.33,4.336-9.665,9.665-9.665s9.665,4.336,9.665,9.665
				C27.165,22.833,22.829,27.168,17.5,27.168z M17.5,8.805c-4.796,0-8.698,3.902-8.698,8.698c0,4.796,3.902,8.698,8.698,8.698
				c4.796,0,8.698-3.902,8.698-8.698C26.198,12.707,22.296,8.805,17.5,8.805z"/>
		</g>
		<g>
			<path class="st2" d="M17.5,27.35c-5.429,0-9.846-4.417-9.846-9.846c0-5.43,4.417-9.847,9.846-9.847s9.847,4.417,9.847,9.847
				C27.346,22.933,22.929,27.35,17.5,27.35z M17.5,8.019c-5.23,0-9.484,4.255-9.484,9.484c0,5.229,4.254,9.484,9.484,9.484
				s9.484-4.254,9.484-9.484C26.984,12.274,22.729,8.019,17.5,8.019z M17.5,26.382c-4.896,0-8.879-3.983-8.879-8.879
				c0-4.896,3.983-8.88,8.879-8.88s8.879,3.983,8.879,8.88C26.379,22.399,22.396,26.382,17.5,26.382z M17.5,8.987
				c-4.696,0-8.516,3.821-8.516,8.517c0,4.696,3.821,8.516,8.516,8.516s8.517-3.821,8.517-8.516
				C26.016,12.807,22.196,8.987,17.5,8.987z"/>
		</g>
	</g>
</g>
<g class="st0">
	<g class="st1">
		<g>
			<path class="st2" d="M29.585,34.193H0.587c-0.228,0-0.413-0.185-0.413-0.413V4.782c0-0.228,0.185-0.413,0.413-0.413h28.999
				c0.228,0,0.413,0.185,0.413,0.413V33.78C29.998,34.008,29.813,34.193,29.585,34.193z M0.999,33.368h28.173V5.194H0.999V33.368z"
				/>
		</g>
		<g>
			<path class="st2" d="M29.585,34.348H0.587c-0.313,0-0.567-0.255-0.567-0.568V4.782c0-0.313,0.255-0.568,0.567-0.568h28.999
				c0.313,0,0.567,0.255,0.567,0.568V33.78C30.153,34.093,29.898,34.348,29.585,34.348z M0.587,4.524
				c-0.142,0-0.258,0.116-0.258,0.258V33.78c0,0.142,0.116,0.258,0.258,0.258h28.999c0.142,0,0.258-0.116,0.258-0.258V4.782
				c0-0.142-0.116-0.258-0.258-0.258H0.587z M29.173,33.522H0.999c-0.086,0-0.155-0.069-0.155-0.155V5.194
				c0-0.085,0.069-0.155,0.155-0.155h28.173c0.086,0,0.155,0.069,0.155,0.155v28.173C29.327,33.453,29.258,33.522,29.173,33.522z
				 M1.154,33.213h27.864V5.349H1.154V33.213z"/>
		</g>
	</g>
	<g class="st1">
		<g>
			<path class="st2" d="M6.887,14.554c-1.521,0-2.76-1.238-2.76-2.76c0-1.521,1.238-2.76,2.76-2.76c1.522,0,2.76,1.238,2.76,2.76
				C9.647,13.316,8.409,14.554,6.887,14.554z M6.887,9.86c-1.066,0-1.934,0.868-1.934,1.934c0,1.067,0.868,1.935,1.934,1.935
				c1.067,0,1.935-0.868,1.935-1.935C8.822,10.728,7.954,9.86,6.887,9.86z"/>
		</g>
		<g>
			<path class="st2" d="M6.888,14.709c-1.607,0-2.914-1.307-2.914-2.915c0-1.607,1.307-2.914,2.914-2.914
				c1.607,0,2.915,1.307,2.915,2.914C9.802,13.402,8.495,14.709,6.888,14.709z M6.888,9.19c-1.436,0-2.605,1.168-2.605,2.605
				c0,1.436,1.168,2.605,2.605,2.605c1.436,0,2.605-1.169,2.605-2.605C9.493,10.358,8.324,9.19,6.888,9.19z M6.888,13.884
				c-1.152,0-2.089-0.938-2.089-2.089c0-1.152,0.937-2.089,2.089-2.089c1.152,0,2.089,0.937,2.089,2.089
				C8.977,12.946,8.039,13.884,6.888,13.884z M6.888,10.015c-0.981,0-1.779,0.798-1.779,1.779c0,0.981,0.798,1.78,1.779,1.78
				c0.981,0,1.78-0.798,1.78-1.78C8.667,10.814,7.869,10.015,6.888,10.015z"/>
		</g>
	</g>
	<g class="st1">
		<g>
			<path class="st2" d="M0.587,25.525c-0.126,0-0.251-0.058-0.332-0.166c-0.136-0.183-0.098-0.441,0.085-0.578l10.627-7.902
				c0.146-0.11,0.349-0.108,0.496,0.003l7.134,5.427L28.867,11.51c0.157-0.165,0.418-0.171,0.584-0.014
				c0.165,0.157,0.172,0.418,0.014,0.584L18.941,23.145c-0.145,0.152-0.382,0.171-0.549,0.044l-7.181-5.463L0.833,25.443
				C0.759,25.498,0.672,25.525,0.587,25.525z"/>
		</g>
		<g>
			<path class="st2" d="M0.587,25.68c-0.179,0-0.349-0.086-0.456-0.229c-0.187-0.251-0.134-0.607,0.117-0.794l10.627-7.902
				c0.2-0.15,0.481-0.149,0.682,0.004l7.024,5.343l10.173-10.698c0.216-0.226,0.576-0.234,0.802-0.02
				c0.227,0.216,0.236,0.576,0.02,0.803L19.053,23.252c-0.2,0.21-0.525,0.235-0.755,0.06L11.21,17.92L0.925,25.568
				C0.826,25.641,0.709,25.68,0.587,25.68z M11.213,16.952c-0.054,0-0.108,0.017-0.153,0.05L0.433,24.905
				c-0.114,0.085-0.138,0.247-0.053,0.361c0.082,0.111,0.249,0.136,0.361,0.053l10.377-7.717c0.055-0.041,0.131-0.041,0.186,0.001
				l7.181,5.463c0.105,0.08,0.252,0.068,0.343-0.027l10.524-11.066c0.098-0.103,0.094-0.266-0.009-0.365
				c-0.102-0.097-0.266-0.094-0.365,0.009L18.71,22.415c-0.054,0.058-0.143,0.064-0.205,0.017l-7.134-5.427
				C11.324,16.97,11.268,16.952,11.213,16.952z"/>
		</g>
	</g>
	<g class="st1">
		<path class="st2" d="M34.31,1.065H5.311c-0.313,0-0.567,0.255-0.567,0.568v2.925h1.135V2.2h27.864v27.864h-4.09v1.135h4.658
			c0.313,0,0.567-0.255,0.567-0.567V1.633C34.877,1.32,34.622,1.065,34.31,1.065z"/>
	</g>
</g>
<g class="st0">
	<path class="st3" d="M34.328,6.649h-2.328v-2.91c0.001-0.321-0.258-0.583-0.58-0.584c-0.017,0-0.034,0.001-0.051,0.002L29.85,3.285
		c-3.683,0.305-7.294,1.185-10.704,2.61L17.448,6.6l-1.696-0.704c-3.41-1.425-7.022-2.306-10.705-2.61l-1.519-0.13
		C3.208,3.13,2.926,3.367,2.899,3.688C2.898,3.705,2.897,3.722,2.897,3.739v2.91H0.569c-0.321,0-0.582,0.261-0.582,0.582v24.445
		c0,0.321,0.261,0.582,0.582,0.582h33.759c0.321,0,0.582-0.261,0.582-0.582V7.231C34.91,6.909,34.649,6.649,34.328,6.649z
		 M1.151,31.095V7.813h1.746v20.371c-0.001,0.303,0.231,0.556,0.533,0.582L4.996,28.9c0.427,0.036,0.854,0.08,1.28,0.132
		c0.143,0.017,0.284,0.04,0.427,0.058c0.282,0.038,0.565,0.076,0.846,0.12c0.168,0.027,0.335,0.058,0.502,0.088
		c0.255,0.045,0.51,0.09,0.764,0.14c0.175,0.035,0.349,0.073,0.524,0.111c0.245,0.052,0.49,0.106,0.734,0.164
		c0.175,0.042,0.352,0.087,0.528,0.132c0.24,0.062,0.48,0.124,0.719,0.191c0.175,0.049,0.349,0.1,0.524,0.151
		c0.237,0.07,0.474,0.143,0.711,0.219c0.173,0.055,0.346,0.112,0.518,0.17c0.238,0.08,0.474,0.164,0.711,0.249
		c0.168,0.058,0.336,0.122,0.502,0.185c0.072,0.027,0.144,0.058,0.215,0.085H1.151z M16.866,30.803l-1.073-0.448
		c-3.407-1.427-7.017-2.311-10.699-2.619L4.061,27.65V4.372l0.888,0.074c3.563,0.294,7.057,1.146,10.355,2.524l1.562,0.648V30.803z
		 M18.03,30.803V7.619l1.563-0.649c3.298-1.378,6.791-2.229,10.353-2.524l0.888-0.074v23.276l-0.956,0.078
		c-3.684,0.306-7.297,1.184-10.71,2.604L18.03,30.803z M33.745,31.094H20.405c0.08-0.031,0.159-0.063,0.239-0.094
		c0.175-0.067,0.349-0.13,0.528-0.194c0.228-0.083,0.457-0.163,0.687-0.24c0.179-0.058,0.36-0.116,0.54-0.175
		c0.23-0.073,0.461-0.143,0.692-0.212c0.182-0.054,0.364-0.107,0.546-0.157c0.233-0.065,0.466-0.126,0.704-0.186
		c0.18-0.046,0.361-0.092,0.543-0.135c0.242-0.058,0.486-0.111,0.73-0.162c0.175-0.038,0.349-0.077,0.527-0.112
		c0.256-0.051,0.513-0.095,0.77-0.14c0.166-0.029,0.332-0.058,0.499-0.087c0.287-0.045,0.574-0.084,0.863-0.123
		c0.138-0.018,0.276-0.04,0.414-0.058c0.427-0.052,0.856-0.096,1.287-0.132l1.491-0.121c0.303-0.025,0.535-0.278,0.534-0.582V7.813
		h1.746V31.094z"/>
</g>
<g class="st0">
	<g class="st1">
		<path class="st2" d="M28.74,22.803c-0.362-0.098-0.735,0.117-0.832,0.479c-0.098,0.362,0.116,0.735,0.479,0.832
			c2.316,0.625,3.934,2.737,3.934,5.136v4.975c0,0.375,0.304,0.679,0.679,0.679s0.679-0.304,0.679-0.679V29.25
			C33.679,26.239,31.648,23.588,28.74,22.803z"/>
	</g>
	<g class="st1">
		<path class="st2" d="M25.7,22.336c-0.126,0.126-0.199,0.301-0.199,0.48c0,0.179,0.073,0.354,0.199,0.48
			c0.126,0.126,0.301,0.199,0.48,0.199c0.179,0,0.354-0.073,0.481-0.199c0.126-0.127,0.199-0.302,0.199-0.48
			c0-0.179-0.072-0.354-0.199-0.48c-0.127-0.126-0.301-0.199-0.481-0.199C26.001,22.137,25.826,22.209,25.7,22.336z"/>
	</g>
	<g class="st1">
		<path class="st2" d="M7.196,33.546c-0.179,0-0.354,0.073-0.48,0.199c-0.126,0.126-0.199,0.302-0.199,0.48
			c0,0.179,0.073,0.354,0.199,0.48s0.302,0.199,0.48,0.199s0.354-0.073,0.48-0.199c0.126-0.126,0.199-0.302,0.199-0.48
			c0-0.179-0.073-0.354-0.199-0.48C7.55,33.619,7.374,33.546,7.196,33.546z"/>
	</g>
	<g class="st1">
		<path class="st2" d="M28.11,28.114h-0.79c-5.639,0-11.113-1.88-15.554-5.318c1.663-0.564,2.881-1.983,3.211-3.678
			c0.835,0.306,1.736,0.474,2.676,0.474c0.94,0,1.841-0.168,2.676-0.474c0.349,1.794,1.693,3.28,3.507,3.769
			c0.059,0.016,0.119,0.024,0.177,0.024c0.299,0,0.573-0.199,0.655-0.502c0.098-0.362-0.117-0.735-0.479-0.833
			c-1.423-0.384-2.446-1.62-2.577-3.067c2.153-1.276,3.643-3.559,3.815-6.195c0.964-0.286,1.669-1.18,1.669-2.236V9.168
			c0-1.051-0.699-1.942-1.657-2.232c-0.129-3.771-3.238-6.799-7.04-6.799h-1.492c-3.802,0-6.911,3.028-7.04,6.799
			c-0.958,0.29-1.658,1.181-1.658,2.233v0.907c0,1.056,0.706,1.951,1.67,2.237c0.172,2.637,1.662,4.92,3.815,6.196
			c-0.132,1.447-1.154,2.683-2.577,3.067l-0.977,0.264c0,0,0,0-0.001,0l-3.573,0.964c-2.908,0.785-4.938,3.436-4.938,6.447v4.975
			c0,0.375,0.304,0.679,0.679,0.679s0.679-0.304,0.679-0.679V29.25c0-2.257,1.432-4.26,3.531-5.009v7.166
			c0,0.375,0.304,0.679,0.679,0.679s0.679-0.304,0.679-0.679v-6.074c2.338,2.933,5.346,5.348,8.716,6.994
			c3.452,1.686,7.307,2.577,11.148,2.577h0.372c0.375,0,0.679-0.304,0.679-0.679v-5.432C28.789,28.418,28.485,28.114,28.11,28.114z
			 M11.221,11.801V11.73c0-0.375-0.304-0.679-0.679-0.679c-0.537,0-0.975-0.437-0.975-0.975V9.169c0-0.537,0.437-0.975,0.975-0.975
			c0.375,0,0.679-0.304,0.679-0.679V7.181c0-3.136,2.551-5.686,5.686-5.686h1.492c3.135,0,5.686,2.551,5.686,5.686v0.334
			c0,0.375,0.304,0.679,0.679,0.679c0.537,0,0.974,0.437,0.974,0.974v0.908c0,0.537-0.437,0.974-0.974,0.974
			c-0.375,0-0.679,0.304-0.679,0.679v0.072c0,3.547-2.885,6.432-6.432,6.432S11.221,15.348,11.221,11.801z M8.777,24.284
			L8.345,23.73l1.809-0.488c4.81,4.019,10.891,6.23,17.166,6.23h0.111v4.072C20.086,33.452,13.301,30.089,8.777,24.284z"/>
	</g>
	<g class="st1">
		<path class="st2" d="M17.653,12.971h0.951c0.375,0,0.679-0.304,0.679-0.679c0-0.375-0.304-0.679-0.679-0.679h-0.272V9.508
			c0-0.375-0.304-0.679-0.679-0.679s-0.679,0.304-0.679,0.679v2.784C16.974,12.667,17.278,12.971,17.653,12.971z"/>
	</g>
	<g class="st1">
		<path class="st2" d="M19.158,15.331c0.265-0.265,0.265-0.695,0-0.96c-0.265-0.265-0.695-0.265-0.96,0
			c-0.295,0.296-0.776,0.296-1.072,0c-0.265-0.265-0.695-0.265-0.96,0c-0.265,0.265-0.265,0.695,0,0.96
			c0.412,0.412,0.954,0.619,1.496,0.619S18.746,15.743,19.158,15.331z"/>
	</g>
	<g class="st1">
		<path class="st2" d="M15.884,7.928c-0.265-0.265-0.695-0.265-0.96,0c-0.143,0.143-0.333,0.222-0.536,0.222
			c-0.202,0-0.393-0.079-0.536-0.222c-0.265-0.265-0.695-0.265-0.96,0c-0.265,0.265-0.265,0.695,0,0.96
			c0.4,0.4,0.931,0.62,1.496,0.62s1.097-0.22,1.496-0.62C16.15,8.623,16.15,8.193,15.884,7.928z"/>
	</g>
	<g class="st1">
		<path class="st2" d="M21.262,9.508c0.565,0,1.097-0.22,1.496-0.62c0.265-0.265,0.265-0.695,0-0.96
			c-0.265-0.265-0.695-0.265-0.96,0c-0.143,0.143-0.333,0.222-0.536,0.222c-0.203,0-0.393-0.079-0.536-0.222
			c-0.265-0.265-0.695-0.265-0.96,0c-0.265,0.265-0.265,0.695,0,0.96C20.165,9.288,20.697,9.508,21.262,9.508z"/>
	</g>
	<g class="st1">
		<path class="st2" d="M17.676,7.716c-0.95,0-1.722-0.772-1.722-1.722V2.367c0-0.262,0.213-0.475,0.475-0.475
			s0.475,0.213,0.475,0.475v3.628c0,0.425,0.346,0.771,0.771,0.771c0.425,0,0.771-0.346,0.771-0.771l0.001-3.608
			c0-0.262,0.213-0.475,0.475-0.475l0,0c0.263,0,0.475,0.213,0.475,0.476l-0.001,3.608C19.398,6.944,18.626,7.716,17.676,7.716z"/>
	</g>
	<g class="st1">
		<circle class="st2" cx="17.659" cy="4.467" r="0.809"/>
	</g>
</g>
</svg>
